<svg width="16" height="17" viewBox="0 0 16 17" fill="none" xmlns="http://www.w3.org/2000/svg">
<path fill-rule="evenodd" clip-rule="evenodd" d="M7 8.5L6.9409 8.57983C6.34881 9.4014 6 10.41 6 11.5C6 12.6261 6.3723 13.6653 7.00054 14.5012L3 14.5C2.44772 14.5 2 14.0523 2 13.5C2 10.8112 4.12231 8.61818 6.78311 8.50462L7 8.5ZM11 8.5C11.5523 8.5 12 8.94772 12 9.5V10.5H13C13.5523 10.5 14 10.9477 14 11.5C14 12.0523 13.5523 12.5 13 12.5H12V13.5C12 14.0523 11.5523 14.5 11 14.5C10.4477 14.5 10 14.0523 10 13.5V12.5H9C8.44772 12.5 8 12.0523 8 11.5C8 10.9477 8.44772 10.5 9 10.5H10V9.5C10 8.94772 10.4477 8.5 11 8.5ZM8 2.5C9.65685 2.5 11 3.84315 11 5.5C11 5.85208 10.9393 6.19 10.8279 6.50387L11 6.5C9.42674 6.5 8.02319 7.22662 7.10664 8.36257C5.88571 7.98404 5 6.84545 5 5.5C5 3.84315 6.34315 2.5 8 2.5Z" fill="white"/>
</svg>
