<svg width="88" height="88" viewBox="0 0 88 88" fill="none" xmlns="http://www.w3.org/2000/svg">
<rect width="88" height="88" rx="15" fill="#C61F2A"/>
<g clip-path="url(#clip0_1106_1870)">
<path d="M67 14C67.0754 15.1324 66.925 16.2687 66.5574 17.3425C66.1899 18.4163 65.6125 19.4062 64.8589 20.2551C64.1053 21.104 63.1904 21.7946 62.1675 22.2872C61.1446 22.7797 60.034 23.0639 58.9001 23.1238C58.9001 23.1238 46.943 24.1952 39.4858 25.7374C32.0287 27.2795 28.8572 30.0211 25.3429 38.5885C24.7074 34.663 25.437 30.6379 27.41 27.1848C29.383 23.7317 32.4803 21.0594 36.1857 19.6119C39.9685 18.6289 43.803 17.8565 47.6714 17.2986C54.1806 16.6304 60.6378 15.5284 67 14V14Z" fill="white"/>
<path d="M61.2571 26.9798C55.9737 28.3065 50.6233 29.3503 45.2286 30.1068C42.0245 30.5572 38.8481 31.1862 35.7143 31.9914C33.1255 32.9009 30.8703 34.5681 29.2422 36.7761C27.6141 38.984 26.6885 41.631 26.5857 44.3719C26.5857 44.3719 26.5857 44.6712 26.5857 44.8425C26.5857 45.6993 26.5857 46.3846 26.5857 46.8986C26.5857 53.3242 26.8857 68.3172 26.5857 69.431C26.5857 69.431 26.5857 72.3441 22.0429 74.9571C22.0429 74.9571 32.5857 74.7002 32.5857 67.5464C32.5857 67.5464 32.9286 50.926 33.1858 45.4428C33.2433 44.2281 33.6445 43.0544 34.3429 42.0585V42.0585C35.451 40.496 36.8736 39.1816 38.5194 38.2005C40.1651 37.2194 41.9979 36.5928 43.9 36.3609L46.0857 36.0607L54.6571 34.9898C56.5829 34.7735 58.349 33.8171 59.5809 32.3219C60.8129 30.8266 61.414 28.9105 61.2571 26.9798V26.9798Z" fill="white"/>
<path d="M41.8429 41.2449C46.5894 40.9288 51.3039 40.2403 55.9429 39.1877C55.9893 40.2999 55.8094 41.4101 55.414 42.4507C55.0186 43.4914 54.4159 44.441 53.6426 45.242C52.8692 46.0431 51.9413 46.6789 50.9149 47.1109C49.8886 47.5429 48.785 47.7619 47.6714 47.7552H44.9715H44.6714C44.4512 47.7815 44.2384 47.8518 44.0455 47.9612C43.8526 48.0706 43.6835 48.2177 43.5478 48.3931C43.4122 48.5685 43.3128 48.7688 43.2555 48.983C43.1983 49.1972 43.1843 49.4211 43.2143 49.6408C43.2143 51.3971 42.9142 63.4773 42.8714 65.8333C42.8501 66.0327 42.8501 66.2332 42.8714 66.4326C42.8714 67.4178 42.8714 72.687 32.6714 73.0725C33.87 72.4315 34.8756 71.4819 35.5839 70.322C36.2922 69.1622 36.6774 67.8341 36.6999 66.4755V47.7552C36.642 46.2713 37.0833 44.811 37.9534 43.6074C38.8236 42.4038 40.0724 41.5271 41.5001 41.1162C41.5001 41.1162 41.8858 41.1162 41.8858 41.1162L41.8429 41.2449Z" fill="white"/>
</g>
<defs>
<clipPath id="clip0_1106_1870">
<rect width="45" height="61" fill="white" transform="translate(22 14)"/>
</clipPath>
</defs>
</svg>
