<svg width="43" height="43" viewBox="0 0 43 43" fill="none" xmlns="http://www.w3.org/2000/svg">
<path d="M28.6667 40.7606H14.3333C7.79375 40.7606 4.03125 36.9981 4.03125 30.4585V12.5418C4.03125 6.00225 7.79375 2.23975 14.3333 2.23975H28.6667C35.2062 2.23975 38.9687 6.00225 38.9687 12.5418V30.4585C38.9687 36.9981 35.2062 40.7606 28.6667 40.7606ZM14.3333 4.92725C9.20917 4.92725 6.71875 7.41766 6.71875 12.5418V30.4585C6.71875 35.5827 9.20917 38.0731 14.3333 38.0731H28.6667C33.7908 38.0731 36.2812 35.5827 36.2812 30.4585V12.5418C36.2812 7.41766 33.7908 4.92725 28.6667 4.92725H14.3333Z" fill="#576275"/>
<path d="M16.1253 19.9056C15.8207 19.9056 15.5162 19.8518 15.2295 19.7264C14.4053 19.3681 13.8857 18.5618 13.8857 17.6839V3.5835C13.8857 2.84891 14.4949 2.23975 15.2295 2.23975H27.7712C28.5057 2.23975 29.1149 2.84891 29.1149 3.5835V17.666C29.1149 18.5618 28.5953 19.3681 27.7712 19.7085C26.9649 20.0668 26.0154 19.9056 25.3525 19.2964L21.5003 15.7668L17.6482 19.3144C17.2182 19.7085 16.6807 19.9056 16.1253 19.9056ZM21.5003 12.9181C22.0378 12.9181 22.5932 13.1151 23.0232 13.5093L26.4274 16.6447V4.92725H16.5732V16.6447L19.9775 13.5093C20.4075 13.1151 20.9628 12.9181 21.5003 12.9181Z" fill="#576275"/>
<path d="M31.3538 26.4272H23.7393C23.0047 26.4272 22.3955 25.8181 22.3955 25.0835C22.3955 24.3489 23.0047 23.7397 23.7393 23.7397H31.3538C32.0884 23.7397 32.6976 24.3489 32.6976 25.0835C32.6976 25.8181 32.0884 26.4272 31.3538 26.4272Z" fill="#576275"/>
<path d="M31.3542 33.5937H16.125C15.3904 33.5937 14.7812 32.9846 14.7812 32.25C14.7812 31.5154 15.3904 30.9062 16.125 30.9062H31.3542C32.0888 30.9062 32.6979 31.5154 32.6979 32.25C32.6979 32.9846 32.0888 33.5937 31.3542 33.5937Z" fill="#576275"/>
</svg>
