<svg width="10" height="10" viewBox="0 0 10 10" fill="none" xmlns="http://www.w3.org/2000/svg">
<path d="M9.16634 2.0835V2.91683C9.16634 3.67933 8.82051 4.09183 8.12467 4.15433C8.05801 4.16266 7.98717 4.16683 7.91634 4.16683H2.08301C2.01217 4.16683 1.94134 4.16266 1.87467 4.15433C1.17884 4.09183 0.833008 3.67933 0.833008 2.91683V2.0835C0.833008 1.25016 1.24967 0.833496 2.08301 0.833496H7.91634C8.74967 0.833496 9.16634 1.25016 9.16634 2.0835Z" fill="#C61F2A"/>
<path d="M2.29167 4.6875C2.0625 4.6875 1.875 4.875 1.875 5.10417V7.91667C1.875 8.75 2.08333 9.16667 3.125 9.16667H6.875C7.91667 9.16667 8.125 8.75 8.125 7.91667V5.10417C8.125 4.875 7.9375 4.6875 7.70833 4.6875H2.29167ZM5.75833 6.5625H4.24167C4.07083 6.5625 3.92917 6.42083 3.92917 6.25C3.92917 6.07917 4.07083 5.9375 4.24167 5.9375H5.75833C5.92917 5.9375 6.07083 6.07917 6.07083 6.25C6.07083 6.42083 5.92917 6.5625 5.75833 6.5625Z" fill="#C61F2A"/>
</svg>
