<svg width="13" height="13" viewBox="0 0 13 13" fill="none" xmlns="http://www.w3.org/2000/svg">
<path d="M8.24326 1.39546V4.41407C8.24326 4.63918 7.97721 4.75174 7.81349 4.60337L6.91814 3.77965C6.82093 3.68756 6.66744 3.68756 6.57023 3.77965L5.67488 4.59825C5.51116 4.75174 5.24512 4.63407 5.24512 4.41407V1.39546C5.24512 1.25221 5.35768 1.13965 5.50093 1.13965H7.98744C8.1307 1.13965 8.24326 1.25221 8.24326 1.39546Z" fill="#C61F2A"/>
<path d="M9.29208 1.17013C9.14371 1.14966 9.01069 1.27757 9.01069 1.42594V4.50594C9.01069 4.89478 8.78046 5.2478 8.42232 5.40641C8.06418 5.5599 7.64976 5.49339 7.36325 5.22734L6.91813 4.81804C6.82092 4.72594 6.67255 4.72594 6.57022 4.81804L6.12511 5.22734C5.94092 5.40129 5.70046 5.48827 5.45999 5.48827C5.32697 5.48827 5.19395 5.46269 5.06604 5.40641C4.7079 5.2478 4.47767 4.89478 4.47767 4.50594V1.42594C4.47767 1.27757 4.34464 1.14966 4.19627 1.17013C2.76371 1.3492 2.13953 2.31618 2.13953 3.69757V8.81385C2.13953 10.3487 2.90697 11.372 4.69767 11.372H8.79069C10.5814 11.372 11.3488 10.3487 11.3488 8.81385V3.69757C11.3488 2.31618 10.7246 1.3492 9.29208 1.17013ZM9.55813 9.7092H5.20929C4.99953 9.7092 4.82557 9.53525 4.82557 9.32548C4.82557 9.11571 4.99953 8.94176 5.20929 8.94176H9.55813C9.7679 8.94176 9.94185 9.11571 9.94185 9.32548C9.94185 9.53525 9.7679 9.7092 9.55813 9.7092ZM9.55813 7.66269H7.38371C7.17394 7.66269 6.99999 7.48873 6.99999 7.27897C6.99999 7.0692 7.17394 6.89525 7.38371 6.89525H9.55813C9.7679 6.89525 9.94185 7.0692 9.94185 7.27897C9.94185 7.48873 9.7679 7.66269 9.55813 7.66269Z" fill="#C61F2A"/>
</svg>
