<svg width="34" height="34" viewBox="0 0 34 34" fill="none" xmlns="http://www.w3.org/2000/svg">
<circle cx="17" cy="17" r="17" fill="#C61F2A" fill-opacity="0.1"/>
<path opacity="0.4" d="M24.5112 14.0827V18.8981L23.2224 17.7911C22.6056 17.2613 21.6094 17.2613 20.9926 17.7911L17.7033 20.6139C17.0866 21.1437 16.0903 21.1437 15.4735 20.6139L15.2047 20.3925C14.6433 19.9023 13.7498 19.8548 13.1173 20.2818L9.22703 22.8911L9.14006 22.9544C8.8475 22.3218 8.69727 21.5706 8.69727 20.7088V14.0827C8.69727 11.2046 10.4131 9.48877 13.2912 9.48877H19.9173C22.7954 9.48877 24.5112 11.2046 24.5112 14.0827Z" fill="#C61F2A"/>
<path d="M14.2322 16.1148C15.2715 16.1148 16.1141 15.2723 16.1141 14.2329C16.1141 13.1936 15.2715 12.3511 14.2322 12.3511C13.1929 12.3511 12.3503 13.1936 12.3503 14.2329C12.3503 15.2723 13.1929 16.1148 14.2322 16.1148Z" fill="#C61F2A"/>
<path d="M24.5113 18.8979V20.7086C24.5113 23.5867 22.7955 25.3025 19.9173 25.3025H13.2913C11.275 25.3025 9.82014 24.4565 9.14014 22.9541L9.22711 22.8909L13.1173 20.2816C13.7499 19.8546 14.6434 19.902 15.2048 20.3923L15.4736 20.6137C16.0904 21.1434 17.0866 21.1434 17.7034 20.6137L20.9927 17.7909C21.6094 17.2611 22.6057 17.2611 23.2225 17.7909L24.5113 18.8979Z" fill="#C61F2A"/>
</svg>
