<svg width="22" height="22" viewBox="0 0 22 22" fill="none" xmlns="http://www.w3.org/2000/svg">
<path d="M2.96087 0.916504H10.4134C11.0367 0.916504 11.5409 1.42984 11.5409 2.06234V3.31817C11.5409 3.7765 11.2567 4.34484 10.9725 4.629L8.55254 6.81067C8.21337 7.09484 7.99337 7.66317 7.99337 8.1215V10.5782C7.99337 10.9173 7.76421 11.3757 7.48921 11.5498L6.69171 12.0723C5.95837 12.5307 4.94087 12.0173 4.94087 11.1007V8.0665C4.94087 7.66317 4.71171 7.14984 4.49171 6.86567L2.34671 4.574C2.06254 4.28984 1.83337 3.7765 1.83337 3.43734V2.11734C1.83337 1.42984 2.33754 0.916504 2.96087 0.916504Z" fill="#C61F2A"/>
<path d="M15.5834 1.8335H13.3834C13.1267 1.8335 12.925 2.03516 12.925 2.29183C12.925 2.73183 12.925 3.3185 12.925 3.3185C12.925 4.226 12.4392 5.11516 11.9625 5.601L9.46921 7.8285C9.44171 7.89266 9.39587 7.98433 9.36837 8.05766V10.5785C9.36837 11.4127 8.87337 12.3202 8.19504 12.7327L7.44337 13.2185C7.02171 13.4843 6.55421 13.6127 6.08671 13.6127C5.66504 13.6127 5.24337 13.5027 4.85837 13.2918C4.39511 13.0352 4.04267 12.6512 3.8226 12.2001C3.69698 11.9425 3.66671 11.6522 3.66671 11.3656V9.35933C3.66671 9.24016 3.62087 9.121 3.52921 9.0385L2.61254 8.12183C2.32837 7.8285 1.83337 8.03016 1.83337 8.44266V15.5835C1.83337 18.1135 3.88671 20.1668 6.41671 20.1668H15.5834C18.1134 20.1668 20.1667 18.1135 20.1667 15.5835V6.41683C20.1667 3.88683 18.1134 1.8335 15.5834 1.8335ZM16.5 16.271H10.0834C9.70754 16.271 9.39587 15.9593 9.39587 15.5835C9.39587 15.2077 9.70754 14.896 10.0834 14.896H16.5C16.8759 14.896 17.1875 15.2077 17.1875 15.5835C17.1875 15.9593 16.8759 16.271 16.5 16.271ZM16.5 12.6043H11.9167C11.5409 12.6043 11.2292 12.2927 11.2292 11.9168C11.2292 11.541 11.5409 11.2293 11.9167 11.2293H16.5C16.8759 11.2293 17.1875 11.541 17.1875 11.9168C17.1875 12.2927 16.8759 12.6043 16.5 12.6043Z" fill="#C61F2A"/>
</svg>
