<svg width="108" height="146" viewBox="0 0 108 146" fill="none" xmlns="http://www.w3.org/2000/svg">
<g clip-path="url(#clip0_1_9)">
<path d="M108 0.00012207C108.181 2.71048 107.82 5.43004 106.938 8.00012C106.056 10.5702 104.67 12.9395 102.861 14.9713C101.053 17.0031 98.8569 18.656 96.4019 19.8349C93.9468 21.0138 91.2814 21.694 88.5602 21.8374C88.5602 21.8374 59.863 24.4017 41.9659 28.0927C24.0687 31.7837 16.4571 38.3455 8.02283 58.8511C6.49763 49.4557 8.24872 39.8218 12.9839 31.557C17.7192 23.2923 25.1525 16.8964 34.0457 13.4319C43.1243 11.0791 52.327 9.23035 61.6113 7.89498C77.2333 6.2958 92.7307 3.65818 108 0.00012207Z" fill="white"/>
<path d="M94.2172 31.0664C81.5371 34.2417 68.6961 36.7399 55.7488 38.5508C48.0589 39.6286 40.4355 41.1341 32.9145 43.0614C26.7012 45.2382 21.2887 49.2286 17.3814 54.5132C13.474 59.7978 11.2526 66.1332 11.0059 72.6934C11.0059 72.6934 11.0059 73.4097 11.0059 73.8198C11.0059 75.8704 11.0059 77.5106 11.0059 78.741C11.0059 94.1202 11.7259 130.005 11.0059 132.671C11.0059 132.671 11.0059 139.643 0.103027 145.897C0.103027 145.897 25.4058 145.282 25.4058 128.16C25.4058 128.16 26.2288 88.3802 26.8459 75.2566C26.9841 72.3491 27.947 69.54 29.623 67.1565C32.2826 63.4165 35.6967 60.2707 39.6466 57.9225C43.5965 55.5742 47.9951 54.0747 52.5602 53.5195L57.8057 52.8011L78.3772 50.2379C82.9991 49.7202 87.2377 47.4312 90.1944 43.8524C93.1511 40.2736 94.5938 35.6874 94.2172 31.0664Z" fill="white"/>
<path d="M47.6229 65.2091C59.0146 64.4525 70.3293 62.8047 81.463 60.2854C81.5744 62.9474 81.1425 65.6044 80.1936 68.0952C79.2447 70.5859 77.7982 72.8588 75.9422 74.776C74.0862 76.6932 71.8593 78.2151 69.3959 79.2491C66.9326 80.2831 64.2841 80.8072 61.6113 80.791H55.1316H54.4115C53.883 80.8542 53.3722 81.0223 52.9092 81.2841C52.4462 81.546 52.0403 81.898 51.7148 82.3179C51.3893 82.7378 51.1507 83.217 51.0133 83.7297C50.8759 84.2423 50.8424 84.7784 50.9144 85.3042C50.9144 89.5078 50.1942 118.421 50.0914 124.06C50.0403 124.537 50.0403 125.017 50.0914 125.494C50.0914 127.853 50.0913 140.464 25.6113 141.387C28.4881 139.852 30.9016 137.58 32.6015 134.803C34.3013 132.027 35.2259 128.849 35.2799 125.597V80.791C35.1408 77.2395 36.2 73.7445 38.2883 70.8636C40.3766 67.9828 43.3737 65.8845 46.8002 64.9012H47.7259L47.6229 65.2091Z" fill="white"/>
</g>
<defs>
<clipPath id="clip0_1_9">
<rect width="108" height="146" fill="white"/>
</clipPath>
</defs>
</svg>
