<svg width="96" height="118" viewBox="0 0 96 118" fill="none" xmlns="http://www.w3.org/2000/svg">
<g clip-path="url(#clip0_48_841)">
<path d="M75.83 8.64208e-05C76.3254 1.87851 76.4416 3.83706 76.1715 5.76149C75.9014 7.68591 75.2504 9.53782 74.2567 11.2102C73.2629 12.8826 71.9459 14.3416 70.3824 15.503C68.8189 16.6644 67.0399 17.5042 65.1487 17.9748C65.1487 17.9748 45.3481 23.6755 33.2836 28.6995C21.2192 33.7235 16.7667 39.3652 13.6316 54.9092C11.2838 48.5196 11.2039 41.5174 13.4054 35.0709C15.6069 28.6244 19.9568 23.1234 25.73 19.4822C31.7847 16.5963 37.9949 14.0475 44.3322 11.8481C55.0834 8.60202 65.6062 4.64379 75.83 8.64208e-05V8.64208e-05Z" fill="#C61F2A"/>
<path d="M70.3749 23.686C61.9034 27.6388 53.2269 31.1381 44.3823 34.1693C39.1295 35.9712 33.9815 38.0644 28.9627 40.4398C24.896 42.8126 21.6381 46.35 19.6129 50.5915C17.5877 54.833 16.889 59.5833 17.6073 64.2229C17.6073 64.2229 17.7047 64.7258 17.7604 65.0138C18.0391 66.4535 18.2621 67.6052 18.4293 68.4691C20.5195 79.2673 25.9022 104.365 25.759 106.335C25.759 106.335 26.7066 111.23 19.9014 117.103C19.9014 117.103 37.5836 113.233 35.2565 101.211C35.2565 101.211 30.4278 73.1681 29.0775 63.8697C28.7793 61.8096 29.0736 59.7063 29.9264 57.805V57.805C31.2856 54.8176 33.2551 52.1448 35.7093 49.9592C38.1635 47.7736 41.0481 46.1229 44.1779 45.1126L47.7633 43.8953L61.8587 39.2997C65.0336 38.308 67.6985 36.1248 69.2881 33.2101C70.8777 30.2955 71.2674 26.8793 70.3749 23.686V23.686Z" fill="#C61F2A"/>
<path d="M42.3001 53.9912C50.1957 51.9117 57.9161 49.217 65.391 45.9349C65.831 47.7888 65.8889 49.7131 65.5612 51.5909C65.2334 53.4686 64.5267 55.2611 63.4841 56.8595C62.4415 58.4579 61.0848 59.8291 59.4957 60.8899C57.9067 61.9507 56.1183 62.6786 54.2395 63.0305L49.6899 63.9112L49.1843 64.0091C48.8218 64.1253 48.486 64.3127 48.1965 64.5595C47.907 64.8063 47.6699 65.1086 47.4984 65.4477C47.3269 65.7867 47.2245 66.1556 47.1977 66.5343C47.1709 66.9129 47.2202 67.2938 47.3423 67.6532C47.9136 70.6047 51.3376 91.0034 52.0318 94.9767C52.0608 95.3186 52.126 95.6557 52.2267 95.9838C52.5472 97.6395 54.2612 106.494 37.1985 110.469C39.0099 109.001 40.3955 107.077 41.2117 104.897C42.028 102.717 42.2451 100.359 41.8411 98.0689L35.7515 66.6093C35.1711 64.1346 35.4397 61.5366 36.5145 59.2301C37.5892 56.9235 39.4084 55.0429 41.6806 53.8868C41.6806 53.8868 42.3305 53.761 42.3305 53.761L42.3001 53.9912Z" fill="#C61F2A"/>
</g>
<defs>
<clipPath id="clip0_48_841">
<rect width="77.2376" height="104.414" fill="white" transform="translate(0 14.6785) rotate(-10.9553)"/>
</clipPath>
</defs>
</svg>
