<svg width="20" height="20" viewBox="0 0 20 20" fill="none" xmlns="http://www.w3.org/2000/svg">
<path opacity="0.4" d="M17.5112 7.08272V11.8981L16.2224 10.7911C15.6056 10.2613 14.6094 10.2613 13.9926 10.7911L10.7033 13.6139C10.0866 14.1437 9.09029 14.1437 8.47354 13.6139L8.20471 13.3925C7.64331 12.9023 6.74982 12.8548 6.11727 13.2818L2.22703 15.8911L2.14006 15.9544C1.8475 15.3218 1.69727 14.5706 1.69727 13.7088V7.08272C1.69727 4.20458 3.41308 2.48877 6.29122 2.48877H12.9173C15.7954 2.48877 17.5112 4.20458 17.5112 7.08272Z" fill="#C61F2A"/>
<path d="M7.23245 9.11479C8.27177 9.11479 9.11431 8.27226 9.11431 7.23293C9.11431 6.19361 8.27177 5.35107 7.23245 5.35107C6.19312 5.35107 5.35059 6.19361 5.35059 7.23293C5.35059 8.27226 6.19312 9.11479 7.23245 9.11479Z" fill="#C61F2A"/>
<path d="M17.5118 11.8979V13.7086C17.5118 16.5867 15.796 18.3025 12.9178 18.3025H6.29179C4.27551 18.3025 2.82063 17.4565 2.14062 15.9541L2.2276 15.8909L6.11783 13.2816C6.75039 12.8546 7.64388 12.902 8.20528 13.3923L8.47411 13.6137C9.09086 14.1434 10.0871 14.1434 10.7039 13.6137L13.9932 10.7909C14.6099 10.2611 15.6062 10.2611 16.223 10.7909L17.5118 11.8979Z" fill="#C61F2A"/>
</svg>
