<svg width="22" height="22" viewBox="0 0 22 22" fill="none" xmlns="http://www.w3.org/2000/svg">
<circle cx="11" cy="11" r="11" fill="#005B45" fill-opacity="0.1"/>
<path d="M10.3946 16.1767C10.2631 16.1767 10.1447 16.1491 10.0132 16.0938C9.64495 15.9282 9.4082 15.5555 9.4082 15.1414V6.85902C9.4082 6.29306 9.85539 5.82373 10.3946 5.82373C10.9339 5.82373 11.3811 6.29306 11.3811 6.85902V12.6429L12.328 11.649C12.7095 11.2487 13.3408 11.2487 13.7222 11.649C14.1036 12.0493 14.1036 12.7119 13.7222 13.1122L11.0917 15.873C10.9076 16.0662 10.6445 16.1767 10.3946 16.1767Z" fill="#005B45"/>
<path d="M10.3949 16.1766C10.145 16.1766 9.89508 16.0799 9.6978 15.8729L7.06731 13.1121C6.6859 12.7118 6.6859 12.0492 7.06731 11.6489C7.44873 11.2486 8.08005 11.2486 8.46147 11.6489L11.092 14.4097C11.4734 14.81 11.4734 15.4726 11.092 15.8729C10.8947 16.0799 10.6448 16.1766 10.3949 16.1766Z" fill="#005B45"/>
</svg>
