<svg width="22" height="22" viewBox="0 0 22 22" fill="none" xmlns="http://www.w3.org/2000/svg">
<circle cx="11" cy="11" r="11" transform="rotate(-180 11 11)" fill="#C61F2A" fill-opacity="0.1"/>
<path d="M11.6054 5.82333C11.7369 5.82333 11.8553 5.85093 11.9868 5.90615C12.3551 6.0718 12.5918 6.4445 12.5918 6.85862L12.5918 15.141C12.5918 15.7069 12.1446 16.1763 11.6054 16.1763C11.0661 16.1763 10.6189 15.7069 10.6189 15.141V9.35713L9.67196 10.351C9.29054 10.7513 8.65923 10.7513 8.27781 10.351C7.89639 9.9507 7.89639 9.28811 8.27781 8.8878L10.9083 6.12701C11.0924 5.93376 11.3555 5.82333 11.6054 5.82333Z" fill="#C61F2A"/>
<path d="M11.6051 5.82344C11.855 5.82344 12.1049 5.92007 12.3022 6.12713L14.9327 8.88791C15.3141 9.28823 15.3141 9.95082 14.9327 10.3511C14.5513 10.7514 13.9199 10.7514 13.5385 10.3511L10.908 7.59035C10.5266 7.19003 10.5266 6.52744 10.908 6.12713C11.1053 5.92007 11.3552 5.82344 11.6051 5.82344Z" fill="#C61F2A"/>
</svg>
