<svg width="13" height="13" viewBox="0 0 13 13" fill="none" xmlns="http://www.w3.org/2000/svg">
<path d="M9.57347 4.09174C9.53766 4.08663 9.50184 4.08663 9.46603 4.09174C8.673 4.06616 8.0437 3.41639 8.0437 2.61825C8.0437 1.80476 8.7037 1.13965 9.52231 1.13965C10.3358 1.13965 11.0009 1.79965 11.0009 2.61825C10.9958 3.41639 10.3665 4.06616 9.57347 4.09174Z" fill="#C61F2A"/>
<path d="M11.2414 7.63719C10.6684 8.02091 9.8651 8.16417 9.12324 8.06696C9.31766 7.64742 9.41998 7.18184 9.4251 6.69068C9.4251 6.17905 9.31254 5.693 9.09766 5.26835C9.85487 5.16603 10.6581 5.30928 11.2363 5.693C12.0446 6.2251 12.0446 7.09998 11.2414 7.63719Z" fill="#C61F2A"/>
<path d="M3.8995 4.09174C3.93531 4.08663 3.97113 4.08663 4.00694 4.09174C4.79996 4.06616 5.42927 3.41639 5.42927 2.61825C5.42927 1.79965 4.76927 1.13965 3.95066 1.13965C3.13717 1.13965 2.47717 1.79965 2.47717 2.61825C2.47717 3.41639 3.10648 4.06616 3.8995 4.09174Z" fill="#C61F2A"/>
<path d="M3.95583 6.69077C3.95583 7.18705 4.06327 7.65775 4.25769 8.0824C3.5363 8.15915 2.7842 8.00566 2.23165 7.6424C1.42327 7.10519 1.42327 6.23031 2.23165 5.6931C2.77909 5.32473 3.55165 5.17635 4.27816 5.25822C4.06839 5.68798 3.95583 6.17403 3.95583 6.69077Z" fill="#C61F2A"/>
<path d="M6.80552 8.23559C6.76459 8.23047 6.71854 8.23047 6.67249 8.23559C5.7311 8.20489 4.979 7.43233 4.979 6.4807C4.98412 5.50861 5.76691 4.7207 6.74412 4.7207C7.71621 4.7207 8.50412 5.50861 8.50412 6.4807C8.499 7.43233 7.75203 8.20489 6.80552 8.23559Z" fill="#C61F2A"/>
<path d="M5.14277 9.29479C4.37021 9.81154 4.37021 10.6608 5.14277 11.1725C6.02277 11.7608 7.46556 11.7608 8.34556 11.1725C9.11812 10.6557 9.11812 9.80642 8.34556 9.29479C7.47068 8.70642 6.02789 8.70642 5.14277 9.29479Z" fill="#C61F2A"/>
</svg>
