<svg width="16" height="16" viewBox="0 0 16 16" fill="none" xmlns="http://www.w3.org/2000/svg">
<path d="M5.52637 4.1935C5.24637 4.1935 5.02637 3.96683 5.02637 3.6935V1.8335C5.02637 1.56016 5.24637 1.3335 5.52637 1.3335C5.80637 1.3335 6.02637 1.56016 6.02637 1.8335V3.68683C6.02637 3.96683 5.80637 4.1935 5.52637 4.1935Z" fill="#C61F2A"/>
<path d="M10.4736 4.1935C10.1936 4.1935 9.97363 3.96683 9.97363 3.6935V1.8335C9.97363 1.5535 10.2003 1.3335 10.4736 1.3335C10.7536 1.3335 10.9736 1.56016 10.9736 1.8335V3.68683C10.9736 3.96683 10.7536 4.1935 10.4736 4.1935Z" fill="#C61F2A"/>
<path d="M14.333 10.5468C14.333 10.6468 14.2996 10.7468 14.213 10.8335C13.2463 11.8068 11.5263 13.5401 10.5396 14.5335C10.453 14.6268 10.3396 14.6668 10.2263 14.6668C10.0063 14.6668 9.79297 14.4935 9.79297 14.2401V11.9068C9.79297 10.9335 10.6196 10.1268 11.633 10.1268C12.2663 10.1201 13.1463 10.1201 13.8996 10.1201C14.1596 10.1201 14.333 10.3268 14.333 10.5468Z" fill="#C61F2A"/>
<path d="M14.333 10.5468C14.333 10.6468 14.2996 10.7468 14.213 10.8335C13.2463 11.8068 11.5263 13.5401 10.5396 14.5335C10.453 14.6268 10.3396 14.6668 10.2263 14.6668C10.0063 14.6668 9.79297 14.4935 9.79297 14.2401V11.9068C9.79297 10.9335 10.6196 10.1268 11.633 10.1268C12.2663 10.1201 13.1463 10.1201 13.8996 10.1201C14.1596 10.1201 14.333 10.3268 14.333 10.5468Z" fill="#C61F2A"/>
<path d="M13.047 3.00016C12.607 2.6735 11.9737 2.98683 11.9737 3.54016V3.60683C11.9737 4.38683 11.4137 5.10683 10.6337 5.18683C9.73366 5.28016 8.97366 4.5735 8.97366 3.6935V3.00016C8.97366 2.6335 8.67366 2.3335 8.30699 2.3335H7.69366C7.32699 2.3335 7.02699 2.6335 7.02699 3.00016V3.60683C7.02699 4.1935 6.71366 4.74016 6.22699 5.00683C6.20033 5.02683 6.17366 5.04016 6.14699 5.0535C6.14033 5.0535 6.14033 5.06016 6.13366 5.06016C6.08699 5.08016 6.04033 5.10016 5.98699 5.12016C5.97366 5.12683 5.96033 5.12683 5.94699 5.1335C5.86699 5.16016 5.78032 5.18016 5.68699 5.18683H5.68033C5.58033 5.20016 5.47366 5.20016 5.37366 5.18683H5.36699C5.27366 5.18016 5.18699 5.16016 5.10699 5.1335C5.04033 5.1135 4.97366 5.08683 4.90699 5.0535C4.38699 4.82016 4.02699 4.30016 4.02699 3.6935V3.54016C4.02699 3.02683 3.48033 2.72016 3.04699 2.94016C3.04033 2.94683 3.03366 2.94683 3.02699 2.9535H3.02033C2.97366 2.98683 2.93366 3.02016 2.88699 3.0535C2.81366 3.1135 2.74033 3.1735 2.67366 3.24016C2.62699 3.28683 2.58033 3.3335 2.54033 3.38016C2.48699 3.4335 2.44033 3.48683 2.39366 3.54683C2.36033 3.58683 2.32033 3.62683 2.29366 3.6735C2.26033 3.7135 2.23366 3.76016 2.20699 3.80016C2.20033 3.80683 2.19366 3.8135 2.18699 3.82683C2.12699 3.9135 2.07366 4.0135 2.02699 4.10683C2.01366 4.12016 2.00699 4.12683 2.00699 4.14016C1.96699 4.22016 1.92699 4.30016 1.90033 4.38683C1.88033 4.42016 1.87366 4.44683 1.86033 4.48016C1.84699 4.50683 1.84033 4.54016 1.82699 4.56683C1.80699 4.6335 1.78699 4.70683 1.76699 4.78016C1.74033 4.8735 1.72033 4.9735 1.70699 5.0735C1.69366 5.14683 1.68699 5.22016 1.68033 5.30016C1.67366 5.3935 1.66699 5.48683 1.66699 5.58016V11.4202C1.66699 13.2135 3.12033 14.6668 4.91366 14.6668H8.12699C8.49366 14.6668 8.79366 14.3668 8.79366 14.0002V11.9068C8.79366 10.3735 10.067 9.12683 11.6337 9.12683C11.987 9.12016 12.847 9.12016 13.667 9.12016C14.0337 9.12016 14.3337 8.82016 14.3337 8.4535V5.58016C14.3337 4.52016 13.827 3.5935 13.047 3.00016ZM7.42033 10.6068C7.36033 10.8068 7.17366 10.9468 6.95366 10.9468H4.52699C4.49366 10.9468 4.46699 10.9468 4.44033 10.9335C4.20033 10.9002 4.02699 10.6935 4.02699 10.4468C4.02699 10.1668 4.24699 9.94016 4.52699 9.94016H6.95366C7.22699 9.94016 7.45366 10.1668 7.45366 10.4468C7.45366 10.5002 7.44699 10.5602 7.42033 10.6068ZM9.27366 8.1335C9.21366 8.3335 9.02699 8.4735 8.80699 8.4735H4.52699C4.49366 8.4735 4.46699 8.4735 4.44033 8.46016C4.20033 8.42683 4.02699 8.22016 4.02699 7.9735C4.02699 7.6935 4.24699 7.46683 4.52699 7.46683H8.80699C9.08699 7.46683 9.30699 7.6935 9.30699 7.9735C9.30699 8.02683 9.30032 8.08683 9.27366 8.1335Z" fill="#C61F2A"/>
</svg>
