<svg width="22" height="22" viewBox="0 0 22 22" fill="none" xmlns="http://www.w3.org/2000/svg">
<circle cx="11" cy="11" r="11" transform="rotate(-180 11 11)" fill="#C61F2A" fill-opacity="0.1"/>
<path d="M15.8351 8.4752C15.5151 7.3902 14.6101 6.4852 13.5251 6.1652C12.7001 5.9252 12.1301 5.9452 11.7351 6.2402C11.2601 6.5952 11.2051 7.2352 11.2051 7.6902V8.9352C11.2051 10.1652 11.7651 10.7902 12.8651 10.7902H14.3001C14.7501 10.7902 15.3951 10.7352 15.7501 10.2602C16.0551 9.8702 16.0801 9.3002 15.8351 8.4752Z" fill="#C61F2A"/>
<path d="M14.4547 11.6801C14.3247 11.5301 14.1347 11.4451 13.9397 11.4451H12.1497C11.2697 11.4451 10.5547 10.7301 10.5547 9.85007V8.06007C10.5547 7.86507 10.4697 7.67507 10.3197 7.54508C10.1747 7.41508 9.9747 7.35508 9.7847 7.38008C8.6097 7.53008 7.52971 8.17507 6.82471 9.14507C6.11471 10.1201 5.85471 11.3101 6.07971 12.5001C6.40471 14.2201 7.77971 15.5951 9.50471 15.9201C9.77971 15.9751 10.0547 16.0001 10.3297 16.0001C11.2347 16.0001 12.1097 15.7201 12.8547 15.1751C13.8247 14.4701 14.4697 13.3901 14.6197 12.2151C14.6447 12.0201 14.5847 11.8251 14.4547 11.6801Z" fill="#C61F2A"/>
</svg>
