<svg width="22" height="22" viewBox="0 0 22 22" fill="none" xmlns="http://www.w3.org/2000/svg">
<circle cx="11" cy="11" r="11" transform="rotate(-180 11 11)" fill="#005B45" fill-opacity="0.1"/>
<path d="M13.095 6H8.905C7.085 6 6 7.085 6 8.905V13.09C6 14.915 7.085 16 8.905 16H13.09C14.91 16 15.995 14.915 15.995 13.095V8.905C16 7.085 14.915 6 13.095 6ZM13.44 10.765C13.44 10.96 13.285 11.115 13.09 11.115C12.895 11.115 12.74 10.96 12.74 10.765V10.675L11.38 12.035C11.305 12.11 11.205 12.145 11.1 12.135C10.995 12.125 10.9 12.07 10.845 11.98L10.335 11.22L9.145 12.41C9.075 12.48 8.99 12.51 8.9 12.51C8.81 12.51 8.72 12.475 8.655 12.41C8.52 12.275 8.52 12.055 8.655 11.915L10.145 10.425C10.22 10.35 10.32 10.315 10.425 10.325C10.53 10.335 10.625 10.39 10.68 10.48L11.19 11.24L12.245 10.185H12.155C11.96 10.185 11.805 10.03 11.805 9.835C11.805 9.64 11.96 9.485 12.155 9.485H13.085C13.13 9.485 13.175 9.495 13.22 9.51C13.305 9.545 13.375 9.615 13.41 9.7C13.43 9.745 13.435 9.79 13.435 9.835V10.765H13.44Z" fill="#292D32"/>
</svg>
