<svg width="66" height="55" viewBox="0 0 66 55" fill="none" xmlns="http://www.w3.org/2000/svg">
<path d="M64.83 8.70738e-05C65.3254 1.87852 65.4416 3.83706 65.1715 5.76149C64.9014 7.68591 64.2504 9.53782 63.2567 11.2102C62.2629 12.8826 60.9459 14.3416 59.3824 15.503C57.8189 16.6644 56.0399 17.5042 54.1487 17.9748C54.1487 17.9748 34.3481 23.6755 22.2836 28.6995C10.2192 33.7235 5.76665 39.3652 2.63164 54.9092C0.283806 48.5196 0.203946 41.5174 2.4054 35.0709C4.60686 28.6244 8.95676 23.1234 14.73 19.4822C20.7847 16.5963 26.9949 14.0475 33.3322 11.8481C44.0834 8.60202 54.6062 4.64379 64.83 8.70738e-05Z" fill="#C61F2A"/>
</svg>
