<svg width="31" height="66" viewBox="0 0 31 66" fill="none" xmlns="http://www.w3.org/2000/svg">
<path d="M7.30006 8.99117C15.1957 6.91172 22.9161 4.21696 30.391 0.934875C30.831 2.78877 30.8889 4.71309 30.5612 6.59086C30.2334 8.46864 29.5267 10.2611 28.4841 11.8595C27.4415 13.4579 26.0848 14.8291 24.4957 15.8899C22.9067 16.9507 21.1183 17.6786 19.2395 18.0305L14.6899 18.9112L14.1843 19.0091C13.8218 19.1253 13.486 19.3127 13.1965 19.5595C12.907 19.8063 12.6699 20.1086 12.4984 20.4477C12.3269 20.7867 12.2245 21.1556 12.1977 21.5343C12.1709 21.9129 12.2202 22.2938 12.3423 22.6532C12.9136 25.6047 16.3376 46.0034 17.0318 49.9767C17.0608 50.3186 17.126 50.6557 17.2267 50.9838C17.5472 52.6395 19.2612 61.4944 2.1985 65.4694C4.00986 64.0011 5.3955 62.0772 6.21174 59.8971C7.02799 57.7169 7.24515 55.3594 6.8411 53.0689L0.751457 21.6093C0.171051 19.1346 0.439744 16.5366 1.51447 14.2301C2.58921 11.9235 4.40839 10.0429 6.68056 8.88681L7.3305 8.761L7.30006 8.99117Z" fill="#C61F2A"/>
</svg>
