<svg width="54" height="95" viewBox="0 0 54 95" fill="none" xmlns="http://www.w3.org/2000/svg">
<path d="M53.3749 0.685971C44.9034 4.63884 36.2269 8.13815 27.3823 11.1693C22.1295 12.9712 16.9815 15.0644 11.9627 17.4398C7.89604 19.8126 4.63812 23.35 2.61288 27.5915C0.587653 31.833 -0.111001 36.5833 0.607341 41.2229C0.607341 41.2229 0.704694 41.7258 0.760433 42.0138C1.03913 43.4535 1.26206 44.6052 1.42927 45.4691C3.51948 56.2673 8.90219 81.3653 8.75896 83.3348C8.75896 83.3348 9.7066 88.2303 2.9014 94.1034C2.9014 94.1034 20.5836 90.2326 18.2565 78.2106C18.2565 78.2106 13.4278 50.1681 12.0775 40.8697C11.7793 38.8096 12.0736 36.7063 12.9264 34.805C14.2856 31.8176 16.2551 29.1448 18.7093 26.9592C21.1635 24.7736 24.0481 23.1229 27.1779 22.1126L30.7633 20.8953L44.8587 16.2997C48.0336 15.308 50.6985 13.1248 52.2881 10.2101C53.8777 7.29549 54.2674 3.87931 53.3749 0.685971Z" fill="#C61F2A"/>
</svg>
