<svg width="25" height="23" viewBox="0 0 25 23" fill="none" xmlns="http://www.w3.org/2000/svg">
<path d="M4.12516 0.19043C3.11955 0.19043 2.15512 0.59806 1.44405 1.32365C0.732974 2.04923 0.333496 3.03334 0.333496 4.05948V15.369C0.333496 16.3951 0.732974 17.3792 1.44405 18.1048C2.15512 18.8304 3.11955 19.238 4.12516 19.238H12.1378C12.0465 18.8481 12.0003 18.4485 12.0002 18.0476V17.4523C12.0002 16.663 12.3075 15.906 12.8544 15.3478C13.4014 14.7897 14.1433 14.4761 14.9168 14.4761H16.0252C15.5014 13.9807 15.1045 13.362 14.869 12.6741C14.6336 11.9861 14.5667 11.2498 14.6743 10.5294C14.782 9.80899 15.0608 9.12642 15.4864 8.54129C15.9121 7.95616 16.4716 7.48624 17.1162 7.17258C17.7608 6.85891 18.4709 6.71103 19.1844 6.74184C19.8979 6.77266 20.5932 6.98124 21.2095 7.34936C21.8258 7.71749 22.3444 8.23397 22.7201 8.85371C23.0958 9.47345 23.3171 10.1776 23.3647 10.9047H23.6668V4.05948C23.6668 3.55139 23.5688 3.04827 23.3782 2.57886C23.1877 2.10944 22.9084 1.68292 22.5563 1.32365C22.2042 0.964373 21.7862 0.679381 21.3262 0.484944C20.8661 0.290506 20.3731 0.19043 19.8752 0.19043H4.12516ZM23.0835 15.6666C23.5476 15.6666 23.9927 15.8548 24.3209 16.1896C24.6491 16.5245 24.8335 16.9787 24.8335 17.4523V18.0476C24.8335 20.394 22.6635 22.8095 19.0002 22.8095C15.3368 22.8095 13.1668 20.394 13.1668 18.0476V17.4523C13.1668 16.9787 13.3512 16.5245 13.6794 16.1896C14.0076 15.8548 14.4527 15.6666 14.9168 15.6666H23.0835ZM19.0002 7.92852C19.8511 7.92852 20.6671 8.27344 21.2688 8.8874C21.8705 9.50136 22.2085 10.3341 22.2085 11.2023C22.2085 12.0706 21.8705 12.9033 21.2688 13.5173C20.6671 14.1312 19.8511 14.4761 19.0002 14.4761C18.1493 14.4761 17.3332 14.1312 16.7315 13.5173C16.1298 12.9033 15.7918 12.0706 15.7918 11.2023C15.7918 10.3341 16.1298 9.50136 16.7315 8.8874C17.3332 8.27344 18.1493 7.92852 19.0002 7.92852Z" fill="#6B142B"/>
</svg>
