<svg width="23" height="23" viewBox="0 0 23 23" fill="none" xmlns="http://www.w3.org/2000/svg">
<path d="M20.9966 8.41791L20.7308 5.87874C20.3458 3.11041 19.0899 1.98291 16.4041 1.98291H14.2408H12.8841H10.0974H8.74076H6.54076C3.84576 1.98291 2.59909 3.11041 2.20492 5.90624L1.95742 8.42708C1.86576 9.40791 2.13159 10.3612 2.70909 11.1037C3.40576 12.0112 4.47826 12.5246 5.66992 12.5246C6.82492 12.5246 7.93409 11.9471 8.63076 11.0212C9.25409 11.9471 10.3174 12.5246 11.4999 12.5246C12.6824 12.5246 13.7183 11.9746 14.3508 11.0579C15.0566 11.9654 16.1474 12.5246 17.2841 12.5246C18.5033 12.5246 19.6033 11.9837 20.2908 11.0304C20.8408 10.2971 21.0883 9.37124 20.9966 8.41791Z" fill="#C61F2A"/>
<path d="M10.9043 16.1087C9.74011 16.2279 8.86011 17.2179 8.86011 18.3912V20.9029C8.86011 21.1504 9.06177 21.3521 9.30927 21.3521H13.6818C13.9293 21.3521 14.1309 21.1504 14.1309 20.9029V18.7121C14.1401 16.7962 13.0126 15.8887 10.9043 16.1087Z" fill="#C61F2A"/>
<path d="M20.0892 14.0372V16.7689C20.0892 19.2989 18.0359 21.3522 15.5059 21.3522C15.2584 21.3522 15.0567 21.1506 15.0567 20.9031V18.7122C15.0567 17.5389 14.6992 16.6222 14.0026 15.9989C13.3884 15.4397 12.5542 15.1647 11.5184 15.1647C11.2892 15.1647 11.0601 15.1739 10.8126 15.2014C9.18089 15.3664 7.94339 16.7414 7.94339 18.3914V20.9031C7.94339 21.1506 7.74172 21.3522 7.49422 21.3522C4.96422 21.3522 2.91089 19.2989 2.91089 16.7689V14.0556C2.91089 13.4139 3.54339 12.9831 4.13922 13.1939C4.38672 13.2764 4.63422 13.3406 4.89089 13.3772C5.00089 13.3956 5.12006 13.4139 5.23006 13.4139C5.37672 13.4322 5.52339 13.4414 5.67006 13.4414C6.73339 13.4414 7.77839 13.0472 8.60339 12.3689C9.39172 13.0472 10.4184 13.4414 11.5001 13.4414C12.5909 13.4414 13.5992 13.0656 14.3876 12.3872C15.2126 13.0564 16.2392 13.4414 17.2842 13.4414C17.4492 13.4414 17.6142 13.4322 17.7701 13.4139C17.8801 13.4047 17.9809 13.3956 18.0817 13.3772C18.3659 13.3406 18.6226 13.2581 18.8792 13.1756C19.4751 12.9739 20.0892 13.4139 20.0892 14.0372Z" fill="#C61F2A"/>
</svg>
