<svg width="22" height="22" viewBox="0 0 22 22" fill="none" xmlns="http://www.w3.org/2000/svg">
<path d="M7.59912 5.76575C7.21412 5.76575 6.91162 5.45409 6.91162 5.07825V2.52075C6.91162 2.14492 7.21412 1.83325 7.59912 1.83325C7.98412 1.83325 8.28662 2.14492 8.28662 2.52075V5.06909C8.28662 5.45409 7.98412 5.76575 7.59912 5.76575Z" fill="#C61F2A"/>
<path d="M14.4009 5.76575C14.0159 5.76575 13.7134 5.45409 13.7134 5.07825V2.52075C13.7134 2.13575 14.025 1.83325 14.4009 1.83325C14.7859 1.83325 15.0884 2.14492 15.0884 2.52075V5.06909C15.0884 5.45409 14.7859 5.76575 14.4009 5.76575Z" fill="#C61F2A"/>
<path d="M19.7083 14.5017C19.7083 14.6392 19.6625 14.7767 19.5433 14.8959C18.2142 16.2342 15.8492 18.6175 14.4925 19.9834C14.3733 20.1117 14.2175 20.1667 14.0617 20.1667C13.7592 20.1667 13.4658 19.9284 13.4658 19.58V16.3717C13.4658 15.0334 14.6025 13.9242 15.9958 13.9242C16.8667 13.915 18.0767 13.915 19.1125 13.915C19.47 13.915 19.7083 14.1992 19.7083 14.5017Z" fill="#C61F2A"/>
<path d="M19.7083 14.5017C19.7083 14.6392 19.6625 14.7767 19.5433 14.8959C18.2142 16.2342 15.8492 18.6175 14.4925 19.9834C14.3733 20.1117 14.2175 20.1667 14.0617 20.1667C13.7592 20.1667 13.4658 19.9284 13.4658 19.58V16.3717C13.4658 15.0334 14.6025 13.9242 15.9958 13.9242C16.8667 13.915 18.0767 13.915 19.1125 13.915C19.47 13.915 19.7083 14.1992 19.7083 14.5017Z" fill="#C61F2A"/>
<path d="M17.9392 4.12492C17.3342 3.67575 16.4634 4.10659 16.4634 4.86742V4.95909C16.4634 6.03158 15.6934 7.02159 14.6209 7.13159C13.3834 7.25992 12.3384 6.28825 12.3384 5.07825V4.12492C12.3384 3.62075 11.9259 3.20825 11.4217 3.20825H10.5784C10.0742 3.20825 9.66175 3.62075 9.66175 4.12492V4.95909C9.66175 5.76575 9.23092 6.51742 8.56175 6.88409C8.52508 6.91159 8.48842 6.92992 8.45175 6.94825C8.44258 6.94825 8.44258 6.95742 8.43342 6.95742C8.36925 6.98492 8.30508 7.01242 8.23175 7.03992C8.21341 7.04908 8.19508 7.04908 8.17675 7.05825C8.06675 7.09492 7.94758 7.12242 7.81925 7.13159H7.81008C7.67258 7.14992 7.52592 7.14992 7.38842 7.13159H7.37925C7.25092 7.12242 7.13175 7.09492 7.02175 7.05825C6.93008 7.03075 6.83842 6.99409 6.74675 6.94825C6.03175 6.62742 5.53675 5.91242 5.53675 5.07825V4.86742C5.53675 4.16159 4.78508 3.73992 4.18925 4.04242C4.18008 4.05159 4.17091 4.05159 4.16175 4.06075H4.15258C4.08842 4.10659 4.03341 4.15242 3.96925 4.19825C3.86841 4.28075 3.76758 4.36325 3.67592 4.45492C3.61175 4.51909 3.54758 4.58325 3.49258 4.64742C3.41925 4.72075 3.35508 4.79409 3.29091 4.87659C3.24508 4.93159 3.19008 4.98659 3.15341 5.05075C3.10758 5.10575 3.07091 5.16992 3.03425 5.22492C3.02508 5.23409 3.01591 5.24325 3.00675 5.26158C2.92425 5.38075 2.85091 5.51825 2.78675 5.64659C2.76841 5.66492 2.75925 5.67409 2.75925 5.69242C2.70425 5.80242 2.64925 5.91242 2.61258 6.03159C2.58508 6.07742 2.57591 6.11408 2.55758 6.15992C2.53925 6.19658 2.53008 6.24242 2.51175 6.27909C2.48425 6.37075 2.45675 6.47159 2.42925 6.57242C2.39258 6.70075 2.36508 6.83825 2.34675 6.97575C2.32841 7.07659 2.31925 7.17742 2.31008 7.28742C2.30091 7.41575 2.29175 7.54408 2.29175 7.67242V15.7024C2.29175 18.1683 4.29008 20.1666 6.75591 20.1666H11.1742C11.6784 20.1666 12.0909 19.7541 12.0909 19.2499V16.3716C12.0909 14.2633 13.8417 12.5491 15.9959 12.5491C16.4817 12.5399 17.6642 12.5399 18.7917 12.5399C19.2959 12.5399 19.7084 12.1274 19.7084 11.6233V7.67242C19.7084 6.21492 19.0117 4.94075 17.9392 4.12492ZM10.2026 14.5841C10.1201 14.8591 9.86342 15.0516 9.56092 15.0516H6.22425C6.17842 15.0516 6.14175 15.0516 6.10508 15.0333C5.77508 14.9874 5.53675 14.7033 5.53675 14.3641C5.53675 13.9791 5.83925 13.6674 6.22425 13.6674H9.56092C9.93675 13.6674 10.2484 13.9791 10.2484 14.3641C10.2484 14.4374 10.2392 14.5199 10.2026 14.5841ZM12.7509 11.1833C12.6684 11.4583 12.4117 11.6508 12.1092 11.6508H6.22425C6.17842 11.6508 6.14175 11.6508 6.10508 11.6324C5.77508 11.5866 5.53675 11.3024 5.53675 10.9633C5.53675 10.5783 5.83925 10.2666 6.22425 10.2666H12.1092C12.4942 10.2666 12.7967 10.5783 12.7967 10.9633C12.7967 11.0366 12.7876 11.1191 12.7509 11.1833Z" fill="#C61F2A"/>
</svg>
