<svg width="12" height="12" viewBox="0 0 12 12" fill="none" xmlns="http://www.w3.org/2000/svg">
<g clip-path="url(#clip0_543_2655)">
<path d="M4.0035 1.1925C3.2892 1.38936 2.57974 1.60342 1.87575 1.8345C1.81147 1.85532 1.75433 1.89378 1.71084 1.9455C1.66734 1.99721 1.63925 2.0601 1.62975 2.127C1.21425 5.24475 2.17425 7.5195 3.3195 9.018C3.80439 9.65879 4.38256 10.2233 5.03475 10.6927C5.29425 10.8757 5.52375 11.0077 5.7045 11.0925C5.7945 11.1352 5.868 11.1637 5.92425 11.181C5.94886 11.1896 5.97422 11.1959 6 11.1997C6.02548 11.1956 6.05057 11.1893 6.075 11.181C6.132 11.1637 6.2055 11.1352 6.2955 11.0925C6.4755 11.0077 6.70575 10.875 6.96525 10.6927C7.61744 10.2233 8.19561 9.65879 8.68051 9.018C9.82576 7.52025 10.7858 5.24475 10.3703 2.127C10.3608 2.06007 10.3328 1.99714 10.2893 1.94541C10.2458 1.89368 10.1886 1.85525 10.1243 1.8345C9.636 1.67475 8.81175 1.4145 7.9965 1.19325C7.164 0.9675 6.39825 0.80025 6 0.80025C5.6025 0.80025 4.836 0.9675 4.0035 1.19325V1.1925ZM3.804 0.42C4.61775 0.19875 5.4825 0 6 0C6.5175 0 7.38226 0.19875 8.19601 0.42C9.02851 0.645 9.86775 0.91125 10.3613 1.0725C10.5676 1.14064 10.7505 1.2656 10.889 1.43303C11.0275 1.60045 11.116 1.80355 11.1443 2.019C11.5913 5.37675 10.554 7.86525 9.29551 9.5115C8.76184 10.2157 8.1255 10.8359 7.40775 11.3513C7.15957 11.5296 6.89662 11.6864 6.62175 11.82C6.41175 11.919 6.186 12 6 12C5.814 12 5.589 11.919 5.37825 11.82C5.10339 11.6864 4.84043 11.5296 4.59225 11.3513C3.87453 10.8359 3.23819 10.2157 2.7045 9.5115C1.446 7.86525 0.408754 5.37675 0.855754 2.019C0.884019 1.80355 0.972486 1.60045 1.11099 1.43303C1.2495 1.2656 1.43242 1.14064 1.63875 1.0725C2.35515 0.837607 3.07711 0.620044 3.804 0.42V0.42Z" fill="white"/>
<path d="M7.125 4.87502C7.12512 5.10777 7.05305 5.33482 6.91873 5.52489C6.7844 5.71496 6.59443 5.85869 6.375 5.93627L6.66375 7.42877C6.67426 7.48305 6.67263 7.53899 6.65898 7.59257C6.64533 7.64615 6.62001 7.69605 6.58482 7.7387C6.54962 7.78135 6.50544 7.81568 6.45542 7.83925C6.4054 7.86282 6.35079 7.87503 6.2955 7.87502H5.7045C5.64927 7.87492 5.59475 7.86263 5.54482 7.83901C5.4949 7.8154 5.4508 7.78104 5.4157 7.73841C5.38059 7.69578 5.35533 7.64592 5.34172 7.59239C5.32812 7.53886 5.32651 7.48299 5.337 7.42877L5.625 5.93627C5.43057 5.86753 5.25878 5.74667 5.12839 5.58689C4.99801 5.42712 4.91405 5.23458 4.88569 5.03032C4.85733 4.82605 4.88566 4.61792 4.96759 4.42867C5.04952 4.23942 5.18189 4.07633 5.35024 3.95722C5.51859 3.83811 5.71644 3.76757 5.92217 3.75331C6.1279 3.73904 6.33359 3.7816 6.51677 3.87632C6.69995 3.97105 6.85357 4.11431 6.96083 4.29044C7.0681 4.46657 7.12489 4.6688 7.125 4.87502V4.87502Z" fill="white"/>
</g>
<defs>
<clipPath id="clip0_543_2655">
<rect width="12" height="12" fill="white"/>
</clipPath>
</defs>
</svg>
