<svg width="60" height="60" viewBox="0 0 60 60" fill="none" xmlns="http://www.w3.org/2000/svg">
<circle cx="30" cy="30" r="30" fill="#C61F2A"/>
<path fill-rule="evenodd" clip-rule="evenodd" d="M29 20H31C32.5977 20 33.9037 21.2489 33.9949 22.8237L34 23V24H37C38.6569 24 40 25.3431 40 27V37C40 38.6569 38.6569 40 37 40H23C21.3431 40 20 38.6569 20 37V27C20 25.3431 21.3431 24 23 24H26V23C26 21.4023 27.2489 20.0963 28.8237 20.0051L29 20H31H29ZM38 34H22V37C22 37.5523 22.4477 38 23 38H37C37.5523 38 38 37.5523 38 37V34ZM37 26H23C22.4477 26 22 26.4477 22 27V32H38V27C38 26.4477 37.5523 26 37 26ZM31 22H29C28.4872 22 28.0645 22.386 28.0067 22.8834L28 23V24H32V23C32 22.4872 31.614 22.0645 31.1166 22.0067L31 22Z" fill="white"/>
</svg>
