<svg width="18" height="10" viewBox="0 0 18 10" fill="none" xmlns="http://www.w3.org/2000/svg">
<path d="M4.71699 6.04996C5.29689 6.04996 5.76699 5.57985 5.76699 4.99995C5.76699 4.42005 5.29689 3.94995 4.71699 3.94995C4.13709 3.94995 3.66699 4.42005 3.66699 4.99995C3.66699 5.57985 4.13709 6.04996 4.71699 6.04996Z" fill="#343439"/>
<path d="M9.00019 6.04996C9.58009 6.04996 10.0502 5.57985 10.0502 4.99995C10.0502 4.42005 9.58009 3.94995 9.00019 3.94995C8.42029 3.94995 7.9502 4.42005 7.9502 4.99995C7.9502 5.57985 8.42029 6.04996 9.00019 6.04996Z" fill="#343439"/>
<path d="M13.2829 6.04996C13.8628 6.04996 14.3329 5.57985 14.3329 4.99995C14.3329 4.42005 13.8628 3.94995 13.2829 3.94995C12.703 3.94995 12.2329 4.42005 12.2329 4.99995C12.2329 5.57985 12.703 6.04996 13.2829 6.04996Z" fill="#343439"/>
<path d="M14.9915 8.42499H3.00817C2.05817 8.42499 1.2915 7.65832 1.2915 6.70832V3.28332C1.2915 2.33332 2.05817 1.56665 3.00817 1.56665H14.9998C15.9498 1.56665 16.7165 2.33332 16.7165 3.28332V6.70832C16.7082 7.65832 15.9415 8.42499 14.9915 8.42499Z" stroke="#343439" stroke-width="1.5" stroke-linecap="round" stroke-linejoin="round"/>
</svg>
