<svg width="21" height="20" viewBox="0 0 21 20" fill="none" xmlns="http://www.w3.org/2000/svg">
<path d="M12.5674 5.41235H6.5003C5.78227 5.41235 5.2002 5.92583 5.2002 6.55923V14.9696C5.2002 15.603 5.78227 16.1165 6.5003 16.1165H12.5674C13.2855 16.1165 13.8675 15.603 13.8675 14.9696V6.55923C13.8675 5.92583 13.2855 5.41235 12.5674 5.41235Z" fill="#576275"/>
<path d="M7.42871 4.26001C7.54822 4.22805 7.67503 4.21087 7.80637 4.21087H13.8735C14.5915 4.21087 15.1736 4.72434 15.1736 5.35775V13.7682C15.1736 13.884 15.1541 13.9959 15.1179 14.1013C15.6518 13.9586 16.0403 13.5211 16.0403 13.0036V4.59316C16.0403 3.95976 15.4582 3.44629 14.7402 3.44629H8.67311C8.08643 3.44629 7.59051 3.78909 7.42871 4.26001Z" fill="#576275"/>
</svg>
