<svg width="19" height="16" viewBox="0 0 19 16" fill="none" xmlns="http://www.w3.org/2000/svg">
<path d="M17.7638 11.2542H16.453C14.7113 11.2542 13.2447 9.94337 13.098 8.27504C13.0155 7.32171 13.3638 6.36837 14.0605 5.69004C14.6472 5.08504 15.463 4.74587 16.343 4.74587H17.7638C18.0297 4.74587 18.2497 4.52587 18.2222 4.26004C18.0205 2.03254 16.5447 0.510874 14.3538 0.254207C14.1338 0.217541 13.9047 0.208374 13.6663 0.208374H5.41634C5.15967 0.208374 4.91217 0.226707 4.67384 0.263374C2.33634 0.556707 0.833008 2.29837 0.833008 4.79171V11.2084C0.833008 13.7384 2.88634 15.7917 5.41634 15.7917H13.6663C16.233 15.7917 18.0022 14.1875 18.2222 11.74C18.2497 11.4742 18.0297 11.2542 17.7638 11.2542ZM10.9163 5.93754H5.41634C5.04051 5.93754 4.72884 5.62587 4.72884 5.25004C4.72884 4.87421 5.04051 4.56254 5.41634 4.56254H10.9163C11.2922 4.56254 11.6038 4.87421 11.6038 5.25004C11.6038 5.62587 11.2922 5.93754 10.9163 5.93754Z" fill="white"/>
</svg>
