<svg width="15" height="15" viewBox="0 0 15 15" fill="none" xmlns="http://www.w3.org/2000/svg">
<path d="M14.0742 10.8355V12.7461C14.0749 12.9235 14.0386 13.0991 13.9675 13.2616C13.8964 13.4241 13.7922 13.57 13.6615 13.6899C13.5308 13.8098 13.3765 13.9011 13.2085 13.9579C13.0405 14.0148 12.8624 14.0359 12.6858 14.0199C10.726 13.807 8.84351 13.1373 7.18954 12.0647C5.65073 11.0869 4.3461 9.78223 3.36828 8.24343C2.29194 6.58194 1.62212 4.69029 1.41307 2.7217C1.39715 2.54559 1.41808 2.36809 1.47453 2.2005C1.53097 2.03292 1.62169 1.87892 1.74091 1.74832C1.86013 1.61771 2.00524 1.51336 2.167 1.44192C2.32875 1.37047 2.50362 1.33348 2.68045 1.33331H4.59108C4.90016 1.33027 5.1998 1.43972 5.43415 1.64126C5.66851 1.84281 5.82158 2.12269 5.86483 2.42874C5.94548 3.04019 6.09503 3.64054 6.31065 4.21836C6.39634 4.44632 6.41488 4.69406 6.36409 4.93223C6.31329 5.1704 6.19529 5.38901 6.02405 5.56217L5.21522 6.37101C6.12185 7.96546 7.44203 9.28564 9.03648 10.1923L9.84531 9.38343C10.0185 9.2122 10.2371 9.0942 10.4753 9.0434C10.7134 8.99261 10.9612 9.01115 11.1891 9.09684C11.7669 9.31245 12.3673 9.46201 12.9787 9.54265C13.2881 9.5863 13.5707 9.74213 13.7726 9.9805C13.9746 10.2189 14.0819 10.5232 14.0742 10.8355Z" stroke="#C61F2A" stroke-opacity="0.4" stroke-linecap="round" stroke-linejoin="round"/>
</svg>
