<svg width="21" height="20" viewBox="0 0 21 20" fill="none" xmlns="http://www.w3.org/2000/svg">
<path d="M20.0299 8.86988L18.5099 7.34988C18.2499 7.08988 18.0399 6.57988 18.0399 6.21988V4.05988C18.0399 3.17988 17.3199 2.45988 16.4399 2.45988H14.2899C13.9299 2.45988 13.4199 2.24988 13.1599 1.98988L11.6399 0.469883C11.0199 -0.150117 9.99988 -0.150117 9.37988 0.469883L7.83988 1.98988C7.58988 2.24988 7.07988 2.45988 6.70988 2.45988H4.55988C3.67988 2.45988 2.95988 3.17988 2.95988 4.05988V6.20988C2.95988 6.56988 2.74988 7.07988 2.48988 7.33988L0.969883 8.85988C0.349883 9.47988 0.349883 10.4999 0.969883 11.1199L2.48988 12.6399C2.74988 12.8999 2.95988 13.4099 2.95988 13.7699V15.9199C2.95988 16.7999 3.67988 17.5199 4.55988 17.5199H6.70988C7.06988 17.5199 7.57988 17.7299 7.83988 17.9899L9.35988 19.5099C9.97988 20.1299 10.9999 20.1299 11.6199 19.5099L13.1399 17.9899C13.3999 17.7299 13.9099 17.5199 14.2699 17.5199H16.4199C17.2999 17.5199 18.0199 16.7999 18.0199 15.9199V13.7699C18.0199 13.4099 18.2299 12.8999 18.4899 12.6399L20.0099 11.1199C20.6599 10.5099 20.6599 9.48988 20.0299 8.86988ZM6.49988 6.99988C6.49988 6.44988 6.94988 5.99988 7.49988 5.99988C8.04988 5.99988 8.49988 6.44988 8.49988 6.99988C8.49988 7.54988 8.05988 7.99988 7.49988 7.99988C6.94988 7.99988 6.49988 7.54988 6.49988 6.99988ZM8.02988 13.5299C7.87988 13.6799 7.68988 13.7499 7.49988 13.7499C7.30988 13.7499 7.11988 13.6799 6.96988 13.5299C6.67988 13.2399 6.67988 12.7599 6.96988 12.4699L12.9699 6.46988C13.2599 6.17988 13.7399 6.17988 14.0299 6.46988C14.3199 6.75988 14.3199 7.23988 14.0299 7.52988L8.02988 13.5299ZM13.4999 13.9999C12.9399 13.9999 12.4899 13.5499 12.4899 12.9999C12.4899 12.4499 12.9399 11.9999 13.4899 11.9999C14.0399 11.9999 14.4899 12.4499 14.4899 12.9999C14.4899 13.5499 14.0499 13.9999 13.4999 13.9999Z" fill="#576275"/>
</svg>
