<svg width="19" height="19" viewBox="0 0 19 19" fill="none" xmlns="http://www.w3.org/2000/svg">
<path d="M12.3335 1.29175H14.1418C15.5668 1.29175 16.7085 2.44174 16.7085 3.8584V5.58341" stroke="#343439" stroke-width="1.5" stroke-linecap="round" stroke-linejoin="round"/>
<path d="M1.2915 5.58341V3.8584C1.2915 2.4334 2.44151 1.29175 3.85817 1.29175H5.62484" stroke="#343439" stroke-width="1.5" stroke-linecap="round" stroke-linejoin="round"/>
<path d="M12.3335 16.7083H14.1418C15.5668 16.7083 16.7085 15.5583 16.7085 14.1416V12.4166" stroke="#343439" stroke-width="1.5" stroke-linecap="round" stroke-linejoin="round"/>
<path d="M1.2915 12.4166V14.1416C1.2915 15.5666 2.44151 16.7083 3.85817 16.7083H5.62484" stroke="#343439" stroke-width="1.5" stroke-linecap="round" stroke-linejoin="round"/>
<path d="M13.8917 12.8167C12.4834 12.1167 10.8001 11.7084 9.00007 11.7084C7.14173 11.7084 5.41673 12.1417 3.9834 12.8834" stroke="#343439" stroke-width="1.5" stroke-linecap="round" stroke-linejoin="round"/>
<path d="M8.9998 8.76646C10.3529 8.76646 11.4498 7.66956 11.4498 6.31646C11.4498 4.96336 10.3529 3.86646 8.9998 3.86646C7.64671 3.86646 6.5498 4.96336 6.5498 6.31646C6.5498 7.66956 7.64671 8.76646 8.9998 8.76646Z" stroke="#343439" stroke-width="1.5" stroke-linecap="round" stroke-linejoin="round"/>
</svg>
