<svg width="23" height="22" viewBox="0 0 23 22" fill="none" xmlns="http://www.w3.org/2000/svg">
<g opacity="0.5">
<path d="M14.4518 6.00415H5.7985C5.54183 6.00415 5.3035 6.01332 5.0835 6.02248C2.911 6.15082 2.3335 6.94832 2.3335 9.42332V9.95498C2.3335 10.4591 2.746 10.8716 3.25016 10.8716H17.0002C17.5043 10.8716 17.9168 10.4591 17.9168 9.95498V9.42332C17.9168 6.69165 17.2202 6.00415 14.4518 6.00415Z" fill="#576275"/>
<path d="M3.25016 12.2466C2.746 12.2466 2.3335 12.6591 2.3335 13.1632V15.8307C2.3335 18.5624 3.03016 19.2499 5.7985 19.2499H14.4518C17.1743 19.2499 17.8893 18.5899 17.9168 15.9774V13.1632C17.9168 12.6591 17.5043 12.2466 17.0002 12.2466H3.25016ZM6.88016 17.0132H5.31266C4.93683 17.0132 4.62516 16.7016 4.62516 16.3257C4.62516 15.9499 4.93683 15.6382 5.31266 15.6382H6.88933C7.26516 15.6382 7.57683 15.9499 7.57683 16.3257C7.57683 16.7016 7.26516 17.0132 6.88016 17.0132ZM12.0043 17.0132H8.851C8.47516 17.0132 8.1635 16.7016 8.1635 16.3257C8.1635 15.9499 8.47516 15.6382 8.851 15.6382H12.0043C12.3802 15.6382 12.6918 15.9499 12.6918 16.3257C12.6918 16.7016 12.3893 17.0132 12.0043 17.0132Z" fill="#576275"/>
<path d="M20.6665 12.2192V7.41588C20.6665 4.54672 19.0256 3.30005 16.5506 3.30005H8.36481C7.66815 3.30005 7.04481 3.40088 6.49481 3.61172C6.06398 3.76755 5.67898 3.99672 5.36731 4.29922C5.20231 4.45505 5.33065 4.71172 5.56898 4.71172H15.5331C17.5956 4.71172 19.264 6.38005 19.264 8.44255V15.015C19.264 15.2442 19.5115 15.3725 19.6765 15.2075C20.309 14.5384 20.6665 13.5575 20.6665 12.2192Z" fill="#576275"/>
</g>
</svg>
