<svg width="96" height="118" viewBox="0 0 96 118" fill="none" xmlns="http://www.w3.org/2000/svg">
<g clip-path="url(#clip0_1143_1885)">
<path d="M75.83 0.000209144C76.3254 1.87864 76.4416 3.83718 76.1715 5.76161C75.9014 7.68603 75.2504 9.53794 74.2567 11.2103C73.2629 12.8828 71.9459 14.3417 70.3824 15.5031C68.8189 16.6645 67.0399 17.5044 65.1487 17.9749C65.1487 17.9749 45.3481 23.6756 33.2836 28.6996C21.2192 33.7236 16.7667 39.3654 13.6316 54.9093C11.2838 48.5197 11.2039 41.5175 13.4054 35.071C15.6069 28.6245 19.9568 23.1235 25.73 19.4823C31.7847 16.5964 37.9949 14.0476 44.3322 11.8482C55.0834 8.60214 65.6062 4.64391 75.83 0.000209144Z" fill="#C61F2A"/>
<path d="M70.3749 23.6858C61.9034 27.6387 53.2269 31.138 44.3823 34.1691C39.1295 35.9711 33.9815 38.0642 28.9627 40.4396C24.896 42.8125 21.6381 46.3499 19.6129 50.5914C17.5877 54.8329 16.889 59.5831 17.6073 64.2228C17.6073 64.2228 17.7047 64.7257 17.7604 65.0137C18.0391 66.4534 18.2621 67.6051 18.4293 68.4689C20.5195 79.2671 25.9022 104.365 25.759 106.335C25.759 106.335 26.7066 111.23 19.9014 117.103C19.9014 117.103 37.5836 113.233 35.2565 101.211C35.2565 101.211 30.4278 73.168 29.0775 63.8696C28.7793 61.8094 29.0736 59.7062 29.9264 57.8049C31.2856 54.8174 33.2551 52.1446 35.7093 49.959C38.1635 47.7735 41.0481 46.1228 44.1779 45.1125L47.7633 43.8951L61.8587 39.2995C65.0336 38.3079 67.6985 36.1247 69.2881 33.21C70.8777 30.2954 71.2674 26.8792 70.3749 23.6858Z" fill="#C61F2A"/>
<path d="M42.3001 53.9913C50.1957 51.9118 57.9161 49.2171 65.391 45.935C65.831 47.7889 65.8889 49.7132 65.5612 51.591C65.2334 53.4688 64.5267 55.2613 63.4841 56.8596C62.4415 58.458 61.0848 59.8292 59.4957 60.89C57.9067 61.9508 56.1183 62.6788 54.2395 63.0307L49.6899 63.9113L49.1843 64.0092C48.8218 64.1254 48.486 64.3128 48.1965 64.5596C47.907 64.8064 47.6699 65.1087 47.4984 65.4478C47.3269 65.7868 47.2245 66.1558 47.1977 66.5344C47.1709 66.913 47.2202 67.2939 47.3423 67.6533C47.9136 70.6048 51.3376 91.0035 52.0318 94.9768C52.0608 95.3188 52.126 95.6558 52.2267 95.9839C52.5472 97.6396 54.2612 106.494 37.1985 110.47C39.0099 109.001 40.3955 107.077 41.2117 104.897C42.028 102.717 42.2451 100.36 41.8411 98.069L35.7515 66.6094C35.1711 64.1347 35.4397 61.5368 36.5145 59.2302C37.5892 56.9237 39.4084 55.043 41.6806 53.8869L42.3305 53.7611L42.3001 53.9913Z" fill="#C61F2A"/>
</g>
<defs>
<clipPath id="clip0_1143_1885">
<rect width="77.2376" height="104.414" fill="white" transform="translate(0 14.6785) rotate(-10.9553)"/>
</clipPath>
</defs>
</svg>
