<svg width="8" height="11" viewBox="0 0 8 11" fill="none" xmlns="http://www.w3.org/2000/svg">
<path d="M4.0001 10.3529C3.86858 10.3529 3.75021 10.3253 3.61868 10.2701C3.25041 10.1045 3.01367 9.73177 3.01367 9.31765V1.03529C3.01367 0.469333 3.46085 0 4.0001 0C4.53935 0 4.98653 0.469333 4.98653 1.03529V6.81914L5.93351 5.82525C6.31493 5.42494 6.94624 5.42494 7.32766 5.82525C7.70908 6.22557 7.70908 6.88816 7.32766 7.28847L4.69718 10.0493C4.51305 10.2425 4.25 10.3529 4.0001 10.3529Z" fill="#C61F2A"/>
<path d="M3.99937 10.3526C3.74947 10.3526 3.49957 10.256 3.30229 10.0489L0.671807 7.28811C0.290387 6.8878 0.290387 6.22521 0.671807 5.82489C1.05323 5.42458 1.68454 5.42458 2.06596 5.82489L4.69645 8.58568C5.07787 8.98599 5.07787 9.64858 4.69645 10.0489C4.49916 10.256 4.24926 10.3526 3.99937 10.3526Z" fill="#C61F2A"/>
</svg>
