<svg width="16" height="18" viewBox="0 0 16 18" fill="none" xmlns="http://www.w3.org/2000/svg">
<path d="M5.06679 1.78875C4.01719 2.08404 2.97473 2.40514 1.9403 2.75175C1.84584 2.78298 1.76188 2.84067 1.69797 2.91824C1.63407 2.99581 1.59278 3.09015 1.57883 3.1905C0.968302 7.86713 2.37891 11.2793 4.06173 13.527C4.77421 14.4882 5.62377 15.335 6.58209 16.0391C6.9634 16.3136 7.30062 16.5116 7.56621 16.6388C7.69846 16.7029 7.80646 16.7456 7.88911 16.7715C7.92526 16.7844 7.96253 16.7939 8.00042 16.7996C8.03786 16.7934 8.07472 16.784 8.11062 16.7715C8.19438 16.7456 8.30238 16.7029 8.43462 16.6388C8.69911 16.5116 9.03744 16.3125 9.41874 16.0391C10.3771 15.335 11.2266 14.4882 11.9391 13.527C13.6219 11.2804 15.0325 7.86713 14.422 3.1905C14.4082 3.0901 14.3669 2.99571 14.303 2.91811C14.2391 2.84052 14.1551 2.78287 14.0605 2.75175C13.3431 2.51213 12.132 2.12175 10.934 1.78987C9.71078 1.45125 8.5856 1.20038 8.00042 1.20038C7.41634 1.20038 6.29005 1.45125 5.06679 1.78987V1.78875ZM4.77365 0.63C5.96936 0.298125 7.24001 0 8.00042 0C8.76083 0 10.0315 0.298125 11.2272 0.63C12.4505 0.9675 13.6836 1.36687 14.4088 1.60875C14.712 1.71096 14.9808 1.8984 15.1843 2.14954C15.3878 2.40068 15.5178 2.70533 15.5593 3.0285C16.2161 8.06513 14.692 11.7979 12.8428 14.2673C12.0586 15.3236 11.1236 16.2538 10.0689 17.0269C9.70427 17.2944 9.31789 17.5296 8.91401 17.73C8.60544 17.8785 8.27372 18 8.00042 18C7.72711 18 7.3965 17.8785 7.08683 17.73C6.68294 17.5296 6.29656 17.2944 5.93189 17.0269C4.87727 16.2538 3.94225 15.3236 3.15805 14.2673C1.30883 11.7979 -0.215289 8.06513 0.441526 3.0285C0.483059 2.70533 0.613051 2.40068 0.816569 2.14954C1.02009 1.8984 1.28888 1.71096 1.59206 1.60875C2.64472 1.25641 3.70555 0.930065 4.77365 0.63Z" fill="white"/>
<path d="M9.6528 7.31259C9.65298 7.66171 9.54708 8.00229 9.34971 8.28739C9.15233 8.5725 8.87319 8.78809 8.55076 8.90447L8.97505 11.1432C8.99048 11.2246 8.98809 11.3085 8.96804 11.3889C8.94798 11.4693 8.91077 11.5441 8.85906 11.6081C8.80735 11.6721 8.74242 11.7236 8.66893 11.7589C8.59543 11.7943 8.51519 11.8126 8.43394 11.8126H7.56554C7.48438 11.8124 7.40427 11.794 7.33091 11.7586C7.25755 11.7232 7.19276 11.6716 7.14117 11.6077C7.08958 11.5437 7.05247 11.4689 7.03248 11.3886C7.01249 11.3084 7.01012 11.2246 7.02554 11.1432L7.44872 8.90447C7.16303 8.80136 6.9106 8.62006 6.71901 8.3804C6.52742 8.14074 6.40406 7.85193 6.36239 7.54553C6.32071 7.23914 6.36235 6.92694 6.48273 6.64307C6.60312 6.35919 6.79762 6.11456 7.04499 5.93589C7.29236 5.75723 7.58308 5.65142 7.88538 5.63002C8.18767 5.60862 8.48992 5.67245 8.75908 5.81455C9.02824 5.95664 9.25396 6.17153 9.41158 6.43572C9.56919 6.69992 9.65264 7.00326 9.6528 7.31259Z" fill="white"/>
</svg>
