<svg width="47" height="47" viewBox="0 0 47 47" fill="none" xmlns="http://www.w3.org/2000/svg">
<circle cx="23.5" cy="23.5" r="23.5" fill="#C61F2A" fill-opacity="0.1"/>
<path d="M19.3299 18.5485V30.4285H16.2339V18.5485H19.3299ZM21.9644 30.4285V18.5485H27.7424C29.2064 18.5605 30.2864 18.8425 30.9824 19.3945C31.6784 19.9345 32.0264 20.7205 32.0264 21.7525C32.0264 22.4245 31.8284 23.0065 31.4324 23.4985C31.0364 23.9785 30.4304 24.2845 29.6144 24.4165V24.4345C30.5264 24.5545 31.2044 24.8725 31.6484 25.3885C32.1044 25.8925 32.3324 26.5045 32.3324 27.2245C32.3324 28.2445 31.9724 29.0365 31.2524 29.6005C30.5324 30.1525 29.4524 30.4285 28.0124 30.4285H21.9644ZM24.9524 28.2505H27.4904C28.0544 28.2505 28.4744 28.1365 28.7504 27.9085C29.0264 27.6805 29.1644 27.3505 29.1644 26.9185C29.1644 26.4985 29.0264 26.1805 28.7504 25.9645C28.4744 25.7365 28.0544 25.6225 27.4904 25.6225H24.9524V28.2505ZM24.9524 23.4085H27.2024C28.3064 23.4085 28.8584 22.9765 28.8584 22.1125C28.8584 21.2485 28.3064 20.8165 27.2024 20.8165H24.9524V23.4085Z" fill="#C61F2A"/>
</svg>
