<svg width="30" height="30" viewBox="0 0 30 30" fill="none" xmlns="http://www.w3.org/2000/svg">
<circle cx="15" cy="15" r="15" fill="white"/>
<path d="M19 14.1666C18.7267 14.1666 18.5 13.9399 18.5 13.6666V12.3333C18.5 10.2333 17.9067 8.83325 15 8.83325C12.0933 8.83325 11.5 10.2333 11.5 12.3333V13.6666C11.5 13.9399 11.2733 14.1666 11 14.1666C10.7267 14.1666 10.5 13.9399 10.5 13.6666V12.3333C10.5 10.3999 10.9667 7.83325 15 7.83325C19.0333 7.83325 19.5 10.3999 19.5 12.3333V13.6666C19.5 13.9399 19.2733 14.1666 19 14.1666Z" fill="#C61F2A"/>
<path d="M15.0002 19.8333C13.8068 19.8333 12.8335 18.86 12.8335 17.6667C12.8335 16.4733 13.8068 15.5 15.0002 15.5C16.1935 15.5 17.1668 16.4733 17.1668 17.6667C17.1668 18.86 16.1935 19.8333 15.0002 19.8333ZM15.0002 16.5C14.3602 16.5 13.8335 17.0267 13.8335 17.6667C13.8335 18.3067 14.3602 18.8333 15.0002 18.8333C15.6402 18.8333 16.1668 18.3067 16.1668 17.6667C16.1668 17.0267 15.6402 16.5 15.0002 16.5Z" fill="#C61F2A"/>
<path d="M18.3335 22.1667H11.6668C8.72683 22.1667 7.8335 21.2734 7.8335 18.3334V17.0001C7.8335 14.0601 8.72683 13.1667 11.6668 13.1667H18.3335C21.2735 13.1667 22.1668 14.0601 22.1668 17.0001V18.3334C22.1668 21.2734 21.2735 22.1667 18.3335 22.1667ZM11.6668 14.1667C9.28016 14.1667 8.8335 14.6201 8.8335 17.0001V18.3334C8.8335 20.7134 9.28016 21.1667 11.6668 21.1667H18.3335C20.7202 21.1667 21.1668 20.7134 21.1668 18.3334V17.0001C21.1668 14.6201 20.7202 14.1667 18.3335 14.1667H11.6668Z" fill="#C61F2A"/>
</svg>
