<svg width="22" height="22" viewBox="0 0 22 22" fill="none" xmlns="http://www.w3.org/2000/svg">
<path opacity="0.4" d="M9.23051 2.58495L2.87801 7.67244C2.16301 8.24077 1.70467 9.44161 1.86051 10.3399L3.07968 17.6366C3.29967 18.9383 4.54634 19.9924 5.86634 19.9924H16.133C17.4438 19.9924 18.6997 18.9291 18.9197 17.6366L20.1388 10.3399C20.2855 9.44161 19.8272 8.24077 19.1213 7.67244L12.7688 2.5941C11.788 1.80577 10.2022 1.80579 9.23051 2.58495Z" fill="#576275"/>
<path d="M10.9997 14.2083C12.2653 14.2083 13.2913 13.1823 13.2913 11.9167C13.2913 10.651 12.2653 9.625 10.9997 9.625C9.73402 9.625 8.70801 10.651 8.70801 11.9167C8.70801 13.1823 9.73402 14.2083 10.9997 14.2083Z" fill="#576275"/>
</svg>
