<svg xmlns="http://www.w3.org/2000/svg" enable-background="new 0 0 32 32" viewBox="0 0 32 32"><path d="M30.91998,11.66998l-14-10.85999C16.38,0.39001,15.62,0.39001,15.08002,0.81l-14,10.85999c-0.51001,0.40002-0.71002,1.07001-0.5,1.66998C0.78998,13.95001,1.35999,14.35999,2,14.35999h2.65002l1.60999,15.78998C6.34003,30.91998,6.97998,31.5,7.75,31.5h16.5c0.77002,0,1.40997-0.58002,1.48999-1.35004l1.60999-15.78998H30c0.64001,0,1.21002-0.40997,1.41998-1.02002C31.63,12.73999,31.42999,12.07001,30.91998,11.66998z M16,23c-2.92999,0-5.32001-2.39001-5.32001-5.32001c0-2.94,2.39001-5.33002,5.32001-5.33002s5.32001,2.39001,5.32001,5.33002C21.32001,20.60999,18.92999,23,16,23z"/><path d="M16,15.34998c-1.28003,0-2.32001,1.04999-2.32001,2.33002C13.67999,18.95996,14.71997,20,16,20s2.32001-1.04004,2.32001-2.32001C18.32001,16.39996,17.28003,15.34998,16,15.34998z"/></svg>