<svg width="55" height="55" viewBox="0 0 55 55" fill="none" xmlns="http://www.w3.org/2000/svg">
<g clip-path="url(#clip0_543_2688)">
<path d="M27.4868 54.9736C42.6674 54.9736 54.9736 42.6673 54.9736 27.4868C54.9736 12.3063 42.6674 0 27.4868 0C12.3063 0 0 12.3063 0 27.4868C0 42.6673 12.3063 54.9736 27.4868 54.9736Z" fill="url(#paint0_linear_543_2688)"/>
<path d="M39.8466 10.72C39.8894 11.3438 39.8074 11.97 39.6056 12.5617C39.4039 13.1534 39.0865 13.6988 38.6718 14.166C38.257 14.6332 37.7534 15.0128 37.1903 15.2825C36.6273 15.5523 36.0163 15.7067 35.393 15.7368C35.393 15.7368 28.8309 16.3177 24.8515 17.1626C20.8721 18.0075 19.001 19.5391 16.9455 24.1862C16.565 22.0072 16.9506 19.7634 18.0367 17.8374C19.1228 15.9114 20.8419 14.4225 22.9011 13.6245C24.9819 13.0746 27.0941 12.6513 29.226 12.357C32.7965 12.0312 36.3435 11.4845 39.8466 10.72Z" fill="white"/>
<path d="M36.711 17.8491C33.8003 18.5763 30.8531 19.1493 27.8823 19.5655C26.1072 19.8078 24.3474 20.1517 22.6115 20.5953C21.1915 21.0971 19.9551 22.0148 19.0622 23.2296C18.1693 24.4443 17.6615 25.8999 17.6046 27.4074C17.5916 27.495 17.5916 27.584 17.6046 27.6716C17.5757 28.0495 17.5757 28.429 17.6046 28.8069C17.6046 32.3451 17.7627 40.6624 17.6046 41.1905C17.6046 41.1905 17.6046 42.8011 14.9692 44.2533C14.9692 44.2533 20.7669 44.095 20.7669 40.1607C20.7669 40.1607 20.9514 31.0249 21.0831 27.9884C21.1299 27.3235 21.3578 26.6842 21.742 26.1401C22.3611 25.2872 23.1484 24.5706 24.055 24.0347C24.9616 23.4988 25.9682 23.155 27.0127 23.0244L28.2512 22.8396L32.8631 22.2586C33.407 22.2286 33.9396 22.09 34.4292 21.8509C34.9187 21.6117 35.3555 21.2767 35.714 20.8658C36.0725 20.455 36.3455 19.9765 36.5167 19.4585C36.6878 18.9404 36.754 18.3932 36.711 17.8491Z" fill="white"/>
<path d="M26.0112 25.6913C28.6196 25.5172 31.2101 25.1376 33.759 24.5559C33.7803 25.1677 33.6781 25.7774 33.4582 26.3486C33.2383 26.9198 32.9055 27.4406 32.4796 27.8796C32.0537 28.3187 31.5437 28.6668 30.9802 28.9033C30.4166 29.1398 29.8109 29.2597 29.1999 29.2558H27.7242H27.566C27.4445 29.2689 27.3271 29.306 27.2201 29.365C27.1131 29.4241 27.0188 29.5037 26.9428 29.5995C26.8668 29.6953 26.8104 29.8054 26.7771 29.9231C26.7439 30.0409 26.7345 30.1641 26.7492 30.2856C26.7492 31.2625 26.5909 37.9164 26.5645 39.2102V39.5271C26.5645 40.0815 26.5645 42.986 20.9512 43.1709C21.6125 42.8227 22.169 42.3037 22.5629 41.6677C22.9567 41.0317 23.1739 40.3018 23.1915 39.5535V29.2558C23.1648 28.4415 23.4092 27.6415 23.8864 26.9818C24.3635 26.3221 25.0462 25.8401 25.8268 25.612H26.0112V25.6913Z" fill="white"/>
</g>
<defs>
<linearGradient id="paint0_linear_543_2688" x1="0" y1="27.4868" x2="55" y2="27.4868" gradientUnits="userSpaceOnUse">
<stop offset="0.25" stop-color="#C12B37"/>
<stop offset="1" stop-color="#3B1136"/>
</linearGradient>
<clipPath id="clip0_543_2688">
<rect width="55" height="55" fill="white"/>
</clipPath>
</defs>
</svg>
