<svg width="53" height="53" viewBox="0 0 53 53" fill="none" xmlns="http://www.w3.org/2000/svg">
<circle cx="26.5" cy="26.5" r="26.5" fill="#C61F2A" fill-opacity="0.1"/>
<path d="M23.3742 17.385C21.9747 17.7787 20.5848 18.2068 19.2056 18.669C19.0796 18.7106 18.9677 18.7876 18.8825 18.891C18.7972 18.9944 18.7422 19.1202 18.7236 19.254C17.9096 25.4895 19.7904 30.039 22.0341 33.036C22.9841 34.3176 24.1168 35.4466 25.3946 36.3855C25.903 36.7515 26.3527 37.0155 26.7068 37.185C26.8831 37.2705 27.0271 37.3275 27.1373 37.362C27.1855 37.3793 27.2352 37.3918 27.2857 37.3995C27.3356 37.3912 27.3848 37.3787 27.4327 37.362C27.5443 37.3275 27.6883 37.2705 27.8647 37.185C28.2173 37.0155 28.6684 36.75 29.1768 36.3855C30.4546 35.4466 31.5873 34.3176 32.5373 33.036C34.7811 30.0405 36.6619 25.4895 35.8478 19.254C35.8294 19.1201 35.7744 18.9943 35.6892 18.8908C35.6039 18.7874 35.4919 18.7105 35.3659 18.669C34.4093 18.3495 32.7944 17.829 31.1972 17.3865C29.5662 16.935 28.066 16.6005 27.2857 16.6005C26.5069 16.6005 25.0052 16.935 23.3742 17.3865V17.385ZM22.9833 15.84C24.5776 15.3975 26.2718 15 27.2857 15C28.2996 15 29.9938 15.3975 31.5881 15.84C33.2191 16.29 34.8633 16.8225 35.8302 17.145C36.2344 17.2813 36.5928 17.5312 36.8642 17.8661C37.1355 18.2009 37.3089 18.6071 37.3642 19.038C38.24 25.7535 36.2078 30.7305 33.7422 34.023C32.6966 35.4315 31.4499 36.6718 30.0438 37.7025C29.5575 38.0592 29.0423 38.3728 28.5038 38.64C28.0924 38.838 27.6501 39 27.2857 39C26.9213 39 26.4805 38.838 26.0676 38.64C25.5291 38.3728 25.0139 38.0592 24.5277 37.7025C23.1215 36.6717 21.8748 35.4314 20.8292 34.023C18.3636 30.7305 16.3314 25.7535 17.2072 19.038C17.2626 18.6071 17.4359 18.2009 17.7072 17.8661C17.9786 17.5312 18.337 17.2813 18.7412 17.145C20.1448 16.6752 21.5592 16.2401 22.9833 15.84Z" fill="#C61F2A"/>
<path d="M29.489 24.75C29.4892 25.2155 29.348 25.6696 29.0848 26.0498C28.8217 26.4299 28.4495 26.7174 28.0196 26.8725L28.5853 29.8575C28.6059 29.9661 28.6027 30.078 28.576 30.1851C28.5492 30.2923 28.4996 30.3921 28.4307 30.4774C28.3617 30.5627 28.2751 30.6314 28.1771 30.6785C28.0791 30.7256 27.9722 30.7501 27.8638 30.75H26.706C26.5977 30.7498 26.4909 30.7253 26.3931 30.678C26.2953 30.6308 26.2089 30.5621 26.1401 30.4768C26.0713 30.3916 26.0219 30.2918 25.9952 30.1848C25.9686 30.0777 25.9654 29.966 25.986 29.8575L26.5502 26.8725C26.1693 26.7351 25.8327 26.4933 25.5773 26.1738C25.3218 25.8542 25.1573 25.4692 25.1018 25.0606C25.0462 24.6521 25.1017 24.2358 25.2622 23.8573C25.4227 23.4788 25.6821 23.1527 26.0119 22.9144C26.3417 22.6762 26.7293 22.5351 27.1324 22.5066C27.5355 22.4781 27.9385 22.5632 28.2973 22.7526C28.6562 22.9421 28.9572 23.2286 29.1673 23.5809C29.3775 23.9331 29.4888 24.3376 29.489 24.75Z" fill="#C61F2A"/>
</svg>
