<svg width="16" height="17" viewBox="0 0 16 17" fill="none" xmlns="http://www.w3.org/2000/svg">
<path d="M12 7.66671C11.7267 7.66671 11.5 7.44004 11.5 7.16671V5.83337C11.5 3.73337 10.9067 2.33337 8 2.33337C5.09333 2.33337 4.5 3.73337 4.5 5.83337V7.16671C4.5 7.44004 4.27333 7.66671 4 7.66671C3.72667 7.66671 3.5 7.44004 3.5 7.16671V5.83337C3.5 3.90004 3.96667 1.33337 8 1.33337C12.0333 1.33337 12.5 3.90004 12.5 5.83337V7.16671C12.5 7.44004 12.2733 7.66671 12 7.66671Z" fill="#C61F2A"/>
<path d="M8.00016 13.3333C6.80683 13.3333 5.8335 12.36 5.8335 11.1667C5.8335 9.97333 6.80683 9 8.00016 9C9.1935 9 10.1668 9.97333 10.1668 11.1667C10.1668 12.36 9.1935 13.3333 8.00016 13.3333ZM8.00016 10C7.36016 10 6.8335 10.5267 6.8335 11.1667C6.8335 11.8067 7.36016 12.3333 8.00016 12.3333C8.64016 12.3333 9.16683 11.8067 9.16683 11.1667C9.16683 10.5267 8.64016 10 8.00016 10Z" fill="#C61F2A"/>
<path d="M11.3335 15.6666H4.66683C1.72683 15.6666 0.833496 14.7733 0.833496 11.8333V10.5C0.833496 7.55996 1.72683 6.66663 4.66683 6.66663H11.3335C14.2735 6.66663 15.1668 7.55996 15.1668 10.5V11.8333C15.1668 14.7733 14.2735 15.6666 11.3335 15.6666ZM4.66683 7.66663C2.28016 7.66663 1.8335 8.11996 1.8335 10.5V11.8333C1.8335 14.2133 2.28016 14.6666 4.66683 14.6666H11.3335C13.7202 14.6666 14.1668 14.2133 14.1668 11.8333V10.5C14.1668 8.11996 13.7202 7.66663 11.3335 7.66663H4.66683Z" fill="#C61F2A"/>
</svg>
