<svg width="18" height="18" viewBox="0 0 18 18" fill="none" xmlns="http://www.w3.org/2000/svg">
<path d="M11.4299 16.7026H11.3324C8.00239 16.7026 6.39739 15.3901 6.11989 12.4501C6.08989 12.1426 6.31489 11.8651 6.62989 11.8351C6.93739 11.8051 7.21489 12.0376 7.24489 12.3451C7.46239 14.7001 8.57239 15.5776 11.3399 15.5776H11.4374C14.4899 15.5776 15.5699 14.4976 15.5699 11.4451V6.55511C15.5699 3.50261 14.4899 2.42261 11.4374 2.42261H11.3399C8.55739 2.42261 7.44739 3.31511 7.24489 5.71511C7.20739 6.02261 6.95239 6.25511 6.62989 6.22511C6.31489 6.20261 6.08989 5.92511 6.11239 5.61761C6.36739 2.63261 7.97989 1.29761 11.3324 1.29761H11.4299C15.1124 1.29761 16.6874 2.87261 16.6874 6.55511V11.4451C16.6874 15.1276 15.1124 16.7026 11.4299 16.7026Z" fill="#C61F2A"/>
<path d="M11.16 9.5625H1.5C1.1925 9.5625 0.9375 9.3075 0.9375 9C0.9375 8.6925 1.1925 8.4375 1.5 8.4375H11.16C11.4675 8.4375 11.7225 8.6925 11.7225 9C11.7225 9.3075 11.475 9.5625 11.16 9.5625Z" fill="#C61F2A"/>
<path d="M9.48738 12.0749C9.34488 12.0749 9.20238 12.0224 9.08988 11.9099C8.87238 11.6924 8.87238 11.3324 9.08988 11.1149L11.2049 8.99988L9.08988 6.88488C8.87238 6.66738 8.87238 6.30738 9.08988 6.08988C9.30738 5.87238 9.66738 5.87238 9.88488 6.08988L12.3974 8.60238C12.6149 8.81988 12.6149 9.17988 12.3974 9.39738L9.88488 11.9099C9.77238 12.0224 9.62988 12.0749 9.48738 12.0749Z" fill="#C61F2A"/>
</svg>
