<svg width="53" height="53" viewBox="0 0 53 53" fill="none" xmlns="http://www.w3.org/2000/svg">
<circle cx="26.5" cy="26.5" r="26.5" fill="#C61F2A" fill-opacity="0.1"/>
<path d="M31.8 24H27.75V30.25C27.75 30.66 27.41 31 27 31C26.59 31 26.25 30.66 26.25 30.25V24H22.2C19 24 17 26 17 29.2V31.79C17 35 19 37 22.2 37H31.79C34.99 37 36.99 35 36.99 31.8V29.2C37 26 35 24 31.8 24Z" fill="#C61F2A"/>
<path d="M27.7498 19.5599L29.8198 21.6299C29.9698 21.7799 30.1598 21.8499 30.3498 21.8499C30.5398 21.8499 30.7298 21.7799 30.8798 21.6299C31.1698 21.3399 31.1698 20.8599 30.8798 20.5699L27.5298 17.2199C27.2398 16.9299 26.7598 16.9299 26.4698 17.2199L23.1198 20.5699C22.8298 20.8599 22.8298 21.3399 23.1198 21.6299C23.4098 21.9199 23.8898 21.9199 24.1798 21.6299L26.2498 19.5599V23.9999H27.7498V19.5599Z" fill="#C61F2A"/>
</svg>
