<svg width="16" height="16" viewBox="0 0 16 16" fill="none" xmlns="http://www.w3.org/2000/svg">
<path fill-rule="evenodd" clip-rule="evenodd" d="M8 0.5C12.1421 0.5 15.5 3.85786 15.5 8C15.5 12.1421 12.1421 15.5 8 15.5C3.85786 15.5 0.5 12.1421 0.5 8C0.5 3.85786 3.85786 0.5 8 0.5ZM10.8661 4.61612L6.75 8.73223L5.13388 7.11612C4.64573 6.62796 3.85427 6.62796 3.36612 7.11612C2.87796 7.60427 2.87796 8.39573 3.36612 8.88388L5.86612 11.3839C6.35427 11.872 7.14573 11.872 7.63388 11.3839L12.6339 6.38388C13.122 5.89573 13.122 5.10427 12.6339 4.61612C12.1457 4.12796 11.3543 4.12796 10.8661 4.61612Z" fill="#C61F2A"/>
</svg>
