<svg width="21" height="22" viewBox="0 0 21 22" fill="none" xmlns="http://www.w3.org/2000/svg">
<path d="M10.6696 0C13.1966 1.19767 15.7104 2.45237 18.2243 3.6643C18.8297 3.96372 19.4483 4.26314 20.0537 4.5483C20.488 4.76217 20.7118 5.20416 20.6328 5.67467C20.5539 6.13093 20.2117 6.44461 19.7378 6.48738C19.6589 6.48738 19.5799 6.48738 19.5009 6.48738C13.5388 6.48738 7.56353 6.48738 1.60141 6.50164C1.0223 6.50164 0.58798 6.35906 0.351074 5.74597C0.351074 5.58913 0.351074 5.43229 0.351074 5.27545C0.40372 4.86197 0.64062 4.63384 0.982817 4.477C2.1147 3.9352 3.25975 3.36488 4.39163 2.82308C5.52351 2.28128 6.65539 1.72521 7.78727 1.16915C8.49799 0.826962 9.2087 0.484771 9.90626 0.128322C10.051 0.0570321 10.1958 0.0427739 10.3406 0C10.459 0 10.5643 0 10.6696 0Z" fill="#C61F2A"/>
<path d="M0.364258 20.7311C0.443226 20.6028 0.482718 20.446 0.58801 20.3177C0.77227 20.1038 0.996006 19.9897 1.25923 19.9755C1.31188 19.9755 1.36453 19.9755 1.41718 19.9755C7.47143 19.9755 13.5257 19.9755 19.5799 19.9755C19.9879 19.9755 20.317 20.1038 20.5276 20.503C20.8566 21.1589 20.4354 21.9431 19.751 21.9858C19.6721 21.9858 19.5931 21.9858 19.5141 21.9858C13.5257 21.9858 7.52407 21.9858 1.53562 22.0001C0.969682 22.0001 0.574841 21.8147 0.364258 21.2159C0.364258 21.0448 0.364258 20.888 0.364258 20.7311Z" fill="#C61F2A"/>
<path d="M19.501 18.3499C19.4747 17.8081 19.093 17.3946 18.5666 17.3946C18.3823 17.3946 18.3428 17.3376 18.3428 17.1522C18.3428 14.3149 18.3428 11.4918 18.3428 8.65448C18.3428 8.49764 18.3428 8.39784 18.5402 8.4121C18.7508 8.42635 18.9219 8.31229 19.0009 8.0699C19.0667 7.88455 19.0272 7.71345 18.9088 7.57087C18.7772 7.41404 18.606 7.39978 18.4218 7.39978C14.3417 7.39978 10.2617 7.39978 6.18167 7.39978C4.97082 7.39978 3.74681 7.39978 2.53596 7.39978C2.20692 7.39978 1.99634 7.58513 1.98318 7.88455C1.97002 8.18397 2.15427 8.4121 2.48331 8.4121C2.65441 8.4121 2.66757 8.48338 2.66757 8.64022C2.66757 11.4918 2.66757 14.3292 2.66757 17.1808C2.66757 17.2093 2.66757 17.252 2.66757 17.2948C2.68073 17.3946 2.64125 17.4231 2.54912 17.4089C2.49647 17.4089 2.44383 17.4089 2.39118 17.4089C1.70679 17.4516 1.29878 18.2358 1.64098 18.8917C1.85156 19.2909 2.19376 19.4193 2.5886 19.4193C5.23405 19.4193 7.86633 19.4193 10.5118 19.4193C13.1309 19.4193 15.75 19.4193 18.3691 19.4193C18.4613 19.4193 18.5534 19.4193 18.6455 19.405C19.1588 19.3052 19.5142 18.8632 19.501 18.3499ZM7.27407 17.195C7.27407 17.3376 7.24775 17.3804 7.11614 17.3804C6.31329 17.3804 5.51044 17.3661 4.69443 17.3804C4.54965 17.3804 4.52333 17.3376 4.52333 17.195C4.52333 15.7549 4.52333 14.3149 4.52333 12.8748C4.52333 11.449 4.52333 10.0232 4.52333 8.61171C4.52333 8.44061 4.56282 8.39783 4.72076 8.39783C5.5236 8.41209 6.31329 8.41209 7.11614 8.39783C7.24775 8.39783 7.27407 8.44061 7.27407 8.56893C7.27407 11.449 7.27407 14.3291 7.27407 17.195ZM11.8937 17.1808C11.8937 17.3376 11.8542 17.3804 11.7095 17.3804C10.9066 17.3661 10.1038 17.3661 9.30093 17.3804C9.15615 17.3804 9.12983 17.3376 9.12983 17.1808C9.12983 15.7407 9.12983 14.3006 9.12983 12.8748C9.12983 11.449 9.12983 10.0232 9.12983 8.61171C9.12983 8.45487 9.15615 8.39783 9.31409 8.39783C10.1169 8.41209 10.9066 8.41209 11.7095 8.39783C11.8542 8.39783 11.8937 8.44061 11.8937 8.59745C11.8806 11.4633 11.8806 14.3149 11.8937 17.1808ZM16.3028 17.3804C15.5 17.3661 14.7103 17.3661 13.9074 17.3804C13.7626 17.3804 13.7363 17.3376 13.7363 17.195C13.7363 14.3291 13.7363 11.4633 13.7363 8.59745C13.7363 8.44061 13.7758 8.4121 13.9074 8.4121C14.7103 8.42635 15.5131 8.42635 16.3291 8.4121C16.4739 8.4121 16.5002 8.45487 16.5002 8.59745C16.5002 10.0375 16.5002 11.4776 16.5002 12.9034C16.5002 14.3292 16.5002 15.755 16.5002 17.1665C16.5002 17.3376 16.4607 17.3804 16.3028 17.3804Z" fill="#C61F2A"/>
</svg>
