<svg width="20" height="21" viewBox="0 0 20 21" fill="none" xmlns="http://www.w3.org/2000/svg">
<path d="M14.1949 0.5H5.81488C2.17488 0.5 0.00488281 2.67 0.00488281 6.31V14.68C0.00488281 18.33 2.17488 20.5 5.81488 20.5H14.1849C17.8249 20.5 19.9949 18.33 19.9949 14.69V6.31C20.0049 2.67 17.8349 0.5 14.1949 0.5ZM15.6949 12.55C15.6549 12.64 15.6049 12.72 15.5349 12.79L12.5849 15.74C12.4349 15.89 12.2449 15.96 12.0549 15.96C11.8649 15.96 11.6749 15.89 11.5249 15.74C11.2349 15.45 11.2349 14.97 11.5249 14.68L13.1949 13.01H5.00488C4.59488 13.01 4.25488 12.67 4.25488 12.26C4.25488 11.85 4.59488 11.51 5.00488 11.51H15.0049C15.1049 11.51 15.1949 11.53 15.2949 11.57C15.4749 11.65 15.6249 11.79 15.7049 11.98C15.7749 12.16 15.7749 12.36 15.6949 12.55ZM15.0049 9.49H5.00488C4.90488 9.49 4.81488 9.47 4.71488 9.43C4.53488 9.35 4.38488 9.21 4.30488 9.02C4.22488 8.84 4.22488 8.63 4.30488 8.45C4.35488 8.36 4.40488 8.28 4.47488 8.21L7.42488 5.26C7.71488 4.97 8.19488 4.97 8.48488 5.26C8.77488 5.55 8.77488 6.03 8.48488 6.32L6.81488 7.99H15.0049C15.4149 7.99 15.7549 8.33 15.7549 8.74C15.7549 9.15 15.4149 9.49 15.0049 9.49Z" fill="#C61F2A"/>
</svg>
