<svg width="22" height="23" viewBox="0 0 22 23" fill="none" xmlns="http://www.w3.org/2000/svg">
<path d="M15.6144 0.5H6.39637C2.39237 0.5 0.00537109 2.887 0.00537109 6.891V16.098C0.00537109 20.113 2.39237 22.5 6.39637 22.5H15.6034C19.6074 22.5 21.9944 20.113 21.9944 16.109V6.891C22.0054 2.887 19.6184 0.5 15.6144 0.5ZM6.80337 16.747C6.78137 16.747 6.74837 16.747 6.72637 16.747C5.65937 16.648 4.65837 16.153 3.91037 15.361C2.15037 13.513 2.15037 10.51 3.91037 8.662L6.31937 6.132C7.17737 5.23 8.33237 4.724 9.56437 4.724C10.7964 4.724 11.9514 5.219 12.8094 6.132C14.5694 7.98 14.5694 10.983 12.8094 12.831L11.6104 14.096C11.2914 14.426 10.7744 14.437 10.4444 14.129C10.1144 13.81 10.1034 13.293 10.4114 12.963L11.6104 11.698C12.7764 10.477 12.7764 8.486 11.6104 7.276C10.5214 6.132 8.60737 6.132 7.50737 7.276L5.09837 9.806C3.93237 11.027 3.93237 13.018 5.09837 14.228C5.57137 14.734 6.20937 15.042 6.88037 15.108C7.33137 15.152 7.66137 15.559 7.61737 16.01C7.58437 16.428 7.22137 16.747 6.80337 16.747ZM18.1004 14.349L15.6914 16.879C14.8334 17.781 13.6784 18.287 12.4464 18.287C11.2144 18.287 10.0594 17.792 9.20137 16.879C7.44137 15.031 7.44137 12.028 9.20137 10.18L10.4004 8.915C10.7194 8.585 11.2364 8.574 11.5664 8.882C11.8964 9.201 11.9074 9.718 11.5994 10.048L10.4004 11.313C9.23437 12.534 9.23437 14.525 10.4004 15.735C11.4894 16.879 13.4034 16.89 14.5034 15.735L16.9124 13.205C18.0784 11.984 18.0784 9.993 16.9124 8.783C16.4394 8.277 15.8014 7.969 15.1304 7.903C14.6794 7.859 14.3494 7.452 14.3934 7.001C14.4374 6.55 14.8334 6.209 15.2954 6.264C16.3624 6.374 17.3634 6.858 18.1114 7.65C19.8604 9.487 19.8604 12.501 18.1004 14.349Z" fill="#C61F2A"/>
</svg>
