<svg width="22" height="23" viewBox="0 0 22 23" fill="none" xmlns="http://www.w3.org/2000/svg">
<path d="M14.8408 2.33325H7.15909C3.82242 2.33325 1.83325 4.32242 1.83325 7.65908V15.3316C1.83325 18.6774 3.82242 20.6666 7.15909 20.6666H14.8316C18.1683 20.6666 20.1574 18.6774 20.1574 15.3408V7.65908C20.1666 4.32242 18.1774 2.33325 14.8408 2.33325ZM7.49825 15.8724C7.47992 15.8724 7.45242 15.8724 7.43408 15.8724C6.54492 15.7899 5.71075 15.3774 5.08742 14.7174C3.62075 13.1774 3.62075 10.6749 5.08742 9.13492L7.09492 7.02659C7.80992 6.27492 8.77242 5.85325 9.79909 5.85325C10.8258 5.85325 11.7883 6.26575 12.5033 7.02659C13.9699 8.56659 13.9699 11.0691 12.5033 12.6091L11.5041 13.6633C11.2383 13.9383 10.8074 13.9474 10.5324 13.6908C10.2574 13.4249 10.2483 12.9941 10.5049 12.7191L11.5041 11.6649C12.4758 10.6474 12.4758 8.98825 11.5041 7.97992C10.5966 7.02659 9.00159 7.02659 8.08492 7.97992L6.07742 10.0883C5.10575 11.1058 5.10575 12.7649 6.07742 13.7733C6.47159 14.1949 7.00325 14.4516 7.56242 14.5066C7.93825 14.5433 8.21325 14.8824 8.17659 15.2583C8.14909 15.6066 7.84659 15.8724 7.49825 15.8724ZM16.9124 13.8741L14.9049 15.9824C14.1899 16.7341 13.2274 17.1558 12.2008 17.1558C11.1741 17.1558 10.2116 16.7433 9.49659 15.9824C8.02992 14.4424 8.02992 11.9399 9.49659 10.3999L10.4958 9.34575C10.7616 9.07075 11.1924 9.06158 11.4674 9.31825C11.7424 9.58408 11.7516 10.0149 11.4949 10.2899L10.4958 11.3441C9.52409 12.3616 9.52409 14.0208 10.4958 15.0291C11.4033 15.9824 12.9983 15.9916 13.9149 15.0291L15.9224 12.9208C16.8941 11.9033 16.8941 10.2441 15.9224 9.23575C15.5283 8.81408 14.9966 8.55742 14.4374 8.50242C14.0616 8.46575 13.7866 8.12659 13.8233 7.75075C13.8599 7.37492 14.1899 7.09075 14.5749 7.13658C15.4641 7.22825 16.2983 7.63159 16.9216 8.29158C18.3791 9.82242 18.3791 12.3341 16.9124 13.8741Z" fill="#C61F2A"/>
</svg>
