<svg width="22" height="22" viewBox="0 0 22 22" fill="none" xmlns="http://www.w3.org/2000/svg">
<path d="M1.80088 16.0476C2.09677 16.579 2.39266 17.0837 2.74002 17.5354C2.83007 17.6417 2.75289 17.7214 2.7143 17.8143C2.48273 18.3457 2.27689 18.8903 2.17397 19.4748C2.03246 20.2718 2.17396 20.4312 2.94586 20.3117C3.55051 20.2187 4.11658 19.953 4.6569 19.6741C6.43227 18.7575 8.01466 17.5354 9.51987 16.2203C12.556 13.5635 15.2705 10.6013 17.5476 7.22718C18.371 6.00508 19.13 4.72986 19.6189 3.3085C19.7475 2.94984 19.8505 2.57786 19.8633 2.19263C19.8762 1.70113 19.7347 1.56831 19.2458 1.63473C18.7955 1.70115 18.3324 1.79412 17.9593 2.03323C17.4318 2.37861 17.0073 2.31218 16.557 1.90038C16.3126 1.68784 16.0038 1.55501 15.6951 1.36904C16.8786 0.718137 18.0236 0.0406671 19.4002 0.000815789C20.468 -0.0257517 21.2656 0.598588 21.4328 1.58159C21.5358 2.24577 21.4328 2.89668 21.2399 3.5343C20.7896 5.06193 20.0048 6.43018 19.1429 7.74527C16.943 11.1326 14.2799 14.0949 11.321 16.7915C9.68712 18.2793 7.9632 19.6608 6.05918 20.7633C5.14577 21.2947 4.20663 21.7596 3.1517 21.9456C2.7143 22.0253 2.28976 22.0253 1.85235 21.8925C0.938935 21.6002 0.437196 20.6836 0.540115 19.6077C0.6559 18.4387 1.19622 17.1635 1.80088 16.0476Z" fill="#C61F2A"/>
<path d="M3.53752 11.2655C4.27082 11.2655 4.99125 11.2655 5.72456 11.2655C5.87894 11.2655 5.9304 11.2921 5.9304 11.478C5.95613 13.019 6.13624 14.5333 6.50932 16.0078C6.56078 16.1938 6.52218 16.2602 6.34207 16.2735C5.26141 16.4196 4.19363 16.6454 3.1387 16.9111C2.99719 16.9509 2.94571 16.8978 2.88139 16.8048C2.0709 15.596 1.53058 14.2543 1.28614 12.8064C1.20895 12.3681 1.19608 11.9164 1.13175 11.4647C1.10602 11.2921 1.15749 11.2522 1.32474 11.2522C2.05804 11.2655 2.79135 11.2655 3.53752 11.2655Z" fill="#C61F2A"/>
<path d="M19.0654 11.2655C19.6058 11.2655 20.1461 11.2655 20.6993 11.2655C20.8151 11.2655 20.8923 11.2655 20.8794 11.4382C20.7636 13.3776 20.2104 15.1709 19.1426 16.7782C19.0526 16.9111 18.9754 16.9376 18.821 16.8978C17.7789 16.6321 16.724 16.4196 15.6691 16.2735C15.5018 16.2469 15.4375 16.2071 15.489 16.0078C15.7334 15.0514 15.9007 14.0816 15.9779 13.0854C15.9907 12.8595 16.0808 12.6736 16.2351 12.5009C16.5439 12.1555 16.8398 11.7835 17.1357 11.4116C17.2257 11.292 17.3287 11.2522 17.4702 11.2522C17.9977 11.2655 18.538 11.2655 19.0654 11.2655Z" fill="#C61F2A"/>
<path d="M11.269 8.383C11.269 7.67896 11.269 6.97492 11.269 6.25759C11.269 6.09819 11.3076 6.05834 11.462 6.05834C12.5684 6.01849 13.6619 5.96538 14.7555 5.83254C14.8841 5.81926 14.9098 5.85912 14.9356 5.96539C15.1929 6.97495 15.373 7.99777 15.4502 9.04719C15.463 9.16674 15.4244 9.23318 15.3472 9.31288C14.9999 9.73796 14.6397 10.163 14.3052 10.6014C14.228 10.6944 14.1508 10.721 14.035 10.721C13.1859 10.721 12.324 10.7077 11.4749 10.721C11.3076 10.721 11.269 10.6678 11.269 10.5084C11.269 9.79109 11.269 9.08704 11.269 8.383Z" fill="#C61F2A"/>
<path d="M8.59319 11.2654C9.23644 11.2654 9.89257 11.2654 10.5358 11.2654C10.6902 11.2654 10.7288 11.3052 10.7288 11.4646C10.7159 12.3679 10.7288 13.2845 10.7288 14.1878C10.7288 14.3206 10.6902 14.4003 10.5873 14.4933C10.0727 14.945 9.57094 15.4099 9.06921 15.8748C8.96629 15.9678 8.86336 16.0077 8.73471 16.0077C8.24584 16.0475 7.75698 16.0741 7.28098 16.1405C7.13946 16.1538 7.10085 16.114 7.06226 15.9944C6.86928 15.2107 6.71491 14.4269 6.61199 13.6299C6.52194 12.9391 6.50908 12.2351 6.45762 11.5443C6.44476 11.3052 6.50907 11.2654 6.72777 11.2654C7.35816 11.2654 7.97567 11.2654 8.59319 11.2654Z" fill="#C61F2A"/>
<path d="M11.269 0.784668C12.1181 0.983924 12.7228 1.5153 13.2245 2.17949C13.8935 3.05622 14.3181 4.05247 14.6783 5.10189C14.7683 5.35428 14.5496 5.28789 14.4467 5.30118C13.5333 5.39417 12.6199 5.48713 11.7064 5.48713C11.269 5.48713 11.269 5.50042 11.269 5.03549C11.269 3.62741 11.269 2.21931 11.269 0.784668Z" fill="#C61F2A"/>
<path d="M10.7291 0.797852C10.7291 2.32548 10.7291 3.81326 10.7291 5.31432C10.7291 5.46044 10.6905 5.5003 10.549 5.48702C9.53268 5.47373 8.52921 5.39405 7.51288 5.30106C7.30704 5.28778 7.2813 5.22136 7.34563 5.00882C7.74444 3.86642 8.23332 2.79041 9.01808 1.87383C9.53268 1.28935 10.0344 0.97054 10.7291 0.797852Z" fill="#C61F2A"/>
<path d="M11.269 21.1753C11.269 20.0196 11.269 18.864 11.269 17.7083C11.269 17.602 11.3076 17.5488 11.3848 17.4824C11.6936 17.2035 12.0152 16.9112 12.324 16.619C12.3883 16.5659 12.4398 16.5127 12.5298 16.5127C13.1988 16.5791 13.8806 16.6323 14.5496 16.6854C14.6525 16.6987 14.7297 16.7253 14.6783 16.8714C14.2666 18.0669 13.7648 19.2093 12.9158 20.1657C12.414 20.7104 11.8866 21.0425 11.269 21.1753Z" fill="#C61F2A"/>
<path d="M18.6411 17.4556C17.1487 19.3021 15.2705 20.4577 12.9419 21.0023C13.0834 20.8429 13.1606 20.7234 13.2635 20.6172C14.1769 19.581 14.7559 18.3323 15.1933 17.0172C15.2576 16.8312 15.3091 16.7914 15.502 16.818C16.5055 16.9641 17.4961 17.1766 18.4738 17.3892C18.5253 17.4024 18.5767 17.429 18.6411 17.4556Z" fill="#C61F2A"/>
<path d="M6.57356 5.7395C6.16188 7.30698 5.95603 8.87446 5.94317 10.4685C5.94317 10.6545 5.90458 10.7076 5.71161 10.7076C4.25786 10.6943 2.80412 10.7076 1.36324 10.7076C1.24745 10.7076 1.13167 10.7475 1.14454 10.5349C1.26032 8.60877 1.81351 6.84204 2.86844 5.23471C2.95849 5.08859 3.03568 5.03546 3.22866 5.07531C4.29645 5.36755 5.41571 5.56681 6.57356 5.7395Z" fill="#C61F2A"/>
<path d="M3.4732 4.57048C3.43461 4.5572 3.40888 4.5439 3.35742 4.51733C4.83689 2.68418 6.70232 1.52851 8.96655 1.05029C8.88936 1.14328 8.81216 1.24955 8.73497 1.34254C7.82156 2.37867 7.22978 3.60078 6.8181 4.91587C6.75378 5.11513 6.68946 5.19482 6.45789 5.15497C5.45442 4.99556 4.46381 4.79631 3.4732 4.57048Z" fill="#C61F2A"/>
<path d="M10.742 10.4817C10.742 10.6677 10.7034 10.7075 10.5233 10.7075C9.23683 10.6943 7.96321 10.6943 6.67671 10.7075C6.4966 10.7075 6.45801 10.6677 6.45801 10.4817C6.50947 8.98068 6.67671 7.50619 7.03693 6.04497C7.07552 5.88557 7.11411 5.80586 7.33282 5.83243C8.38775 5.96526 9.45553 6.03166 10.5233 6.05823C10.6777 6.05823 10.7292 6.09808 10.7292 6.27077C10.7163 6.97481 10.7292 7.67886 10.7292 8.39618C10.7292 9.08694 10.7292 9.79099 10.742 10.4817Z" fill="#C61F2A"/>
<path d="M12.9678 0.983643C13.4952 1.08991 13.9584 1.23602 14.4215 1.42199C15.9782 2.01976 17.3033 2.9629 18.3968 4.23814C18.6026 4.47725 18.5898 4.55696 18.281 4.62338C17.329 4.83592 16.3641 5.0219 15.3993 5.16802C15.232 5.19459 15.232 5.08831 15.2063 4.99532C14.8589 3.93262 14.4215 2.90977 13.7654 2.00648C13.5338 1.67438 13.2637 1.35559 12.9678 0.983643Z" fill="#C61F2A"/>
<path d="M17.689 10.7075C18.5895 9.55181 19.3871 8.39613 20.1462 7.14746C20.5193 8.10389 20.738 9.06031 20.828 10.0433C20.828 10.0832 20.828 10.1363 20.828 10.1762C20.8666 10.6942 20.8666 10.6942 20.3391 10.6942C19.4772 10.7075 18.6152 10.7075 17.689 10.7075Z" fill="#C61F2A"/>
<path d="M3.34521 17.4423C4.03992 17.2563 4.70892 17.1235 5.39076 16.9906C5.77671 16.9242 6.16265 16.8711 6.5486 16.8047C6.5872 16.8047 6.62579 16.7648 6.65152 16.7781C6.85736 16.9109 6.81876 17.1766 6.92168 17.3626C6.96027 17.4423 6.986 17.522 6.88308 17.5884C6.2527 18.0401 5.5966 18.4784 4.92762 18.8637C4.83757 18.9168 4.7861 18.8902 4.72178 18.8371C4.23291 18.4253 3.78262 17.9604 3.34521 17.4423Z" fill="#C61F2A"/>
<path d="M18.1271 5.24805C17.4839 6.40373 16.7634 7.45315 15.9529 8.52914C15.8629 7.87823 15.7857 7.28046 15.657 6.69597C15.5927 6.44358 15.567 6.17788 15.4769 5.92549C15.4255 5.76609 15.4898 5.73953 15.6056 5.72624C16.4418 5.59341 17.2651 5.43402 18.1271 5.24805Z" fill="#C61F2A"/>
<path d="M10.7165 21.175C9.88031 20.9757 9.27565 20.4311 8.76105 19.7669C8.70959 19.7005 8.69672 19.6606 8.77391 19.5942C9.43002 19.116 10.0604 18.598 10.7037 18.04C10.7165 19.116 10.7165 20.1389 10.7165 21.175Z" fill="#C61F2A"/>
<path d="M11.269 13.8292C11.269 12.9924 11.269 12.2219 11.269 11.4514C11.269 11.3585 11.2304 11.2522 11.3976 11.2522C12.1438 11.2655 12.9028 11.2522 13.7005 11.2522C12.9157 12.1555 12.1309 12.9924 11.269 13.8292Z" fill="#C61F2A"/>
<path d="M15.3862 13.4573C15.2833 14.3739 15.1289 15.1842 14.9102 15.9945C14.8974 16.0476 14.9102 16.1539 14.7944 16.1406C14.2026 16.0742 13.6237 16.021 12.9805 15.9546C13.8167 15.1576 14.5886 14.3473 15.3862 13.4573Z" fill="#C61F2A"/>
<path d="M8.97896 20.9759C8.47722 20.8564 8.00123 20.7102 7.53809 20.5243C7.55095 20.4977 7.55094 20.4844 7.55094 20.4844C7.76965 20.325 7.98835 20.0593 8.20705 20.0593C8.43862 20.0593 8.55441 20.4313 8.73452 20.6173C8.82457 20.7102 8.94036 20.8032 8.97896 20.9759Z" fill="#C61F2A"/>
<path d="M8.16926 16.6189C7.97628 16.765 7.82191 16.8846 7.66753 17.0041C7.42309 17.1901 7.43596 17.1901 7.33304 16.8978C7.26872 16.7384 7.32019 16.6853 7.4617 16.672C7.68041 16.6588 7.89909 16.6455 8.16926 16.6189Z" fill="#C61F2A"/>
</svg>
