<svg width="23" height="22" viewBox="0 0 23 22" fill="none" xmlns="http://www.w3.org/2000/svg">
<path d="M10.4716 14.245L8.43659 16.28C8.00759 16.709 7.32559 16.709 6.88559 16.291C6.76459 16.17 6.64359 16.06 6.52259 15.939C5.38959 14.795 4.36659 13.596 3.4536 12.342C2.5516 11.088 1.8256 9.83398 1.2976 8.59098C0.780601 7.33699 0.516602 6.13799 0.516602 4.99399C0.516602 4.24599 0.648601 3.53099 0.912601 2.87099C1.1766 2.2 1.5946 1.584 2.1776 1.034C2.8816 0.340999 3.6516 0 4.46559 0C4.77359 0 5.08159 0.0659999 5.35659 0.198C5.64259 0.329999 5.89559 0.527999 6.09359 0.813998L8.64559 4.41099C8.84359 4.68599 8.98659 4.93899 9.08559 5.18099C9.18459 5.41199 9.23959 5.64299 9.23959 5.85199C9.23959 6.11599 9.16259 6.37999 9.00859 6.63299C8.86559 6.88599 8.65659 7.14999 8.39259 7.41399L7.55659 8.28298C7.43559 8.40398 7.38059 8.54698 7.38059 8.72298C7.38059 8.81098 7.39159 8.88798 7.41359 8.97598C7.44659 9.06398 7.47959 9.12998 7.50159 9.19598C7.69959 9.55898 8.04059 10.032 8.52459 10.604C9.01959 11.176 9.54758 11.759 10.1196 12.342C10.2296 12.452 10.3506 12.562 10.4606 12.672C10.9006 13.101 10.9116 13.805 10.4716 14.245Z" fill="#C61F2A"/>
<path d="M22.4834 17.963C22.4834 18.271 22.4284 18.59 22.3184 18.898C22.2854 18.986 22.2524 19.074 22.2084 19.162C22.0214 19.558 21.7794 19.932 21.4604 20.284C20.9214 20.878 20.3274 21.307 19.6564 21.582C19.6454 21.582 19.6344 21.593 19.6234 21.593C18.9744 21.857 18.2704 22 17.5114 22C16.3895 22 15.1905 21.736 13.9255 21.197C12.6605 20.658 11.3955 19.932 10.1415 19.019C9.71246 18.7 9.28346 18.381 8.87646 18.04L12.4735 14.443C12.7815 14.674 13.0565 14.85 13.2875 14.971C13.3425 14.993 13.4085 15.026 13.4855 15.059C13.5735 15.092 13.6615 15.103 13.7605 15.103C13.9475 15.103 14.0905 15.037 14.2115 14.916L15.0475 14.091C15.3225 13.816 15.5865 13.607 15.8395 13.475C16.0925 13.321 16.3454 13.244 16.6204 13.244C16.8294 13.244 17.0494 13.288 17.2914 13.387C17.5334 13.486 17.7864 13.629 18.0614 13.816L21.7024 16.401C21.9884 16.599 22.1864 16.83 22.3074 17.105C22.4174 17.38 22.4834 17.655 22.4834 17.963Z" fill="#C61F2A"/>
</svg>
