<svg width="13" height="23" viewBox="0 0 13 23" fill="none" xmlns="http://www.w3.org/2000/svg">
<path d="M3.24966 13.3461C2.30367 13.3461 1.35768 13.3461 0.402508 13.3461C0.273927 13.3461 0.136159 13.356 0.0626843 13.2073C-0.0199749 13.0486 0.0810586 12.9395 0.154533 12.8304C2.88229 8.73489 5.61004 4.64931 8.33779 0.55379C8.42963 0.414958 8.52148 0.276125 8.69598 0.365373C8.88885 0.464539 8.83374 0.643038 8.78782 0.801703C8.07144 3.48908 7.35507 6.16654 6.63869 8.85391C6.53766 9.25057 6.58358 9.31999 6.96014 9.31999C8.79701 9.31999 10.6247 9.31999 12.4616 9.31999C12.5167 9.31999 12.5626 9.31999 12.6177 9.31999C12.7463 9.31999 12.8657 9.32989 12.9392 9.45881C13.0126 9.59764 12.93 9.70674 12.8565 9.81582C12.1309 10.9066 11.4054 11.9875 10.6798 13.0783C8.67761 16.0731 6.6846 19.0679 4.68241 22.0726C4.65486 22.1222 4.61812 22.1619 4.59057 22.2115C4.50791 22.3404 4.38852 22.3701 4.26912 22.3007C4.15891 22.2313 4.14054 22.1222 4.17728 21.9834C4.38852 21.2099 4.59057 20.4364 4.79263 19.6728C5.31614 17.7193 5.83965 15.7657 6.35397 13.8022C6.44582 13.4453 6.38152 13.356 6.0417 13.356C5.12327 13.3461 4.18646 13.3461 3.24966 13.3461Z" fill="#C61F2A"/>
</svg>
