<svg width="25" height="22" viewBox="0 0 25 22" fill="none" xmlns="http://www.w3.org/2000/svg">
<path d="M19.33 4.86499C14.7713 4.86499 10.1987 4.86499 5.64003 4.86499C5.41765 4.86499 5.37598 4.92239 5.37598 5.15201C5.38988 7.56296 5.37598 9.98826 5.37598 12.3992V19.5029C5.37598 20.938 6.40445 21.9999 7.7943 21.9999H17.1758C18.5656 21.9999 19.5941 20.938 19.5941 19.5029C19.5941 14.7097 19.5941 9.93086 19.608 5.13766C19.608 4.93675 19.5524 4.86499 19.33 4.86499ZM17.3981 12.9732H15.4941V14.0496H17.3981V15.0254H15.4941V16.9771H13.8262C13.576 16.5036 13.1869 15.786 12.7977 15.0254H11.1716V16.9771H9.87906V15.0254H7.7804V14.0496H9.87906V12.9732H7.7804V11.9974H9.87906V10.2322H11.6303C11.8944 10.7345 12.2418 11.3659 12.5893 11.9974H14.2015V10.2322H15.4801V11.9974H17.3842V12.9732H17.3981ZM14.2015 15.0254C14.2293 15.0972 14.2571 15.1546 14.2849 15.212H14.2988C14.2988 15.1546 14.2849 15.0828 14.2849 15.0254H14.2015ZM14.2293 12.9732H13.1313C13.3398 13.3464 13.5344 13.7195 13.7011 14.0496H14.2293C14.2293 13.7051 14.2293 13.3464 14.2293 12.9732ZM11.1716 12.9732C11.1855 13.3033 11.1855 13.6764 11.1855 14.0496H12.2974C12.1028 13.6764 11.9082 13.3033 11.7415 12.9732H11.1716ZM11.1438 11.7391H11.1299C11.1299 11.8108 11.1438 11.8969 11.1438 11.9974H11.255C11.2133 11.8826 11.1716 11.7965 11.1438 11.7391Z" fill="#C61F2A"/>
<path d="M3.61087 9.42853C1.81797 8.56748 0.789494 7.20415 0.664407 5.19502C0.525423 2.81278 1.98474 0.746249 4.2085 0.143512C4.55596 0.0430559 4.91733 0 5.27869 0C10.0876 0 14.8964 0 19.7192 0C21.929 0 23.9165 1.77951 24.2779 4.0326C24.6392 6.35744 23.5135 8.51008 21.4843 9.38548C21.4704 9.38548 21.4426 9.38548 21.4009 9.39983C21.4009 9.31373 21.4009 9.24197 21.4009 9.15587C21.4009 7.79253 21.4009 6.4292 21.4009 5.05151C21.4009 4.47748 21.2202 3.98955 20.9006 3.53032C20.6921 3.2146 20.3446 3.12849 19.9972 3.08544C19.8026 3.05674 19.608 3.05674 19.4134 3.05674C14.813 3.05674 10.2126 3.05674 5.61226 3.05674C5.37598 3.05674 5.1536 3.05674 4.93122 3.12849C3.97223 3.41551 3.62477 3.87474 3.62477 4.90801C3.62477 6.30004 3.62477 7.67772 3.62477 9.06976C3.61087 9.17021 3.61087 9.27067 3.61087 9.42853Z" fill="#C61F2A"/>
</svg>
