<svg width="41" height="40" viewBox="0 0 41 40" fill="none" xmlns="http://www.w3.org/2000/svg">
<circle cx="20.75" cy="20" r="20" fill="#C61F2A" fill-opacity="0.1"/>
<path fill-rule="evenodd" clip-rule="evenodd" d="M15.25 24.5C14.0074 24.5 13 23.4926 13 22.25V16.25C13 15.0074 14.0074 14 15.25 14H25.75C26.9926 14 28 15.0074 28 16.25V22.25C28 23.4926 26.9926 24.5 25.75 24.5H22.75C23.1642 24.5 23.5 24.8358 23.5 25.25C23.5 25.6642 23.1642 26 22.75 26H18.25C17.8358 26 17.5 25.6642 17.5 25.25C17.5 24.8358 17.8358 24.5 18.25 24.5H15.25Z" fill="#C61F2A"/>
</svg>
