<svg width="21" height="22" viewBox="0 0 21 22" fill="none" xmlns="http://www.w3.org/2000/svg">
<path d="M17.3212 5.49595C16.0071 5.49595 14.6811 5.49595 13.367 5.49595H13.1162C13.1162 5.45895 13.1162 5.43428 13.1281 5.42195C13.152 5.36027 13.1878 5.32325 13.2117 5.28624C13.9882 3.96641 14.7647 2.64659 15.5412 1.32676C15.6965 1.08006 15.7801 0.821008 15.6846 0.537306C15.5771 0.228933 15.374 0.0439192 15.0514 0.00691453C14.7408 -0.0300901 14.478 0.0809223 14.3108 0.35229C13.9763 0.90736 13.6418 1.47478 13.3073 2.02985C12.6622 3.11532 12.0171 4.20079 11.384 5.29859C11.3482 5.34793 11.3243 5.39728 11.2884 5.42195C11.2167 5.48362 11.1331 5.50826 11.0256 5.50826C10.5478 5.49593 10.058 5.49593 9.58015 5.50826C9.47263 5.50826 9.40096 5.4836 9.34123 5.43426C9.30539 5.39725 9.28149 5.37259 9.2576 5.32325C8.31387 3.70738 7.35818 2.10386 6.41444 0.487993C6.23525 0.179621 6.00829 -0.0177552 5.66186 0.00691453C5.06455 0.0439192 4.74201 0.673012 5.04066 1.21575C5.32736 1.74615 5.6499 2.25185 5.94855 2.76992C6.45028 3.62102 6.95203 4.45979 7.45376 5.3109C7.47765 5.34791 7.50155 5.38492 7.51349 5.43426C7.52544 5.44659 7.53737 5.47127 7.53737 5.48361C7.45375 5.53295 7.37013 5.50826 7.29845 5.50826C6.09191 5.50826 4.88536 5.50826 3.67881 5.50826C1.94664 5.86597 0.644531 7.44485 0.644531 9.33208V18.0899C0.644531 20.2485 2.34086 22 4.43142 22H16.5686C18.6591 22 20.3555 20.2485 20.3555 18.0899V9.33208C20.3555 7.43251 19.0533 5.85367 17.3212 5.49595ZM10.0341 12.1444H8.2183V17.3128H6.34277V12.1444H4.51503V10.7136H10.0341V12.1444ZM14.9559 17.3128H12.7458L10.5597 10.7136H12.5547L13.3431 13.5506C13.594 14.4264 13.7374 15.0432 13.8807 15.7832H13.9046C14.0241 15.0925 14.1913 14.4881 14.4541 13.5753L15.2664 10.7259H17.1898L14.9559 17.3128Z" fill="#C61F2A"/>
</svg>
