<svg width="22" height="23" viewBox="0 0 22 23" fill="none" xmlns="http://www.w3.org/2000/svg">
<path d="M0.33252 15.5765C0.445253 15.271 0.614342 14.9945 0.938449 14.8927C1.57257 14.7035 2.27717 14.98 2.27717 15.8821C2.27717 17.148 2.27717 18.4139 2.27717 19.6797C2.27717 19.8107 2.27716 19.9562 2.30534 20.0871C2.38989 20.5237 2.72808 20.8147 3.17901 20.8147C4.46135 20.8292 5.7296 20.8147 7.01194 20.8147C7.15286 20.8147 7.29378 20.8292 7.42061 20.8583C7.88563 20.9893 8.13927 21.4258 8.06881 21.9932C8.02654 22.4443 7.66016 22.8081 7.19514 22.8081C5.80007 22.8081 4.39089 22.8372 2.99582 22.8081C1.71348 22.779 0.61435 21.7313 0.374793 20.3927C0.360701 20.3491 0.374794 20.3054 0.33252 20.2763C0.33252 18.734 0.33252 17.1625 0.33252 15.5765Z" fill="#C61F2A"/>
<path d="M7.32196 0.83728C7.7588 0.968233 8.04063 1.24468 8.06881 1.73939C8.11109 2.43781 7.73061 2.84523 7.05421 2.85978C5.81415 2.85978 4.58817 2.85978 3.34811 2.85978C3.22128 2.85978 3.08037 2.85976 2.95354 2.88886C2.53079 2.99071 2.26307 3.32538 2.26307 3.80554C2.26307 5.11507 2.26307 6.4246 2.26307 7.73413C2.26307 7.89418 2.24896 8.05425 2.20669 8.19975C2.09395 8.59261 1.78394 8.82542 1.37529 8.83997C0.896171 8.86907 0.557968 8.66537 0.402961 8.27251C0.374777 8.21431 0.388886 8.14154 0.33252 8.09789C0.33252 6.52645 0.33252 4.94046 0.33252 3.36903C0.431161 2.36505 0.966641 1.6521 1.78396 1.15739C2.09397 0.968235 2.41807 0.837264 2.78445 0.866365C2.85491 0.851815 2.92536 0.895482 2.99582 0.83728C4.43316 0.83728 5.88461 0.83728 7.32196 0.83728Z" fill="#C61F2A"/>
<path d="M19.2013 0.880914C20.2863 0.982766 21.301 1.91398 21.5687 3.07801C21.611 3.26716 21.6533 3.45632 21.6533 3.64547C21.6533 5.0714 21.6533 6.49734 21.6533 7.92328C21.6533 8.38889 21.3291 8.7672 20.8923 8.83995C20.3427 8.92726 19.9059 8.6799 19.765 8.19974C19.7227 8.05423 19.7086 7.89417 19.7086 7.73411C19.7086 6.42458 19.7086 5.11506 19.7086 3.80553C19.7086 3.32536 19.455 2.9907 19.0181 2.88885C18.8913 2.85975 18.7503 2.85976 18.6235 2.85976C17.3835 2.85976 16.1575 2.85976 14.9175 2.85976C14.3115 2.85976 13.931 2.496 13.9029 1.94308C13.8747 1.36107 14.086 1.07006 14.6497 0.851807C16.0871 0.851807 17.5385 0.851807 18.9758 0.851807C19.0463 0.895458 19.1308 0.837263 19.2013 0.880914Z" fill="#C61F2A"/>
<path d="M7.11039 4.83862C7.74452 4.83862 8.39271 4.83862 9.02683 4.83862C9.66096 4.83862 10.0274 5.23148 10.0274 5.88625C10.0274 7.19578 10.0274 8.50531 10.0274 9.81484C10.0274 10.4551 9.64687 10.8479 9.02683 10.8479C7.7445 10.8479 6.46218 10.8479 5.17985 10.8479C4.57391 10.8479 4.20752 10.4551 4.20752 9.81484C4.20752 8.49076 4.20752 7.16668 4.20752 5.8426C4.20752 5.23149 4.588 4.83862 5.17985 4.83862C5.81397 4.83862 6.46218 4.83862 7.11039 4.83862Z" fill="#C61F2A"/>
<path d="M14.8608 4.83854C15.4949 4.83854 16.1431 4.83854 16.7773 4.83854C17.3973 4.83854 17.7778 5.21684 17.7778 5.85706C17.7778 7.18114 17.7778 8.50522 17.7778 9.8293C17.7778 10.4404 17.3973 10.8478 16.8055 10.8478C15.509 10.8478 14.2267 10.8478 12.9303 10.8478C12.3243 10.8478 11.9438 10.4404 11.9438 9.81476C11.9438 8.49067 11.9438 7.18114 11.9438 5.85706C11.9438 5.21684 12.3243 4.82397 12.9443 4.82397C13.5785 4.83852 14.2267 4.83854 14.8608 4.83854Z" fill="#C61F2A"/>
<path d="M4.20752 15.8096C4.20752 15.1548 4.20752 14.5001 4.20752 13.8599C4.20752 13.2197 4.58798 12.8268 5.20801 12.8268C6.49035 12.8268 7.7586 12.8268 9.04094 12.8268C9.66097 12.8268 10.0414 13.2197 10.0414 13.8599C10.0414 15.1694 10.0414 16.4789 10.0414 17.7885C10.0414 18.4432 9.66097 18.8361 9.04094 18.8361C7.7586 18.8361 6.49035 18.8361 5.20801 18.8361C4.58798 18.8361 4.22162 18.4432 4.22162 17.803C4.20753 17.1482 4.20752 16.4789 4.20752 15.8096Z" fill="#C61F2A"/>
<path d="M21.6537 17.9193C21.6537 18.5886 21.6537 19.2579 21.6537 19.9127C21.6396 21.5278 20.3855 22.8228 18.8213 22.8373C17.5108 22.8373 16.2002 22.8373 14.8897 22.8373C14.2838 22.8373 13.9033 22.459 13.9033 21.8479C13.9033 21.2368 14.2697 20.8293 14.8897 20.8293C15.8761 20.8148 16.8625 20.8293 17.849 20.8293C18.1308 20.8293 18.4126 20.8293 18.7086 20.8293C19.3709 20.8293 19.7232 20.4801 19.7232 19.7817C19.7232 18.4867 19.7232 17.1918 19.7232 15.8968C19.7232 15.3584 19.9486 15.0092 20.3854 14.8783C21.0759 14.66 21.6678 15.1111 21.6678 15.8531C21.6537 16.5515 21.6537 17.2354 21.6537 17.9193Z" fill="#C61F2A"/>
<path d="M15.3406 18.8504C14.8615 18.8504 14.3824 18.8504 13.9033 18.8504C13.3115 18.8504 12.931 18.4575 12.9169 17.861C12.9028 17.279 13.2833 16.8425 13.861 16.8425C14.8475 16.8279 15.8479 16.8279 16.8344 16.8425C17.4262 16.857 17.7785 17.279 17.7644 17.8901C17.7503 18.4721 17.3698 18.8504 16.778 18.8504C16.313 18.8504 15.8198 18.8504 15.3406 18.8504Z" fill="#C61F2A"/>
<path d="M16.3128 14.8346C16.0873 14.8346 15.8618 14.8637 15.6505 14.8346C15.1572 14.7618 14.8613 14.3835 14.8613 13.8597C14.8613 13.3213 15.1291 12.9285 15.6364 12.8557C16.1014 12.783 16.5805 12.783 17.0455 12.8703C17.5528 12.9576 17.8206 13.3941 17.7783 13.9761C17.736 14.4708 17.3696 14.82 16.8905 14.8491C16.6932 14.8491 16.51 14.8491 16.3128 14.8346Z" fill="#C61F2A"/>
<path d="M13.8883 14.3401C13.8883 14.5584 13.9024 14.7912 13.8883 15.0094C13.832 15.5187 13.4797 15.8388 13.0005 15.8534C12.4369 15.8679 12.0564 15.606 11.9859 15.0677C11.9155 14.5875 11.9155 14.0928 11.9859 13.6126C12.0705 13.0888 12.4933 12.7978 13.0288 12.8415C13.522 12.8851 13.8743 13.2489 13.9024 13.7581C13.9024 13.9473 13.9024 14.1364 13.8883 14.3401C13.9024 14.3401 13.9024 14.3401 13.8883 14.3401Z" fill="#C61F2A"/>
<path d="M7.12477 8.83993C6.85703 8.83993 6.58928 8.83993 6.32153 8.83993C6.2088 8.83993 6.1665 8.82537 6.1665 8.69442C6.1806 8.12696 6.1665 7.55949 6.1665 7.00657C6.1665 6.87562 6.2088 6.86108 6.32153 6.86108C6.85702 6.86108 7.40658 6.86108 7.94206 6.86108C8.0548 6.86108 8.09709 6.87562 8.09709 7.00657C8.083 7.57404 8.09709 8.14151 8.09709 8.69442C8.09709 8.82537 8.0548 8.85448 7.94206 8.83993C7.66023 8.82538 7.39251 8.83993 7.12477 8.83993Z" fill="#C61F2A"/>
<path d="M13.9033 7.82145C13.9033 7.54499 13.9033 7.28307 13.9033 7.00661C13.9033 6.89021 13.9173 6.84656 14.0441 6.84656C14.5937 6.86111 15.1433 6.84656 15.6788 6.84656C15.8056 6.84656 15.8197 6.89021 15.8197 7.00661C15.8197 7.55953 15.8056 8.127 15.8197 8.67992C15.8197 8.82542 15.7774 8.83997 15.6506 8.83997C15.1151 8.83997 14.5796 8.82542 14.0583 8.83997C13.9173 8.83997 13.8892 8.7963 13.8892 8.66535C13.9033 8.37434 13.9033 8.09791 13.9033 7.82145Z" fill="#C61F2A"/>
<path d="M8.08299 15.8678C8.08299 16.1442 8.08299 16.4061 8.08299 16.6826C8.08299 16.799 8.06889 16.8427 7.94206 16.8427C7.39249 16.8281 6.84291 16.8427 6.30743 16.8427C6.1806 16.8427 6.1665 16.799 6.1665 16.6826C6.1665 16.1297 6.1665 15.5622 6.1665 15.0093C6.1665 14.8929 6.1806 14.8492 6.30743 14.8492C6.857 14.8638 7.40658 14.8638 7.94206 14.8492C8.06889 14.8492 8.08299 14.8929 8.08299 15.0093C8.0689 15.2858 8.08299 15.5768 8.08299 15.8678Z" fill="#C61F2A"/>
<path d="M16.6369 5.84241H13.5508V9.26173H16.6369V5.84241Z" fill="#C61F2A"/>
<path d="M8.63343 5.84241H5.54736V9.26173H8.63343V5.84241Z" fill="#C61F2A"/>
<path d="M8.85853 13.8743H5.77246V17.2936H8.85853V13.8743Z" fill="#C61F2A"/>
</svg>
