<svg width="23" height="22" viewBox="0 0 23 22" fill="none" xmlns="http://www.w3.org/2000/svg">
<path d="M5.89682 6.98585C5.87324 7.65553 5.4959 8.05732 4.84734 8.08167C4.13982 8.10602 3.70352 7.7164 3.67994 6.9615C3.64456 6.18225 4.16341 5.90221 4.67047 5.7561C5.50769 5.84133 5.92041 6.24313 5.89682 6.98585Z" fill="#C61F2A"/>
<path d="M19.3278 6.90056C19.3632 7.67982 18.8443 7.95986 18.3255 8.11815C17.5118 8.00856 17.0637 7.65545 17.0991 6.88838C17.1345 6.14565 17.5708 5.75602 18.2783 5.78037C18.9505 5.8169 19.3042 6.24307 19.3278 6.90056Z" fill="#C61F2A"/>
<path d="M22.1226 2.286C22.1108 0.739675 21.4033 0.00913187 19.8939 0.00913187C14.3045 -0.00304396 8.71514 -0.00304396 3.11395 0.00913187C1.60458 0.00913187 0.885271 0.739682 0.873479 2.27384C0.849896 5.35432 0.861688 8.4348 0.873479 11.5153C0.885271 13.1468 1.56921 13.853 3.17291 13.8652C5.92044 13.8774 8.66797 13.8652 11.4273 13.8652C14.2692 13.8652 17.111 13.8774 19.9529 13.853C21.3797 13.8409 22.1108 13.1103 22.1226 11.6614C22.1462 8.54437 22.1462 5.41519 22.1226 2.286ZM20.4482 6.87629C20.4953 7.69207 20.4482 8.50785 20.4599 9.32363C20.4717 9.90807 20.059 10.1759 19.7996 10.5899C18.2195 13.0616 15.8847 11.8684 13.8682 12.1119C13.09 12.2093 12.2881 12.1241 11.498 12.1241C9.87075 12.1241 8.16092 11.8075 6.62796 12.2093C4.59974 12.7329 4.01014 10.7604 2.61869 10.3099C2.61869 8.05734 2.63048 5.80483 2.63048 3.5523C4.02194 3.07744 4.64691 1.42153 6.63976 1.62852C10.2835 2.01814 13.9862 1.75028 17.6652 1.72593C18.302 1.72593 18.8562 1.70157 18.9624 2.55387C18.9742 2.6391 19.0449 2.76087 19.1157 2.78522C21.0731 3.61317 20.3538 5.39084 20.4482 6.87629Z" fill="#C61F2A"/>
<path d="M10.6728 18.8209C10.6728 17.7251 10.6728 16.8606 10.6728 15.9961C10.6728 15.436 10.8732 15.0586 11.4628 15.0343C12.1232 15.0099 12.359 15.4117 12.359 16.0327C12.359 16.8972 12.359 17.7495 12.359 18.6748C12.5241 18.614 12.6656 18.6018 12.7482 18.5287C13.2316 18.0417 13.7741 17.5059 14.3872 18.2121C14.9886 18.9062 14.3872 19.4297 13.9156 19.9046C11.227 22.6198 11.852 22.7172 9.3049 20.075C8.80963 19.5637 7.93703 19.0401 8.67992 18.2C9.39923 17.3477 9.94167 18.3217 10.6728 18.8209Z" fill="#C61F2A"/>
<path d="M5.89682 6.98585C5.87324 7.65553 5.4959 8.05732 4.84734 8.08167C4.13982 8.10602 3.70352 7.7164 3.67994 6.9615C3.64456 6.18225 4.16341 5.90221 4.67047 5.7561C5.50769 5.84133 5.92041 6.24313 5.89682 6.98585Z" fill="#C61F2A"/>
<path d="M19.3278 6.90056C19.3632 7.67982 18.8443 7.95986 18.3255 8.11815C17.5118 8.00856 17.0637 7.65545 17.0991 6.88838C17.1345 6.14565 17.5708 5.75602 18.2783 5.78037C18.9505 5.8169 19.3042 6.24307 19.3278 6.90056Z" fill="#C61F2A"/>
<path d="M5.89682 6.98585C5.87324 7.65553 5.4959 8.05732 4.84734 8.08167C4.13982 8.10602 3.70352 7.7164 3.67994 6.9615C3.64456 6.18225 4.16341 5.90221 4.67047 5.7561C5.50769 5.84133 5.92041 6.24313 5.89682 6.98585Z" fill="#C61F2A"/>
<path d="M19.3278 6.90056C19.3632 7.67982 18.8443 7.95986 18.3255 8.11815C17.5118 8.00856 17.0637 7.65545 17.0991 6.88838C17.1345 6.14565 17.5708 5.75602 18.2783 5.78037C18.9505 5.8169 19.3042 6.24307 19.3278 6.90056Z" fill="#C61F2A"/>
<path d="M9.38721 9.72543V4.38025H10.7787C11.4272 5.58566 12.6182 7.75295 12.8658 8.33739H12.8776C12.8187 7.7773 12.8187 6.85194 12.8187 5.97528V4.39242H13.8328V9.7376H12.5121C11.9578 8.69048 10.6254 6.20663 10.3777 5.58566H10.3659C10.4013 6.04834 10.4131 7.15633 10.4131 8.10605V9.7376H9.38721V9.72543Z" fill="#C61F2A"/>
<path d="M14.6584 5.76819H8.57373V6.54744H14.6584V5.76819Z" fill="#C61F2A"/>
<path d="M14.6584 7.39978H8.57373V8.17903H14.6584V7.39978Z" fill="#C61F2A"/>
</svg>
