<svg width="24" height="23" viewBox="0 0 24 23" fill="none" xmlns="http://www.w3.org/2000/svg">
<path d="M16.8244 0.962123L6.30166 4.45806C-0.771779 6.82364 -0.771779 10.6808 6.30166 13.0348L9.4247 14.0719L10.4618 17.1949C12.8158 24.2684 16.6846 24.2684 19.0385 17.1949L22.5461 6.6838C24.1076 1.96429 21.5439 -0.611048 16.8244 0.962123ZM17.1973 7.2315L12.7691 11.683C12.5943 11.8578 12.3729 11.9394 12.1515 11.9394C11.9301 11.9394 11.7087 11.8578 11.5339 11.683C11.196 11.3451 11.196 10.7857 11.5339 10.4478L15.9621 5.99627C16.3 5.65833 16.8594 5.65833 17.1973 5.99627C17.5353 6.33421 17.5353 6.89356 17.1973 7.2315Z" fill="#C61F2A"/>
</svg>
