<svg width="41" height="40" viewBox="0 0 41 40" fill="none" xmlns="http://www.w3.org/2000/svg">
<circle cx="20.75" cy="20" r="20" fill="#C61F2A" fill-opacity="0.1"/>
<path d="M13.0424 24.1299C13.2845 24.5646 13.5266 24.9776 13.8108 25.3471C13.8844 25.4341 13.8213 25.4993 13.7897 25.5754C13.6003 26.0101 13.4318 26.4557 13.3476 26.9339C13.2319 27.586 13.3476 27.7165 13.9792 27.6187C14.4739 27.5426 14.937 27.3252 15.3791 27.097C16.8317 26.347 18.1264 25.3471 19.3579 24.2711C21.842 22.0974 24.063 19.6738 25.9261 16.9132C26.5997 15.9132 27.2208 14.8699 27.6207 13.707C27.726 13.4135 27.8102 13.1092 27.8207 12.794C27.8313 12.3918 27.7155 12.2832 27.3155 12.3375C26.9471 12.3919 26.5681 12.4679 26.2629 12.6636C25.8313 12.9461 25.484 12.8918 25.1156 12.5549C24.9156 12.381 24.663 12.2723 24.4103 12.1201C25.3787 11.5876 26.3155 11.0333 27.4418 11.0007C28.3155 10.9789 28.9681 11.4898 29.1049 12.294C29.1891 12.8375 29.1049 13.37 28.947 13.8917C28.5786 15.1416 27.9365 16.2611 27.2313 17.337C25.4314 20.1085 23.2525 22.5322 20.8316 24.7385C19.4948 25.9558 18.0843 27.0861 16.5264 27.9882C15.7791 28.4229 15.0107 28.8033 14.1476 28.9555C13.7897 29.0207 13.4424 29.0207 13.0845 28.912C12.3372 28.6729 11.9266 27.923 12.0108 27.0426C12.1056 26.0862 12.5477 25.0428 13.0424 24.1299Z" fill="#C61F2A"/>
<path d="M14.4635 20.2172C15.0634 20.2172 15.6529 20.2172 16.2529 20.2172C16.3792 20.2172 16.4213 20.2389 16.4213 20.3911C16.4423 21.6518 16.5897 22.8908 16.8949 24.0973C16.9371 24.2494 16.9055 24.3037 16.7581 24.3146C15.8739 24.4342 15.0003 24.6189 14.1372 24.8363C14.0214 24.8689 13.9793 24.8254 13.9266 24.7493C13.2635 23.7603 12.8214 22.6626 12.6214 21.4779C12.5583 21.1193 12.5477 20.7497 12.4951 20.3802C12.4741 20.2389 12.5162 20.2063 12.653 20.2063C13.253 20.2172 13.853 20.2172 14.4635 20.2172Z" fill="#C61F2A"/>
<path d="M27.1681 20.2172C27.6102 20.2172 28.0523 20.2172 28.5049 20.2172C28.5997 20.2172 28.6628 20.2172 28.6523 20.3585C28.5576 21.9453 28.1049 23.4125 27.2313 24.7276C27.1576 24.8363 27.0944 24.858 26.9681 24.8254C26.1155 24.6081 25.2524 24.4342 24.3893 24.3146C24.2525 24.2929 24.1998 24.2603 24.2419 24.0973C24.4419 23.3147 24.5788 22.5213 24.6419 21.7062C24.6525 21.5214 24.7261 21.3692 24.8524 21.2279C25.1051 20.9454 25.3472 20.641 25.5892 20.3367C25.6629 20.2389 25.7471 20.2063 25.8629 20.2063C26.2945 20.2172 26.7366 20.2172 27.1681 20.2172Z" fill="#C61F2A"/>
<path d="M20.7891 17.859C20.7891 17.283 20.7891 16.7069 20.7891 16.12C20.7891 15.9896 20.8206 15.957 20.947 15.957C21.8522 15.9244 22.7469 15.881 23.6416 15.7723C23.7468 15.7614 23.7679 15.794 23.7889 15.881C23.9995 16.707 24.1468 17.5438 24.21 18.4024C24.2205 18.5003 24.1889 18.5546 24.1258 18.6198C23.8416 18.9676 23.5468 19.3154 23.2732 19.6741C23.21 19.7502 23.1469 19.7719 23.0521 19.7719C22.3574 19.7719 21.6522 19.761 20.9575 19.7719C20.8206 19.7719 20.7891 19.7284 20.7891 19.598C20.7891 19.0111 20.7891 18.4351 20.7891 17.859Z" fill="#C61F2A"/>
<path d="M18.5996 20.2175C19.1259 20.2175 19.6628 20.2175 20.1891 20.2175C20.3154 20.2175 20.3469 20.2501 20.3469 20.3806C20.3364 21.1196 20.3469 21.8695 20.3469 22.6086C20.3469 22.7173 20.3154 22.7825 20.2312 22.8586C19.8101 23.2281 19.3996 23.6085 18.9891 23.9889C18.9049 24.065 18.8207 24.0976 18.7154 24.0976C18.3154 24.1302 17.9155 24.1519 17.526 24.2063C17.4102 24.2171 17.3786 24.1845 17.3471 24.0867C17.1892 23.4455 17.0629 22.8042 16.9787 22.1521C16.905 21.587 16.8945 21.0109 16.8524 20.4458C16.8418 20.2501 16.8945 20.2175 17.0734 20.2175C17.5892 20.2175 18.0944 20.2175 18.5996 20.2175Z" fill="#C61F2A"/>
<path d="M20.7891 11.6421C21.4838 11.8051 21.9785 12.2399 22.389 12.7833C22.9363 13.5006 23.2837 14.3157 23.5784 15.1744C23.6521 15.3809 23.4732 15.3265 23.389 15.3374C22.6416 15.4135 21.8943 15.4896 21.1469 15.4896C20.7891 15.4896 20.7891 15.5004 20.7891 15.12C20.7891 13.968 20.7891 12.8159 20.7891 11.6421Z" fill="#C61F2A"/>
<path d="M20.3466 11.6526C20.3466 12.9025 20.3466 14.1197 20.3466 15.3479C20.3466 15.4674 20.315 15.5 20.1992 15.4892C19.3676 15.4783 18.5466 15.4131 17.7151 15.337C17.5467 15.3262 17.5256 15.2718 17.5782 15.0979C17.9045 14.1632 18.3045 13.2829 18.9466 12.5329C19.3676 12.0547 19.7782 11.7939 20.3466 11.6526Z" fill="#C61F2A"/>
<path d="M20.7891 28.3259C20.7891 27.3803 20.7891 26.4347 20.7891 25.4892C20.7891 25.4022 20.8206 25.3587 20.8838 25.3044C21.1364 25.0762 21.3996 24.8371 21.6522 24.598C21.7048 24.5545 21.7469 24.511 21.8206 24.511C22.3679 24.5653 22.9258 24.6088 23.4732 24.6523C23.5574 24.6632 23.6205 24.6849 23.5784 24.8045C23.2416 25.7826 22.8311 26.7173 22.1364 27.4998C21.7259 27.9454 21.2943 28.2172 20.7891 28.3259Z" fill="#C61F2A"/>
<path d="M26.8209 25.2817C25.5999 26.7924 24.0631 27.738 22.158 28.1836C22.2737 28.0531 22.3369 27.9553 22.4211 27.8684C23.1684 27.0207 23.6421 25.999 24 24.923C24.0526 24.7708 24.0947 24.7382 24.2526 24.76C25.0736 24.8795 25.8841 25.0534 26.6841 25.2273C26.7262 25.2382 26.7683 25.2599 26.8209 25.2817Z" fill="#C61F2A"/>
<path d="M16.9474 15.6958C16.6105 16.9782 16.4421 18.2607 16.4316 19.5649C16.4316 19.7171 16.4 19.7606 16.2421 19.7606C15.0527 19.7497 13.8633 19.7606 12.6844 19.7606C12.5896 19.7606 12.4949 19.7932 12.5054 19.6193C12.6002 18.0433 13.0528 16.5978 13.9159 15.2827C13.9896 15.1632 14.0527 15.1197 14.2106 15.1523C15.0843 15.3914 16 15.5545 16.9474 15.6958Z" fill="#C61F2A"/>
<path d="M14.4106 14.7393C14.3791 14.7284 14.358 14.7175 14.3159 14.6958C15.5264 13.1959 17.0527 12.2504 18.9052 11.8591C18.8421 11.9352 18.7789 12.0222 18.7157 12.0982C17.9684 12.946 17.4842 13.9459 17.1474 15.0219C17.0948 15.1849 17.0421 15.2501 16.8527 15.2175C16.0316 15.0871 15.2211 14.9241 14.4106 14.7393Z" fill="#C61F2A"/>
<path d="M20.3586 19.5759C20.3586 19.7281 20.327 19.7607 20.1797 19.7607C19.1271 19.7498 18.085 19.7498 17.0325 19.7607C16.8851 19.7607 16.8535 19.7281 16.8535 19.5759C16.8956 18.3478 17.0325 17.1414 17.3272 15.9458C17.3588 15.8154 17.3903 15.7502 17.5693 15.7719C18.4324 15.8806 19.306 15.935 20.1797 15.9567C20.306 15.9567 20.3481 15.9893 20.3481 16.1306C20.3376 16.7066 20.3481 17.2827 20.3481 17.8696C20.3481 18.4347 20.3481 19.0108 20.3586 19.5759Z" fill="#C61F2A"/>
<path d="M22.179 11.8049C22.6105 11.8919 22.9894 12.0114 23.3684 12.1636C24.642 12.6527 25.7262 13.4243 26.6209 14.4677C26.7893 14.6633 26.7788 14.7286 26.5261 14.7829C25.7472 14.9568 24.9578 15.109 24.1683 15.2285C24.0315 15.2502 24.0315 15.1633 24.0105 15.0872C23.7263 14.2177 23.3684 13.3809 22.8316 12.6418C22.6421 12.3701 22.4211 12.1093 22.179 11.8049Z" fill="#C61F2A"/>
<path d="M26.0425 19.7602C26.7793 18.8146 27.4319 17.8691 28.0529 16.8474C28.3582 17.6299 28.5371 18.4125 28.6108 19.2167C28.6108 19.2493 28.6108 19.2928 28.6108 19.3254C28.6424 19.7493 28.6424 19.7493 28.2108 19.7493C27.5056 19.7602 26.8003 19.7602 26.0425 19.7602Z" fill="#C61F2A"/>
<path d="M14.3052 25.2715C14.8736 25.1193 15.4209 25.0106 15.9788 24.9019C16.2946 24.8476 16.6104 24.8041 16.9261 24.7498C16.9577 24.7498 16.9893 24.7172 17.0103 24.728C17.1788 24.8367 17.1472 25.0541 17.2314 25.2063C17.2629 25.2715 17.284 25.3367 17.1998 25.391C16.684 25.7606 16.1472 26.1192 15.5999 26.4344C15.5262 26.4779 15.4841 26.4561 15.4315 26.4127C15.0315 26.0757 14.6631 25.6953 14.3052 25.2715Z" fill="#C61F2A"/>
<path d="M26.4003 15.2939C25.874 16.2395 25.2845 17.0981 24.6214 17.9785C24.5477 17.4459 24.4846 16.9568 24.3793 16.4786C24.3267 16.2721 24.3056 16.0547 24.232 15.8482C24.1899 15.7178 24.2425 15.6961 24.3372 15.6852C25.0214 15.5765 25.6951 15.4461 26.4003 15.2939Z" fill="#C61F2A"/>
<path d="M20.337 28.3245C19.6528 28.1615 19.1581 27.7158 18.7371 27.1724C18.695 27.1181 18.6845 27.0855 18.7476 27.0311C19.2844 26.6399 19.8002 26.216 20.3265 25.7595C20.337 26.6399 20.337 27.4767 20.337 28.3245Z" fill="#C61F2A"/>
<path d="M20.7898 22.3148C20.7898 21.6301 20.7898 20.9997 20.7898 20.3693C20.7898 20.2932 20.7582 20.2063 20.895 20.2063C21.5055 20.2172 22.1266 20.2063 22.7792 20.2063C22.1371 20.9454 21.495 21.6301 20.7898 22.3148Z" fill="#C61F2A"/>
<path d="M24.1571 22.0105C24.0728 22.7604 23.9465 23.4234 23.7676 24.0864C23.7571 24.1299 23.7676 24.2168 23.6729 24.2059C23.1887 24.1516 22.715 24.1081 22.1887 24.0538C22.8729 23.4017 23.5045 22.7387 24.1571 22.0105Z" fill="#C61F2A"/>
<path d="M18.916 28.1616C18.5054 28.0637 18.116 27.9442 17.7371 27.792C17.7476 27.7703 17.7476 27.7594 17.7476 27.7594C17.9265 27.629 18.1055 27.4116 18.2844 27.4116C18.4739 27.4116 18.5686 27.716 18.716 27.8681C18.7896 27.9442 18.8844 28.0203 18.916 28.1616Z" fill="#C61F2A"/>
<path d="M18.253 24.5974C18.0951 24.717 17.9688 24.8148 17.8425 24.9126C17.6425 25.0648 17.653 25.0647 17.5688 24.8256C17.5162 24.6952 17.5583 24.6518 17.6741 24.6409C17.853 24.63 18.0319 24.6191 18.253 24.5974Z" fill="#C61F2A"/>
</svg>
