<svg width="21" height="22" viewBox="0 0 21 22" fill="none" xmlns="http://www.w3.org/2000/svg">
<path d="M20.3184 2.0468C19.7877 0.776113 18.5766 0.000319255 17.0933 0.000319255C14.8889 0.000319255 12.6844 0.000319255 10.4935 0.000319255C8.28907 0.000319255 6.08459 0.013695 3.89372 0.000319255C1.83894 -0.0264321 0.396503 1.63216 0.423719 3.41113C0.464542 7.35696 0.43734 11.3162 0.43734 15.262C0.43734 16.7601 1.45793 18.0441 2.92758 18.432C3.47189 18.5792 4.0162 18.5257 4.57412 18.539C5.54027 18.5524 6.37036 18.8734 7.06436 19.5422C7.64949 20.1174 8.24824 20.6925 8.83338 21.2677C9.84036 22.2441 11.1739 22.2441 12.1945 21.2677C12.7933 20.6791 13.392 20.0906 14.0044 19.5155C14.4806 19.0607 15.025 18.7531 15.6781 18.6193C16.2497 18.4989 16.8212 18.5524 17.3927 18.5257C19.1209 18.4722 20.577 17.0276 20.577 15.3289C20.577 11.2894 20.577 7.24995 20.577 3.21049C20.5634 2.80922 20.4817 2.42132 20.3184 2.0468ZM10.4663 4.14679C11.9224 4.14679 13.079 5.25697 13.0926 6.68817C13.1063 8.09262 11.936 9.24293 10.5071 9.25631C9.07832 9.25631 7.92165 8.13275 7.89444 6.71492C7.86722 5.32385 9.0375 4.16017 10.4663 4.14679ZM14.467 13.7639C14.2493 14.1786 13.8955 14.3658 13.4192 14.3524C12.4395 14.3524 11.4597 14.3524 10.4799 14.3524C9.50015 14.3524 8.5204 14.3524 7.54064 14.3524C7.06437 14.3524 6.71056 14.1786 6.49283 13.7639C6.2751 13.3493 6.32953 12.9346 6.6153 12.5601C7.35012 11.5837 8.37071 11.062 9.5682 10.8614C10.8745 10.6474 12.1129 10.848 13.2559 11.5569C13.6778 11.8244 14.0452 12.1455 14.3446 12.5467C14.6303 12.9346 14.6848 13.3493 14.467 13.7639Z" fill="#C61F2A"/>
</svg>
