<svg width="23" height="22" viewBox="0 0 23 22" fill="none" xmlns="http://www.w3.org/2000/svg">
<path d="M16.5692 7.12266C16.505 7.1135 16.4409 7.1135 16.3767 7.12266C14.9559 7.07683 13.8284 5.91266 13.8284 4.48266C13.8284 3.02516 15.0109 1.8335 16.4775 1.8335C17.935 1.8335 19.1267 3.016 19.1267 4.48266C19.1175 5.91266 17.99 7.07683 16.5692 7.12266Z" fill="#C61F2A"/>
<path d="M19.5576 13.4749C18.531 14.1624 17.0918 14.419 15.7626 14.2449C16.111 13.4932 16.2943 12.659 16.3035 11.779C16.3035 10.8624 16.1018 9.99155 15.7168 9.23071C17.0735 9.04738 18.5126 9.30405 19.5485 9.99155C20.9968 10.9449 20.9968 12.5124 19.5576 13.4749Z" fill="#C61F2A"/>
<path d="M6.40307 7.12266C6.46724 7.1135 6.5314 7.1135 6.59557 7.12266C8.0164 7.07683 9.1439 5.91266 9.1439 4.48266C9.1439 3.016 7.9614 1.8335 6.49474 1.8335C5.03724 1.8335 3.85474 3.016 3.85474 4.48266C3.85474 5.91266 4.98224 7.07683 6.40307 7.12266Z" fill="#C61F2A"/>
<path d="M6.50427 11.7792C6.50427 12.6684 6.69677 13.5117 7.04511 14.2726C5.75261 14.4101 4.40511 14.1351 3.41511 13.4842C1.96677 12.5217 1.96677 10.9542 3.41511 9.99172C4.39594 9.33172 5.78011 9.06589 7.08177 9.21255C6.70594 9.98255 6.50427 10.8534 6.50427 11.7792Z" fill="#C61F2A"/>
<path d="M11.6101 14.5475C11.5368 14.5383 11.4543 14.5383 11.3718 14.5475C9.68515 14.4925 8.33765 13.1083 8.33765 11.4033C8.34681 9.66167 9.74931 8.25 11.5001 8.25C13.2418 8.25 14.6535 9.66167 14.6535 11.4033C14.6443 13.1083 13.306 14.4925 11.6101 14.5475Z" fill="#C61F2A"/>
<path d="M8.63065 16.4447C7.24649 17.3705 7.24649 18.8922 8.63065 19.8088C10.2073 20.863 12.7923 20.863 14.369 19.8088C15.7532 18.883 15.7532 17.3613 14.369 16.4447C12.8015 15.3905 10.2165 15.3905 8.63065 16.4447Z" fill="#C61F2A"/>
</svg>
