<svg width="29" height="26" viewBox="0 0 29 26" fill="none" xmlns="http://www.w3.org/2000/svg">
<path d="M4.85995 0.333374C3.73366 0.333374 2.65351 0.78992 1.8571 1.60258C1.0607 2.41524 0.613281 3.51744 0.613281 4.66671V17.3334C0.613281 18.4826 1.0607 19.5848 1.8571 20.3975C2.65351 21.2102 3.73366 21.6667 4.85995 21.6667H13.8341C13.7319 21.2299 13.6801 20.7824 13.6799 20.3334V19.6667C13.6799 18.7827 14.0241 17.9348 14.6367 17.3097C15.2494 16.6846 16.0802 16.3334 16.9466 16.3334H18.1879C17.6014 15.7785 17.1568 15.0856 16.8931 14.3151C16.6294 13.5445 16.5545 12.7198 16.675 11.913C16.7956 11.1062 17.1078 10.3417 17.5846 9.68634C18.0613 9.03099 18.688 8.50468 19.4099 8.15338C20.1319 7.80207 20.9272 7.63645 21.7263 7.67096C22.5254 7.70547 23.3041 7.93908 23.9944 8.35138C24.6847 8.76368 25.2656 9.34214 25.6863 10.0362C26.1071 10.7304 26.3549 11.519 26.4082 12.3334H26.7466V4.66671C26.7466 4.09765 26.6368 3.53416 26.4234 3.00841C26.2099 2.48267 25.8971 2.00496 25.5028 1.60258C25.1085 1.20019 24.6403 0.881 24.1251 0.66323C23.6098 0.445459 23.0576 0.333374 22.5 0.333374H4.85995ZM26.0933 17.6667C26.6131 17.6667 27.1116 17.8774 27.4792 18.2525C27.8468 18.6276 28.0533 19.1363 28.0533 19.6667V20.3334C28.0533 22.9614 25.6229 25.6667 21.5199 25.6667C17.417 25.6667 14.9866 22.9614 14.9866 20.3334V19.6667C14.9866 19.1363 15.1931 18.6276 15.5607 18.2525C15.9283 17.8774 16.4268 17.6667 16.9466 17.6667H26.0933ZM21.5199 9.00004C22.473 9.00004 23.3869 9.38635 24.0608 10.074C24.7347 10.7616 25.1133 11.6942 25.1133 12.6667C25.1133 13.6392 24.7347 14.5718 24.0608 15.2594C23.3869 15.9471 22.473 16.3334 21.5199 16.3334C20.5669 16.3334 19.653 15.9471 18.9791 15.2594C18.3052 14.5718 17.9266 13.6392 17.9266 12.6667C17.9266 11.6942 18.3052 10.7616 18.9791 10.074C19.653 9.38635 20.5669 9.00004 21.5199 9.00004Z" fill="#6B142B"/>
</svg>
