<svg width="50" height="50" viewBox="0 0 50 50" fill="none" xmlns="http://www.w3.org/2000/svg">
<circle cx="25" cy="25" r="25" fill="#C61F2A"/>
<path fill-rule="evenodd" clip-rule="evenodd" d="M22.9163 25.0001C24.0613 25.0001 25.1081 25.4275 25.9114 26.1342C26.4004 25.9405 26.937 25.8334 27.4997 25.8334C29.8009 25.8334 31.6663 27.6243 31.6663 29.8334C31.6663 30.3857 31.2 30.8334 30.6247 30.8334H19.4788C18.846 30.8334 18.333 30.3111 18.333 29.6667C18.333 27.0894 20.385 25.0001 22.9163 25.0001ZM22.4997 19.1667C23.8804 19.1667 24.9997 20.286 24.9997 21.6667C24.9997 23.0475 23.8804 24.1667 22.4997 24.1667C21.119 24.1667 19.9997 23.0475 19.9997 21.6667C19.9997 20.286 21.119 19.1667 22.4997 19.1667ZM28.333 20.8334C29.2535 20.8334 29.9997 21.5796 29.9997 22.5001C29.9997 23.4206 29.2535 24.1667 28.333 24.1667C27.4125 24.1667 26.6663 23.4206 26.6663 22.5001C26.6663 21.5796 27.4125 20.8334 28.333 20.8334Z" fill="white"/>
</svg>
