<svg width="20" height="24" viewBox="0 0 20 24" fill="none" xmlns="http://www.w3.org/2000/svg">
<path d="M3.58317 0.333374C2.80962 0.333374 2.06776 0.640665 1.52078 1.18765C0.973795 1.73463 0.666504 2.47649 0.666504 3.25004V20.75C0.666504 21.5236 0.973795 22.2655 1.52078 22.8124C2.06776 23.3594 2.80962 23.6667 3.58317 23.6667H19.0415C19.2736 23.6667 19.4961 23.5745 19.6602 23.4104C19.8243 23.2463 19.9165 23.0238 19.9165 22.7917C19.9165 22.5596 19.8243 22.3371 19.6602 22.173C19.4961 22.0089 19.2736 21.9167 19.0415 21.9167H3.58317C3.27375 21.9167 2.97701 21.7938 2.75821 21.575C2.53942 21.3562 2.4165 21.0595 2.4165 20.75H19.0415C19.2736 20.75 19.4961 20.6579 19.6602 20.4938C19.8243 20.3297 19.9165 20.1071 19.9165 19.875V3.25004C19.9165 2.86702 19.8411 2.48775 19.6945 2.13388C19.5479 1.78001 19.3331 1.45848 19.0622 1.18765C18.7914 0.916808 18.4699 0.701968 18.116 0.555392C17.7621 0.408816 17.3829 0.333374 16.9998 0.333374H3.58317ZM14.0832 12.2917V12.875C14.0832 14.0417 12.4697 14.9167 10.2915 14.9167C8.11334 14.9167 6.49984 14.0417 6.49984 12.875V12.2917C6.49984 12.0596 6.59202 11.8371 6.75612 11.673C6.92021 11.5089 7.14277 11.4167 7.37484 11.4167H13.2082C13.4402 11.4167 13.6628 11.5089 13.8269 11.673C13.991 11.8371 14.0832 12.0596 14.0832 12.2917ZM12.3332 8.20254C12.3332 8.74403 12.1181 9.26333 11.7352 9.64622C11.3523 10.0291 10.833 10.2442 10.2915 10.2442C9.75002 10.2442 9.23071 10.0291 8.84783 9.64622C8.46494 9.26333 8.24984 8.74403 8.24984 8.20254C8.24984 7.07671 9.16334 6.16671 10.2915 6.16671C11.4197 6.16671 12.3332 7.07554 12.3332 8.20254Z" fill="#6B142B"/>
</svg>
