<svg width="22" height="22" viewBox="0 0 22 22" fill="none" xmlns="http://www.w3.org/2000/svg">
<g opacity="0.5">
<path d="M11.0002 1.83325C8.5985 1.83325 6.646 3.78575 6.646 6.18742C6.646 8.54325 8.4885 10.4499 10.8902 10.5324C10.9635 10.5233 11.0368 10.5233 11.0918 10.5324C11.1102 10.5324 11.1193 10.5324 11.1377 10.5324C11.1468 10.5324 11.1468 10.5324 11.156 10.5324C13.5027 10.4499 15.3452 8.54325 15.3543 6.18742C15.3543 3.78575 13.4018 1.83325 11.0002 1.83325Z" fill="#576275"/>
<path d="M15.6569 12.9799C13.0994 11.2749 8.92854 11.2749 6.35271 12.9799C5.18854 13.7499 4.54688 14.8041 4.54688 15.9316C4.54688 17.0591 5.18854 18.1041 6.34354 18.8741C7.62688 19.7358 9.31354 20.1666 11.0002 20.1666C12.6869 20.1666 14.3735 19.7358 15.6569 18.8741C16.8119 18.0949 17.4535 17.0499 17.4535 15.9133C17.4444 14.7949 16.8119 13.7408 15.6569 12.9799ZM12.6777 16.5641H9.33188C8.98354 16.5641 8.69937 16.2799 8.69937 15.9316C8.69937 15.5833 8.98354 15.2991 9.33188 15.2991H12.6777C13.026 15.2991 13.3102 15.5833 13.3102 15.9316C13.3102 16.2799 13.026 16.5641 12.6777 16.5641Z" fill="#576275"/>
</g>
</svg>
