<svg width="50" height="50" viewBox="0 0 50 50" fill="none" xmlns="http://www.w3.org/2000/svg">
<path d="M37.583 28.2291C36.708 29.0832 36.208 30.3124 36.333 31.6249C36.5205 33.8749 38.583 35.5207 40.833 35.5207H44.7913V37.9999C44.7913 42.3124 41.2705 45.8333 36.958 45.8333H13.0413C8.72884 45.8333 5.20801 42.3124 5.20801 37.9999V23.9791C5.20801 19.6666 8.72884 16.1458 13.0413 16.1458H36.958C41.2705 16.1458 44.7913 19.6666 44.7913 23.9791V26.9791H40.583C39.4163 26.9791 38.3538 27.4374 37.583 28.2291Z" stroke="#292D32" stroke-width="1.5" stroke-linecap="round" stroke-linejoin="round"/>
<path d="M5.20801 25.8541V16.3334C5.20801 13.8542 6.72884 11.6458 9.04134 10.7708L25.583 4.52078C28.1663 3.54161 30.9372 5.45834 30.9372 8.22917V16.1458" stroke="#292D32" stroke-width="1.5" stroke-linecap="round" stroke-linejoin="round"/>
<path d="M46.9972 29.1045V33.3963C46.9972 34.5421 46.0805 35.4796 44.9139 35.5212H40.8305C38.5805 35.5212 36.518 33.8754 36.3305 31.6254C36.2055 30.3129 36.7055 29.0837 37.5805 28.2296C38.3514 27.4379 39.4139 26.9796 40.5805 26.9796H44.9139C46.0805 27.0213 46.9972 27.9587 46.9972 29.1045Z" stroke="#292D32" stroke-width="1.5" stroke-linecap="round" stroke-linejoin="round"/>
<path d="M14.583 25H29.1663" stroke="#292D32" stroke-width="1.5" stroke-linecap="round" stroke-linejoin="round"/>
</svg>
