<svg width="22" height="22" viewBox="0 0 22 22" fill="none" xmlns="http://www.w3.org/2000/svg">
<circle cx="11" cy="11" r="11" fill="#005B45" fill-opacity="0.1"/>
<path d="M10.3946 16.177C10.2631 16.177 10.1447 16.1494 10.0132 16.0942C9.64495 15.9286 9.4082 15.5559 9.4082 15.1417V6.85939C9.4082 6.29343 9.85539 5.8241 10.3946 5.8241C10.9339 5.8241 11.3811 6.29343 11.3811 6.85939V12.6432L12.328 11.6494C12.7095 11.249 13.3408 11.249 13.7222 11.6494C14.1036 12.0497 14.1036 12.7123 13.7222 13.1126L11.0917 15.8734C10.9076 16.0666 10.6445 16.177 10.3946 16.177Z" fill="#005B45"/>
<path d="M10.3939 16.1767C10.144 16.1767 9.89411 16.08 9.69682 15.873L7.06634 13.1122C6.68492 12.7119 6.68492 12.0493 7.06634 11.649C7.44776 11.2487 8.07908 11.2487 8.4605 11.649L11.091 14.4098C11.4724 14.8101 11.4724 15.4727 11.091 15.873C10.8937 16.08 10.6438 16.1767 10.3939 16.1767Z" fill="#005B45"/>
</svg>
