<svg width="22" height="22" viewBox="0 0 22 22" fill="none" xmlns="http://www.w3.org/2000/svg">
<circle cx="11" cy="11" r="11" fill="#005B45" fill-opacity="0.1"/>
<path d="M9.81706 10.5291C9.77539 10.5249 9.72539 10.5249 9.67956 10.5291C8.68789 10.4958 7.90039 9.68325 7.90039 8.68325C7.90039 7.66242 8.72539 6.83325 9.75039 6.83325C10.7712 6.83325 11.6004 7.66242 11.6004 8.68325C11.5962 9.68325 10.8087 10.4958 9.81706 10.5291Z" stroke="#292D32" stroke-width="0.6" stroke-linecap="round" stroke-linejoin="round"/>
<path d="M12.8374 7.66675C13.6457 7.66675 14.2957 8.32091 14.2957 9.12508C14.2957 9.91258 13.6707 10.5542 12.8915 10.5834C12.8582 10.5792 12.8207 10.5792 12.7832 10.5834" stroke="#292D32" stroke-width="0.6" stroke-linecap="round" stroke-linejoin="round"/>
<path d="M7.73379 12.0667C6.72546 12.7417 6.72546 13.8417 7.73379 14.5126C8.87962 15.2792 10.7588 15.2792 11.9046 14.5126C12.913 13.8376 12.913 12.7376 11.9046 12.0667C10.763 11.3042 8.88379 11.3042 7.73379 12.0667Z" stroke="#292D32" stroke-width="0.6" stroke-linecap="round" stroke-linejoin="round"/>
<path d="M13.6416 14.3333C13.9416 14.2708 14.2249 14.1499 14.4583 13.9708C15.1083 13.4833 15.1083 12.6791 14.4583 12.1916C14.2291 12.0166 13.9499 11.8999 13.6541 11.8333" stroke="#292D32" stroke-width="0.6" stroke-linecap="round" stroke-linejoin="round"/>
</svg>
