<svg width="16" height="16" viewBox="0 0 16 16" fill="none" xmlns="http://www.w3.org/2000/svg">
<path d="M8.70064 10.8334H7.44733C6.56066 10.8334 5.83398 10.0867 5.83398 9.1667C5.83398 8.89336 6.06065 8.6667 6.33398 8.6667C6.60732 8.6667 6.83398 8.89336 6.83398 9.1667C6.83398 9.53336 7.10733 9.83336 7.44733 9.83336H8.70064C8.96064 9.83336 9.16732 9.60003 9.16732 9.31336C9.16732 8.95336 9.06732 8.90003 8.84066 8.82003L6.83398 8.12003C6.40732 7.96669 5.83398 7.66003 5.83398 6.68003C5.83398 5.8467 6.49399 5.16003 7.30066 5.16003H8.55398C9.44064 5.16003 10.1673 5.9067 10.1673 6.8267C10.1673 7.10003 9.94065 7.3267 9.66732 7.3267C9.39398 7.3267 9.16732 7.10003 9.16732 6.8267C9.16732 6.46003 8.89398 6.16003 8.55398 6.16003H7.30066C7.04066 6.16003 6.83398 6.39337 6.83398 6.68003C6.83398 7.04003 6.93398 7.09336 7.16064 7.17336L9.16732 7.87336C9.59398 8.0267 10.1673 8.33336 10.1673 9.31336C10.1673 10.1534 9.50731 10.8334 8.70064 10.8334Z" fill="white"/>
<path d="M8 11.5C7.72667 11.5 7.5 11.2733 7.5 11V5C7.5 4.72667 7.72667 4.5 8 4.5C8.27333 4.5 8.5 4.72667 8.5 5V11C8.5 11.2733 8.27333 11.5 8 11.5Z" fill="white"/>
<path d="M8.00065 15.1667C4.04732 15.1667 0.833984 11.9534 0.833984 8.00004C0.833984 4.04671 4.04732 0.833374 8.00065 0.833374C8.27398 0.833374 8.50065 1.06004 8.50065 1.33337C8.50065 1.60671 8.27398 1.83337 8.00065 1.83337C4.60065 1.83337 1.83398 4.60004 1.83398 8.00004C1.83398 11.4 4.60065 14.1667 8.00065 14.1667C11.4007 14.1667 14.1673 11.4 14.1673 8.00004C14.1673 7.72671 14.394 7.50004 14.6673 7.50004C14.9407 7.50004 15.1673 7.72671 15.1673 8.00004C15.1673 11.9534 11.954 15.1667 8.00065 15.1667Z" fill="white"/>
<path d="M14.6667 4.50004C14.3933 4.50004 14.1667 4.27337 14.1667 4.00004V1.83337H12C11.7267 1.83337 11.5 1.60671 11.5 1.33337C11.5 1.06004 11.7267 0.833374 12 0.833374H14.6667C14.94 0.833374 15.1667 1.06004 15.1667 1.33337V4.00004C15.1667 4.27337 14.94 4.50004 14.6667 4.50004Z" fill="white"/>
<path d="M11.3343 5.16663C11.2076 5.16663 11.0809 5.11996 10.9809 5.01996C10.7876 4.82663 10.7876 4.50663 10.9809 4.31329L14.3143 0.979961C14.5076 0.786628 14.8276 0.786628 15.0209 0.979961C15.2143 1.17329 15.2143 1.49329 15.0209 1.68663L11.6876 5.01996C11.5876 5.11996 11.4609 5.16663 11.3343 5.16663Z" fill="white"/>
</svg>
