<svg width="28" height="28" viewBox="0 0 28 28" fill="none" xmlns="http://www.w3.org/2000/svg">
<path d="M12.8073 3.26136V10.4205C12.8066 11.0531 12.5549 11.6597 12.1076 12.1071C11.6602 12.5545 11.0536 12.8061 10.4209 12.8068H3.26185C2.62917 12.8061 2.0226 12.5545 1.57522 12.1071C1.12785 11.6597 0.876199 11.0531 0.875488 10.4205V3.26136C0.876199 2.62868 1.12785 2.02211 1.57522 1.57473C2.0226 1.12736 2.62917 0.875711 3.26185 0.875H10.4209C11.0536 0.875711 11.6602 1.12736 12.1076 1.57473C12.5549 2.02211 12.8066 2.62868 12.8073 3.26136ZM10.4209 15.1932H3.26185C2.62917 15.1939 2.0226 15.4455 1.57522 15.8929C1.12785 16.3403 0.876199 16.9469 0.875488 17.5795V24.7386C0.876199 25.3713 1.12785 25.9779 1.57522 26.4253C2.0226 26.8726 2.62917 27.1243 3.26185 27.125H10.4209C11.0536 27.1243 11.6602 26.8726 12.1076 26.4253C12.5549 25.9779 12.8066 25.3713 12.8073 24.7386V17.5795C12.8066 16.9469 12.5549 16.3403 12.1076 15.8929C11.6602 15.4455 11.0536 15.1939 10.4209 15.1932ZM24.7391 0.875H17.58C16.9473 0.875711 16.3408 1.12736 15.8934 1.57473C15.446 2.02211 15.1944 2.62868 15.1937 3.26136V10.4205C15.1944 11.0531 15.446 11.6597 15.8934 12.1071C16.3408 12.5545 16.9473 12.8061 17.58 12.8068H24.7391C25.3718 12.8061 25.9784 12.5545 26.4258 12.1071C26.8731 11.6597 27.1248 11.0531 27.1255 10.4205V3.26136C27.1248 2.62868 26.8731 2.02211 26.4258 1.57473C25.9784 1.12736 25.3718 0.875711 24.7391 0.875ZM16.3869 22.3523C16.7033 22.3523 17.0068 22.2266 17.2306 22.0028C17.4543 21.779 17.58 21.4755 17.58 21.1591V16.3864C17.58 16.0699 17.4543 15.7664 17.2306 15.5427C17.0068 15.3189 16.7033 15.1932 16.3869 15.1932C16.0704 15.1932 15.7669 15.3189 15.5431 15.5427C15.3194 15.7664 15.1937 16.0699 15.1937 16.3864V21.1591C15.1937 21.4755 15.3194 21.779 15.5431 22.0028C15.7669 22.2266 16.0704 22.3523 16.3869 22.3523ZM25.9323 17.5795H22.3528V16.3864C22.3528 16.0699 22.2271 15.7664 22.0033 15.5427C21.7795 15.3189 21.476 15.1932 21.1596 15.1932C20.8431 15.1932 20.5396 15.3189 20.3159 15.5427C20.0921 15.7664 19.9664 16.0699 19.9664 16.3864V24.7386H16.3869C16.0704 24.7386 15.7669 24.8643 15.5431 25.0881C15.3194 25.3119 15.1937 25.6154 15.1937 25.9318C15.1937 26.2483 15.3194 26.5518 15.5431 26.7755C15.7669 26.9993 16.0704 27.125 16.3869 27.125H21.1596C21.476 27.125 21.7795 26.9993 22.0033 26.7755C22.2271 26.5518 22.3528 26.2483 22.3528 25.9318V19.9659H25.9323C26.2488 19.9659 26.5522 19.8402 26.776 19.6164C26.9998 19.3927 27.1255 19.0892 27.1255 18.7727C27.1255 18.4563 26.9998 18.1528 26.776 17.929C26.5522 17.7053 26.2488 17.5795 25.9323 17.5795ZM25.9323 22.3523C25.6159 22.3523 25.3124 22.478 25.0886 22.7017C24.8648 22.9255 24.7391 23.229 24.7391 23.5455V25.9318C24.7391 26.2483 24.8648 26.5518 25.0886 26.7755C25.3124 26.9993 25.6159 27.125 25.9323 27.125C26.2488 27.125 26.5522 26.9993 26.776 26.7755C26.9998 26.5518 27.1255 26.2483 27.1255 25.9318V23.5455C27.1255 23.229 26.9998 22.9255 26.776 22.7017C26.5522 22.478 26.2488 22.3523 25.9323 22.3523Z" fill="#6B142B"/>
</svg>
