<svg width="20" height="23" viewBox="0 0 20 23" fill="none" xmlns="http://www.w3.org/2000/svg">
<path d="M0.200195 3.6875C0.200195 2.8587 0.495194 2.06384 1.0203 1.47779C1.5454 0.89174 2.25759 0.5625 3.0002 0.5625H12.8002C13.5428 0.5625 14.255 0.89174 14.7801 1.47779C15.3052 2.06384 15.6002 2.8587 15.6002 3.6875V14.625H19.8002V17.75C19.8002 18.9932 19.3577 20.1855 18.57 21.0646C17.7824 21.9436 16.7141 22.4375 15.6002 22.4375H4.4002C3.28629 22.4375 2.218 21.9436 1.43035 21.0646C0.642694 20.1855 0.200195 18.9932 0.200195 17.75V3.6875ZM15.6002 20.875C16.3428 20.875 17.055 20.5458 17.5801 19.9597C18.1052 19.3737 18.4002 18.5788 18.4002 17.75V16.1875H15.6002V20.875ZM5.1002 5.25C4.91454 5.25 4.7365 5.33231 4.60522 5.47882C4.47395 5.62534 4.4002 5.82405 4.4002 6.03125C4.4002 6.23845 4.47395 6.43716 4.60522 6.58368C4.7365 6.73019 4.91454 6.8125 5.1002 6.8125H10.7002C10.8858 6.8125 11.0639 6.73019 11.1952 6.58368C11.3264 6.43716 11.4002 6.23845 11.4002 6.03125C11.4002 5.82405 11.3264 5.62534 11.1952 5.47882C11.0639 5.33231 10.8858 5.25 10.7002 5.25H5.1002ZM5.1002 9.9375C4.91454 9.9375 4.7365 10.0198 4.60522 10.1663C4.47395 10.3128 4.4002 10.5115 4.4002 10.7188C4.4002 10.926 4.47395 11.1247 4.60522 11.2712C4.7365 11.4177 4.91454 11.5 5.1002 11.5H10.7002C10.8858 11.5 11.0639 11.4177 11.1952 11.2712C11.3264 11.1247 11.4002 10.926 11.4002 10.7188C11.4002 10.5115 11.3264 10.3128 11.1952 10.1663C11.0639 10.0198 10.8858 9.9375 10.7002 9.9375H5.1002ZM5.1002 14.625C4.91454 14.625 4.7365 14.7073 4.60522 14.8538C4.47395 15.0003 4.4002 15.199 4.4002 15.4062C4.4002 15.6135 4.47395 15.8122 4.60522 15.9587C4.7365 16.1052 4.91454 16.1875 5.1002 16.1875H7.9002C8.08585 16.1875 8.2639 16.1052 8.39517 15.9587C8.52645 15.8122 8.60019 15.6135 8.60019 15.4062C8.60019 15.199 8.52645 15.0003 8.39517 14.8538C8.2639 14.7073 8.08585 14.625 7.9002 14.625H5.1002Z" fill="#6B142B"/>
</svg>
