<svg width="147" height="119" viewBox="0 0 147 119" fill="none" xmlns="http://www.w3.org/2000/svg">
<g filter="url(#filter0_d_2270_8016)">
<rect x="4" width="139" height="53" rx="15" fill="#8E182A"/>
<ellipse cx="74.9999" cy="81.8141" rx="29.2069" ry="28.4471" fill="#8E182A"/>
<path d="M47.6837 74.3638C48.5079 56.4909 37.4948 51.5643 31.8853 51.3352H116.029C103.115 52.4351 101.719 67.1459 102.635 74.3638H47.6837Z" fill="#8E182A" stroke="#8E182A"/>
</g>
<g clip-path="url(#clip0_2270_8016)">
<path d="M75.4868 108.974C90.6674 108.974 102.974 96.6673 102.974 81.4868C102.974 66.3063 90.6674 54 75.4868 54C60.3063 54 48 66.3063 48 81.4868C48 96.6673 60.3063 108.974 75.4868 108.974Z" fill="url(#paint0_linear_2270_8016)"/>
<path d="M87.8466 64.72C87.8894 65.3438 87.8074 65.97 87.6056 66.5617C87.4039 67.1534 87.0865 67.6988 86.6718 68.166C86.257 68.6332 85.7534 69.0128 85.1903 69.2825C84.6273 69.5523 84.0163 69.7067 83.393 69.7368C83.393 69.7368 76.8309 70.3177 72.8515 71.1626C68.8721 72.0075 67.001 73.5391 64.9455 78.1862C64.565 76.0072 64.9506 73.7634 66.0367 71.8374C67.1228 69.9114 68.8419 68.4225 70.9011 67.6245C72.9819 67.0746 75.0941 66.6513 77.226 66.357C80.7965 66.0312 84.3435 65.4845 87.8466 64.72Z" fill="white"/>
<path d="M84.711 71.8491C81.8003 72.5763 78.8531 73.1493 75.8823 73.5655C74.1072 73.8078 72.3474 74.1517 70.6115 74.5953C69.1915 75.0971 67.9551 76.0148 67.0622 77.2296C66.1693 78.4443 65.6615 79.8999 65.6046 81.4074C65.5916 81.495 65.5916 81.584 65.6046 81.6716C65.5757 82.0495 65.5757 82.429 65.6046 82.8069C65.6046 86.3451 65.7627 94.6624 65.6046 95.1905C65.6046 95.1905 65.6046 96.8011 62.9692 98.2533C62.9692 98.2533 68.7669 98.095 68.7669 94.1607C68.7669 94.1607 68.9514 85.0249 69.0831 81.9884C69.1299 81.3235 69.3578 80.6842 69.742 80.1401C70.3611 79.2872 71.1484 78.5706 72.055 78.0347C72.9616 77.4988 73.9682 77.155 75.0127 77.0244L76.2512 76.8396L80.8631 76.2586C81.407 76.2286 81.9396 76.09 82.4292 75.8509C82.9187 75.6117 83.3555 75.2767 83.714 74.8658C84.0725 74.455 84.3455 73.9765 84.5167 73.4585C84.6878 72.9404 84.754 72.3932 84.711 71.8491Z" fill="white"/>
<path d="M74.0112 79.6913C76.6196 79.5172 79.2101 79.1376 81.759 78.5559C81.7803 79.1677 81.6781 79.7774 81.4582 80.3486C81.2383 80.9198 80.9055 81.4406 80.4796 81.8796C80.0537 82.3187 79.5437 82.6668 78.9802 82.9033C78.4166 83.1398 77.8109 83.2597 77.1999 83.2558H75.7242H75.566C75.4445 83.2689 75.3271 83.306 75.2201 83.365C75.1131 83.4241 75.0188 83.5037 74.9428 83.5995C74.8668 83.6953 74.8104 83.8054 74.7771 83.9231C74.7439 84.0409 74.7345 84.1641 74.7492 84.2856C74.7492 85.2625 74.5909 91.9164 74.5645 93.2102V93.5271C74.5645 94.0815 74.5645 96.986 68.9512 97.1709C69.6125 96.8227 70.169 96.3037 70.5629 95.6677C70.9567 95.0317 71.1739 94.3018 71.1915 93.5535V83.2558C71.1648 82.4415 71.4092 81.6415 71.8864 80.9818C72.3635 80.3221 73.0462 79.8401 73.8268 79.612H74.0112V79.6913Z" fill="white"/>
</g>
<path d="M42.9983 12.3602V17.3499C42.9978 17.7909 42.8291 18.2136 42.5292 18.5254C42.2293 18.8373 41.8227 19.0126 41.3986 19.0131H36.5997C36.1755 19.0126 35.7689 18.8373 35.4691 18.5254C35.1692 18.2136 35.0005 17.7909 35 17.3499V12.3602C35.0005 11.9193 35.1692 11.4965 35.4691 11.1847C35.7689 10.8729 36.1755 10.6975 36.5997 10.697H41.3986C41.8227 10.6975 42.2293 10.8729 42.5292 11.1847C42.8291 11.4965 42.9978 11.9193 42.9983 12.3602ZM41.3986 20.6764H36.5997C36.1755 20.6769 35.7689 20.8522 35.4691 21.1641C35.1692 21.4759 35.0005 21.8986 35 22.3396V27.3293C35.0005 27.7702 35.1692 28.193 35.4691 28.5048C35.7689 28.8166 36.1755 28.992 36.5997 28.9925H41.3986C41.8227 28.992 42.2293 28.8166 42.5292 28.5048C42.8291 28.193 42.9978 27.7702 42.9983 27.3293V22.3396C42.9978 21.8986 42.8291 21.4759 42.5292 21.1641C42.2293 20.8522 41.8227 20.6769 41.3986 20.6764ZM50.9965 10.697H46.1976C45.7734 10.6975 45.3668 10.8729 45.067 11.1847C44.7671 11.4965 44.5984 11.9193 44.5979 12.3602V17.3499C44.5984 17.7909 44.7671 18.2136 45.067 18.5254C45.3668 18.8373 45.7734 19.0126 46.1976 19.0131H50.9965C51.4206 19.0126 51.8272 18.8373 52.1271 18.5254C52.427 18.2136 52.5957 17.7909 52.5962 17.3499V12.3602C52.5957 11.9193 52.427 11.4965 52.1271 11.1847C51.8272 10.8729 51.4206 10.6975 50.9965 10.697ZM45.3977 25.666C45.6099 25.666 45.8133 25.5784 45.9633 25.4225C46.1133 25.2665 46.1976 25.055 46.1976 24.8344V21.508C46.1976 21.2874 46.1133 21.0759 45.9633 20.9199C45.8133 20.764 45.6099 20.6764 45.3977 20.6764C45.1856 20.6764 44.9822 20.764 44.8322 20.9199C44.6822 21.0759 44.5979 21.2874 44.5979 21.508V24.8344C44.5979 25.055 44.6822 25.2665 44.8322 25.4225C44.9822 25.5784 45.1856 25.666 45.3977 25.666ZM51.7963 22.3396H49.3969V21.508C49.3969 21.2874 49.3126 21.0759 49.1626 20.9199C49.0126 20.764 48.8092 20.6764 48.597 20.6764C48.3849 20.6764 48.1815 20.764 48.0315 20.9199C47.8815 21.0759 47.7972 21.2874 47.7972 21.508V27.3293H45.3977C45.1856 27.3293 44.9822 27.4169 44.8322 27.5728C44.6822 27.7288 44.5979 27.9403 44.5979 28.1609C44.5979 28.3814 44.6822 28.5929 44.8322 28.7489C44.9822 28.9049 45.1856 28.9925 45.3977 28.9925H48.597C48.8092 28.9925 49.0126 28.9049 49.1626 28.7489C49.3126 28.5929 49.3969 28.3814 49.3969 28.1609V24.0028H51.7963C52.0085 24.0028 52.2119 23.9152 52.3619 23.7592C52.5119 23.6033 52.5962 23.3918 52.5962 23.1712C52.5962 22.9506 52.5119 22.7391 52.3619 22.5832C52.2119 22.4272 52.0085 22.3396 51.7963 22.3396ZM51.7963 25.666C51.5842 25.666 51.3808 25.7536 51.2308 25.9096C51.0808 26.0656 50.9965 26.2771 50.9965 26.4976V28.1609C50.9965 28.3814 51.0808 28.5929 51.2308 28.7489C51.3808 28.9049 51.5842 28.9925 51.7963 28.9925C52.0085 28.9925 52.2119 28.9049 52.3619 28.7489C52.5119 28.5929 52.5962 28.3814 52.5962 28.1609V26.4976C52.5962 26.2771 52.5119 26.0656 52.3619 25.9096C52.2119 25.7536 52.0085 25.666 51.7963 25.666Z" fill="white"/>
<path d="M111.252 20.4584H94.7516C94.5085 20.4584 94.2754 20.3574 94.1034 20.1777C93.9315 19.998 93.835 19.7542 93.835 19.5001C93.835 19.2459 93.9315 19.0022 94.1034 18.8224C94.2754 18.6427 94.5085 18.5417 94.7516 18.5417H111.252C111.495 18.5417 111.728 18.6427 111.9 18.8224C112.072 19.0022 112.168 19.2459 112.168 19.5001C112.168 19.7542 112.072 19.998 111.9 20.1777C111.728 20.3574 111.495 20.4584 111.252 20.4584Z" fill="white"/>
<path d="M94.7516 15.6667C94.5085 15.6667 94.2754 15.5658 94.1034 15.3861C93.9315 15.2063 93.835 14.9626 93.835 14.7084V11.8334C93.835 11.3251 94.0281 10.8376 94.3719 10.4781C94.7157 10.1187 95.1821 9.91675 95.6683 9.91675H98.4183C98.6614 9.91675 98.8946 10.0177 99.0665 10.1974C99.2384 10.3772 99.335 10.6209 99.335 10.8751C99.335 11.1292 99.2384 11.373 99.0665 11.5527C98.8946 11.7324 98.6614 11.8334 98.4183 11.8334H95.6683V14.7084C95.6683 14.9626 95.5717 15.2063 95.3998 15.3861C95.2279 15.5658 94.9947 15.6667 94.7516 15.6667ZM112.168 14.7084V11.8334C112.168 11.3251 111.975 10.8376 111.631 10.4781C111.288 10.1187 110.821 9.91675 110.335 9.91675H107.585C107.342 9.91675 107.109 10.0177 106.937 10.1974C106.765 10.3772 106.668 10.6209 106.668 10.8751C106.668 11.1292 106.765 11.373 106.937 11.5527C107.109 11.7324 107.342 11.8334 107.585 11.8334H110.335V14.7084C110.335 14.9626 110.432 15.2063 110.603 15.3861C110.775 15.5658 111.009 15.6667 111.252 15.6667C111.495 15.6667 111.728 15.5658 111.9 15.3861C112.072 15.2063 112.168 14.9626 112.168 14.7084ZM99.335 28.1251C99.335 27.8709 99.2384 27.6272 99.0665 27.4474C98.8946 27.2677 98.6614 27.1667 98.4183 27.1667H95.6683V24.2917C95.6683 24.0376 95.5717 23.7938 95.3998 23.6141C95.2279 23.4344 94.9947 23.3334 94.7516 23.3334C94.5085 23.3334 94.2754 23.4344 94.1034 23.6141C93.9315 23.7938 93.835 24.0376 93.835 24.2917V27.1667C93.835 27.6751 94.0281 28.1626 94.3719 28.522C94.7157 28.8815 95.1821 29.0834 95.6683 29.0834H98.4183C98.6614 29.0834 98.8946 28.9824 99.0665 28.8027C99.2384 28.623 99.335 28.3792 99.335 28.1251ZM112.168 27.1667V24.2917C112.168 24.0376 112.072 23.7938 111.9 23.6141C111.728 23.4344 111.495 23.3334 111.252 23.3334C111.009 23.3334 110.775 23.4344 110.603 23.6141C110.432 23.7938 110.335 24.0376 110.335 24.2917V27.1667H107.585C107.342 27.1667 107.109 27.2677 106.937 27.4474C106.765 27.6272 106.668 27.8709 106.668 28.1251C106.668 28.3792 106.765 28.623 106.937 28.8027C107.109 28.9824 107.342 29.0834 107.585 29.0834H110.335C110.821 29.0834 111.288 28.8815 111.631 28.522C111.975 28.1626 112.168 27.6751 112.168 27.1667Z" fill="white"/>
<path d="M34.6506 41.09C34.0866 41.09 33.5976 40.967 33.1836 40.721C32.7756 40.469 32.4576 40.115 32.2296 39.659C32.0076 39.203 31.8966 38.66 31.8966 38.03C31.8966 37.4 32.0136 36.857 32.2476 36.401C32.4876 35.945 32.8206 35.594 33.2466 35.348C33.6726 35.096 34.1616 34.97 34.7136 34.97C35.3016 34.97 35.7786 35.081 36.1446 35.303C36.5166 35.525 36.8166 35.867 37.0446 36.329L36.3876 36.689C36.2556 36.347 36.0456 36.089 35.7576 35.915C35.4756 35.735 35.1276 35.645 34.7136 35.645C34.3116 35.645 33.9546 35.741 33.6426 35.933C33.3366 36.119 33.0936 36.392 32.9136 36.752C32.7396 37.106 32.6526 37.532 32.6526 38.03C32.6526 38.528 32.7276 38.957 32.8776 39.317C33.0336 39.671 33.2616 39.944 33.5616 40.136C33.8676 40.322 34.2396 40.415 34.6776 40.415C34.9236 40.415 35.1516 40.385 35.3616 40.325C35.5776 40.259 35.7636 40.163 35.9196 40.037C36.0816 39.911 36.2076 39.752 36.2976 39.56C36.3876 39.368 36.4326 39.143 36.4326 38.885V38.678H34.5426V38.003H37.0896V41H36.5226L36.4866 39.893L36.6396 39.92C36.4836 40.292 36.2376 40.58 35.9016 40.784C35.5656 40.988 35.1486 41.09 34.6506 41.09ZM39.9753 41.09C39.5493 41.09 39.1683 40.997 38.8323 40.811C38.5023 40.625 38.2443 40.358 38.0583 40.01C37.8723 39.656 37.7793 39.236 37.7793 38.75C37.7793 38.264 37.8723 37.847 38.0583 37.499C38.2443 37.145 38.4993 36.875 38.8233 36.689C39.1473 36.503 39.5163 36.41 39.9303 36.41C40.3503 36.41 40.7073 36.5 41.0013 36.68C41.3013 36.86 41.5293 37.106 41.6853 37.418C41.8413 37.724 41.9193 38.069 41.9193 38.453C41.9193 38.555 41.9163 38.648 41.9103 38.732C41.9043 38.816 41.8953 38.891 41.8833 38.957H38.2473V38.318H41.5683L41.1993 38.39C41.1993 37.958 41.0793 37.625 40.8393 37.391C40.6053 37.157 40.2963 37.04 39.9123 37.04C39.6183 37.04 39.3633 37.109 39.1473 37.247C38.9373 37.379 38.7723 37.574 38.6523 37.832C38.5383 38.084 38.4813 38.39 38.4813 38.75C38.4813 39.104 38.5413 39.41 38.6613 39.668C38.7813 39.926 38.9493 40.124 39.1653 40.262C39.3873 40.394 39.6513 40.46 39.9573 40.46C40.2873 40.46 40.5543 40.397 40.7583 40.271C40.9683 40.145 41.1363 39.974 41.2623 39.758L41.8293 40.091C41.7153 40.295 41.5683 40.472 41.3883 40.622C41.2143 40.772 41.0073 40.889 40.7673 40.973C40.5333 41.051 40.2693 41.09 39.9753 41.09ZM43.6788 35.222V39.758C43.6788 39.98 43.7418 40.145 43.8678 40.253C43.9938 40.361 44.1558 40.415 44.3538 40.415C44.5278 40.415 44.6778 40.385 44.8038 40.325C44.9298 40.265 45.0438 40.184 45.1458 40.082L45.3978 40.685C45.2598 40.811 45.0948 40.91 44.9028 40.982C44.7168 41.054 44.5008 41.09 44.2548 41.09C44.0268 41.09 43.8138 41.051 43.6158 40.973C43.4178 40.889 43.2588 40.76 43.1388 40.586C43.0248 40.406 42.9648 40.172 42.9588 39.884V35.42L43.6788 35.222ZM45.3168 36.5V37.121H42.0588V36.5H45.3168ZM52.3437 42.755C52.0377 42.755 51.7497 42.698 51.4797 42.584C51.2097 42.47 50.9877 42.275 50.8137 41.999C50.6457 41.723 50.5617 41.345 50.5617 40.865C50.5617 40.811 50.5617 40.754 50.5617 40.694C50.5677 40.628 50.5737 40.565 50.5797 40.505L51.2187 40.523C51.2127 40.583 51.2067 40.64 51.2007 40.694C51.2007 40.742 51.2007 40.79 51.2007 40.838C51.2007 41.18 51.2547 41.435 51.3627 41.603C51.4707 41.771 51.6117 41.882 51.7857 41.936C51.9657 41.996 52.1577 42.026 52.3617 42.026C52.5837 42.026 52.7877 41.996 52.9737 41.936C53.1597 41.876 53.3097 41.795 53.4237 41.693L53.6577 42.359C53.5137 42.485 53.3127 42.581 53.0547 42.647C52.8027 42.719 52.5657 42.755 52.3437 42.755ZM50.9037 34.97C51.4677 34.97 51.9537 35.096 52.3617 35.348C52.7757 35.594 53.0937 35.945 53.3157 36.401C53.5437 36.857 53.6577 37.4 53.6577 38.03C53.6577 38.66 53.5437 39.203 53.3157 39.659C53.0937 40.115 52.7757 40.469 52.3617 40.721C51.9537 40.967 51.4677 41.09 50.9037 41.09C50.3397 41.09 49.8507 40.967 49.4367 40.721C49.0287 40.469 48.7107 40.115 48.4827 39.659C48.2607 39.203 48.1497 38.66 48.1497 38.03C48.1497 37.4 48.2607 36.857 48.4827 36.401C48.7107 35.945 49.0287 35.594 49.4367 35.348C49.8507 35.096 50.3397 34.97 50.9037 34.97ZM50.9037 35.645C50.4957 35.645 50.1417 35.741 49.8417 35.933C49.5417 36.119 49.3107 36.392 49.1487 36.752C48.9867 37.106 48.9057 37.532 48.9057 38.03C48.9057 38.528 48.9867 38.957 49.1487 39.317C49.3107 39.671 49.5417 39.944 49.8417 40.136C50.1417 40.322 50.4957 40.415 50.9037 40.415C51.3177 40.415 51.6717 40.322 51.9657 40.136C52.2657 39.944 52.4967 39.671 52.6587 39.317C52.8207 38.957 52.9017 38.528 52.9017 38.03C52.9017 37.532 52.8207 37.106 52.6587 36.752C52.4967 36.392 52.2657 36.119 51.9657 35.933C51.6717 35.741 51.3177 35.645 50.9037 35.645ZM56.9521 35.06C57.5581 35.06 58.0441 35.216 58.4101 35.528C58.7761 35.84 58.9591 36.263 58.9591 36.797C58.9591 37.331 58.7731 37.748 58.4011 38.048C58.0351 38.342 57.5491 38.489 56.9431 38.489L56.8801 38.534H55.4221V41H54.7021V35.06H56.9521ZM56.9431 37.859C57.3691 37.859 57.6841 37.772 57.8881 37.598C58.0981 37.418 58.2031 37.151 58.2031 36.797C58.2031 36.443 58.0981 36.179 57.8881 36.005C57.6841 35.825 57.3691 35.735 56.9431 35.735H55.4221V37.859H56.9431ZM57.3571 38.003L59.3191 41H58.4641L56.7541 38.399L57.3571 38.003Z" fill="white"/>
<path d="M85.2973 35.97C85.8193 35.97 86.2693 36.078 86.6473 36.294C87.0253 36.504 87.3403 36.816 87.5923 37.23L86.9893 37.698C86.7673 37.314 86.5153 37.044 86.2333 36.888C85.9573 36.726 85.6213 36.645 85.2253 36.645C84.9073 36.645 84.6433 36.69 84.4333 36.78C84.2293 36.87 84.0793 36.99 83.9833 37.14C83.8873 37.284 83.8393 37.449 83.8393 37.635C83.8393 37.845 83.9053 38.031 84.0373 38.193C84.1693 38.349 84.4333 38.472 84.8293 38.562L86.1163 38.85C86.6863 38.976 87.0823 39.168 87.3043 39.426C87.5323 39.678 87.6463 39.993 87.6463 40.371C87.6463 40.707 87.5503 41.007 87.3583 41.271C87.1723 41.529 86.9083 41.73 86.5663 41.874C86.2243 42.018 85.8223 42.09 85.3603 42.09C84.9283 42.09 84.5473 42.033 84.2173 41.919C83.8933 41.799 83.6143 41.64 83.3803 41.442C83.1463 41.244 82.9543 41.022 82.8043 40.776L83.4343 40.263C83.5483 40.491 83.6953 40.692 83.8753 40.866C84.0553 41.04 84.2713 41.175 84.5233 41.271C84.7813 41.367 85.0753 41.415 85.4053 41.415C85.7113 41.415 85.9753 41.379 86.1973 41.307C86.4253 41.229 86.5993 41.118 86.7193 40.974C86.8393 40.824 86.8993 40.644 86.8993 40.434C86.8993 40.242 86.8363 40.071 86.7103 39.921C86.5843 39.765 86.3473 39.648 85.9993 39.57L84.6043 39.255C84.2383 39.171 83.9413 39.057 83.7133 38.913C83.4913 38.763 83.3293 38.589 83.2273 38.391C83.1313 38.187 83.0833 37.968 83.0833 37.734C83.0833 37.416 83.1703 37.125 83.3443 36.861C83.5243 36.591 83.7793 36.375 84.1093 36.213C84.4453 36.051 84.8413 35.97 85.2973 35.97ZM90.3429 37.41C90.6549 37.41 90.9279 37.458 91.1619 37.554C91.4019 37.65 91.6089 37.788 91.7829 37.968C91.9569 38.148 92.0979 38.361 92.2059 38.607L91.5219 38.931C91.4259 38.643 91.2789 38.424 91.0809 38.274C90.8889 38.118 90.6369 38.04 90.3249 38.04C90.0249 38.04 89.7669 38.109 89.5509 38.247C89.3349 38.379 89.1699 38.574 89.0559 38.832C88.9419 39.084 88.8849 39.39 88.8849 39.75C88.8849 40.104 88.9419 40.41 89.0559 40.668C89.1699 40.926 89.3349 41.124 89.5509 41.262C89.7669 41.394 90.0249 41.46 90.3249 41.46C90.5589 41.46 90.7599 41.424 90.9279 41.352C91.1019 41.28 91.2429 41.175 91.3509 41.037C91.4649 40.899 91.5429 40.731 91.5849 40.533L92.2509 40.767C92.1489 41.043 92.0079 41.28 91.8279 41.478C91.6539 41.676 91.4409 41.829 91.1889 41.937C90.9429 42.039 90.6609 42.09 90.3429 42.09C89.9229 42.09 89.5479 41.997 89.2179 41.811C88.8879 41.625 88.6299 41.358 88.4439 41.01C88.2579 40.656 88.1649 40.236 88.1649 39.75C88.1649 39.264 88.2579 38.847 88.4439 38.499C88.6299 38.145 88.8879 37.875 89.2179 37.689C89.5479 37.503 89.9229 37.41 90.3429 37.41ZM95.604 39.093C95.604 38.757 95.514 38.499 95.334 38.319C95.154 38.133 94.899 38.04 94.569 38.04C94.257 38.04 93.993 38.109 93.777 38.247C93.561 38.379 93.402 38.595 93.3 38.895L92.715 38.535C92.835 38.199 93.057 37.929 93.381 37.725C93.705 37.515 94.107 37.41 94.587 37.41C94.911 37.41 95.205 37.467 95.469 37.581C95.733 37.689 95.94 37.857 96.09 38.085C96.246 38.307 96.324 38.595 96.324 38.949V41.127C96.324 41.343 96.438 41.451 96.666 41.451C96.78 41.451 96.891 41.436 96.999 41.406L96.963 41.973C96.843 42.033 96.687 42.063 96.495 42.063C96.321 42.063 96.165 42.03 96.027 41.964C95.889 41.898 95.781 41.799 95.703 41.667C95.625 41.529 95.586 41.358 95.586 41.154V41.064L95.766 41.091C95.694 41.325 95.571 41.517 95.397 41.667C95.223 41.811 95.028 41.919 94.812 41.991C94.596 42.057 94.383 42.09 94.173 42.09C93.909 42.09 93.663 42.045 93.435 41.955C93.207 41.865 93.024 41.73 92.886 41.55C92.754 41.364 92.688 41.136 92.688 40.866C92.688 40.53 92.799 40.254 93.021 40.038C93.249 39.816 93.564 39.666 93.966 39.588L95.748 39.237V39.831L94.299 40.128C94.005 40.188 93.786 40.272 93.642 40.38C93.498 40.488 93.426 40.638 93.426 40.83C93.426 41.016 93.498 41.169 93.642 41.289C93.792 41.403 94.002 41.46 94.272 41.46C94.446 41.46 94.611 41.439 94.767 41.397C94.929 41.349 95.073 41.28 95.199 41.19C95.325 41.094 95.424 40.977 95.496 40.839C95.568 40.695 95.604 40.527 95.604 40.335V39.093ZM97.5337 42V37.5H98.1637L98.2267 38.508L98.1097 38.409C98.2057 38.169 98.3347 37.977 98.4967 37.833C98.6587 37.683 98.8447 37.575 99.0547 37.509C99.2707 37.443 99.4927 37.41 99.7207 37.41C100.045 37.41 100.339 37.473 100.603 37.599C100.867 37.719 101.077 37.905 101.233 38.157C101.395 38.409 101.476 38.73 101.476 39.12V42H100.756V39.372C100.756 38.874 100.648 38.529 100.432 38.337C100.222 38.139 99.9607 38.04 99.6487 38.04C99.4327 38.04 99.2167 38.091 99.0007 38.193C98.7847 38.295 98.6047 38.46 98.4607 38.688C98.3227 38.916 98.2537 39.222 98.2537 39.606V42H97.5337ZM105.98 36.222V40.758C105.98 40.98 106.043 41.145 106.169 41.253C106.295 41.361 106.457 41.415 106.655 41.415C106.829 41.415 106.979 41.385 107.105 41.325C107.231 41.265 107.345 41.184 107.447 41.082L107.699 41.685C107.561 41.811 107.396 41.91 107.204 41.982C107.018 42.054 106.802 42.09 106.556 42.09C106.328 42.09 106.115 42.051 105.917 41.973C105.719 41.889 105.56 41.76 105.44 41.586C105.326 41.406 105.266 41.172 105.26 40.884V36.42L105.98 36.222ZM107.618 37.5V38.121H104.36V37.5H107.618ZM110.011 37.41C110.437 37.41 110.812 37.503 111.136 37.689C111.466 37.875 111.724 38.145 111.91 38.499C112.096 38.847 112.189 39.264 112.189 39.75C112.189 40.236 112.096 40.656 111.91 41.01C111.724 41.358 111.466 41.625 111.136 41.811C110.812 41.997 110.437 42.09 110.011 42.09C109.591 42.09 109.216 41.997 108.886 41.811C108.556 41.625 108.298 41.358 108.112 41.01C107.926 40.656 107.833 40.236 107.833 39.75C107.833 39.264 107.926 38.847 108.112 38.499C108.298 38.145 108.556 37.875 108.886 37.689C109.216 37.503 109.591 37.41 110.011 37.41ZM110.011 38.031C109.705 38.031 109.444 38.1 109.228 38.238C109.012 38.376 108.844 38.574 108.724 38.832C108.61 39.084 108.553 39.39 108.553 39.75C108.553 40.104 108.61 40.41 108.724 40.668C108.844 40.926 109.012 41.124 109.228 41.262C109.444 41.4 109.705 41.469 110.011 41.469C110.317 41.469 110.578 41.4 110.794 41.262C111.01 41.124 111.175 40.926 111.289 40.668C111.409 40.41 111.469 40.104 111.469 39.75C111.469 39.39 111.409 39.084 111.289 38.832C111.175 38.574 111.01 38.376 110.794 38.238C110.578 38.1 110.317 38.031 110.011 38.031ZM117.764 36.06C118.166 36.06 118.514 36.135 118.808 36.285C119.108 36.429 119.342 36.636 119.51 36.906C119.678 37.176 119.762 37.497 119.762 37.869C119.762 38.241 119.678 38.562 119.51 38.832C119.342 39.102 119.108 39.312 118.808 39.462C118.514 39.606 118.166 39.678 117.764 39.678H116.387V42H115.667V36.06H117.764ZM117.656 39.003C118.124 39.003 118.466 38.907 118.682 38.715C118.898 38.517 119.006 38.235 119.006 37.869C119.006 37.497 118.898 37.215 118.682 37.023C118.466 36.831 118.124 36.735 117.656 36.735H116.387V39.003H117.656ZM123.113 39.093C123.113 38.757 123.023 38.499 122.843 38.319C122.663 38.133 122.408 38.04 122.078 38.04C121.766 38.04 121.502 38.109 121.286 38.247C121.07 38.379 120.911 38.595 120.809 38.895L120.224 38.535C120.344 38.199 120.566 37.929 120.89 37.725C121.214 37.515 121.616 37.41 122.096 37.41C122.42 37.41 122.714 37.467 122.978 37.581C123.242 37.689 123.449 37.857 123.599 38.085C123.755 38.307 123.833 38.595 123.833 38.949V41.127C123.833 41.343 123.947 41.451 124.175 41.451C124.289 41.451 124.4 41.436 124.508 41.406L124.472 41.973C124.352 42.033 124.196 42.063 124.004 42.063C123.83 42.063 123.674 42.03 123.536 41.964C123.398 41.898 123.29 41.799 123.212 41.667C123.134 41.529 123.095 41.358 123.095 41.154V41.064L123.275 41.091C123.203 41.325 123.08 41.517 122.906 41.667C122.732 41.811 122.537 41.919 122.321 41.991C122.105 42.057 121.892 42.09 121.682 42.09C121.418 42.09 121.172 42.045 120.944 41.955C120.716 41.865 120.533 41.73 120.395 41.55C120.263 41.364 120.197 41.136 120.197 40.866C120.197 40.53 120.308 40.254 120.53 40.038C120.758 39.816 121.073 39.666 121.475 39.588L123.257 39.237V39.831L121.808 40.128C121.514 40.188 121.295 40.272 121.151 40.38C121.007 40.488 120.935 40.638 120.935 40.83C120.935 41.016 121.007 41.169 121.151 41.289C121.301 41.403 121.511 41.46 121.781 41.46C121.955 41.46 122.12 41.439 122.276 41.397C122.438 41.349 122.582 41.28 122.708 41.19C122.834 41.094 122.933 40.977 123.005 40.839C123.077 40.695 123.113 40.527 123.113 40.335V39.093ZM128.478 37.5L126.363 42.756C126.249 43.05 126.123 43.281 125.985 43.449C125.853 43.623 125.703 43.746 125.535 43.818C125.373 43.896 125.184 43.935 124.968 43.935C124.764 43.935 124.575 43.905 124.401 43.845C124.233 43.791 124.083 43.716 123.951 43.62L124.149 42.99C124.269 43.098 124.395 43.176 124.527 43.224C124.665 43.278 124.8 43.305 124.932 43.305C125.088 43.305 125.235 43.257 125.373 43.161C125.511 43.065 125.637 42.87 125.751 42.576L125.985 41.991L125.535 40.92L124.104 37.5H124.923L126.048 40.434L126.327 41.235L126.651 40.344L127.704 37.5H128.478Z" fill="white"/>
<defs>
<filter id="filter0_d_2270_8016" x="0" y="0" width="147" height="118.261" filterUnits="userSpaceOnUse" color-interpolation-filters="sRGB">
<feFlood flood-opacity="0" result="BackgroundImageFix"/>
<feColorMatrix in="SourceAlpha" type="matrix" values="0 0 0 0 0 0 0 0 0 0 0 0 0 0 0 0 0 0 127 0" result="hardAlpha"/>
<feOffset dy="4"/>
<feGaussianBlur stdDeviation="2"/>
<feComposite in2="hardAlpha" operator="out"/>
<feColorMatrix type="matrix" values="0 0 0 0 0 0 0 0 0 0 0 0 0 0 0 0 0 0 0.25 0"/>
<feBlend mode="normal" in2="BackgroundImageFix" result="effect1_dropShadow_2270_8016"/>
<feBlend mode="normal" in="SourceGraphic" in2="effect1_dropShadow_2270_8016" result="shape"/>
</filter>
<linearGradient id="paint0_linear_2270_8016" x1="48" y1="81.4868" x2="103" y2="81.4868" gradientUnits="userSpaceOnUse">
<stop offset="0.25" stop-color="#C12B37"/>
<stop offset="1" stop-color="#3B1136"/>
</linearGradient>
<clipPath id="clip0_2270_8016">
<rect width="55" height="55" fill="white" transform="translate(48 54)"/>
</clipPath>
</defs>
</svg>
