<svg width="22" height="22" viewBox="0 0 22 22" fill="none" xmlns="http://www.w3.org/2000/svg">
<path opacity="0.4" d="M9.231 2.58495L2.8785 7.67244C2.1635 8.24077 1.70516 9.44161 1.86099 10.3399L3.08016 17.6366C3.30016 18.9383 4.54682 19.9924 5.86682 19.9924H16.1335C17.4443 19.9924 18.7002 18.9291 18.9202 17.6366L20.1393 10.3399C20.286 9.44161 19.8277 8.24077 19.1218 7.67244L12.7693 2.5941C11.7885 1.80577 10.2027 1.80579 9.231 2.58495Z" fill="#C61F2A"/>
<path d="M11.0002 14.2083C12.2658 14.2083 13.2918 13.1823 13.2918 11.9167C13.2918 10.651 12.2658 9.625 11.0002 9.625C9.73451 9.625 8.7085 10.651 8.7085 11.9167C8.7085 13.1823 9.73451 14.2083 11.0002 14.2083Z" fill="#C61F2A"/>
</svg>
