<svg width="23" height="22" viewBox="0 0 23 22" fill="none" xmlns="http://www.w3.org/2000/svg">
<g opacity="0.5">
<path d="M8.09961 5.76575C7.71461 5.76575 7.41211 5.45409 7.41211 5.07825V2.52075C7.41211 2.14492 7.71461 1.83325 8.09961 1.83325C8.48461 1.83325 8.78711 2.14492 8.78711 2.52075V5.06909C8.78711 5.45409 8.48461 5.76575 8.09961 5.76575Z" fill="#C61F2A"/>
<path d="M14.9004 5.76575C14.5154 5.76575 14.2129 5.45409 14.2129 5.07825V2.52075C14.2129 2.13575 14.5246 1.83325 14.9004 1.83325C15.2854 1.83325 15.5879 2.14492 15.5879 2.52075V5.06909C15.5879 5.45409 15.2854 5.76575 14.9004 5.76575Z" fill="#C61F2A"/>
<path d="M20.2083 14.5017C20.2083 14.6392 20.1625 14.7767 20.0433 14.8959C18.7142 16.2342 16.3492 18.6175 14.9925 19.9834C14.8733 20.1117 14.7175 20.1667 14.5617 20.1667C14.2592 20.1667 13.9658 19.9284 13.9658 19.58V16.3717C13.9658 15.0334 15.1025 13.9242 16.4958 13.9242C17.3667 13.915 18.5767 13.915 19.6125 13.915C19.97 13.915 20.2083 14.1992 20.2083 14.5017Z" fill="#C61F2A"/>
<path d="M20.2083 14.5017C20.2083 14.6392 20.1625 14.7767 20.0433 14.8959C18.7142 16.2342 16.3492 18.6175 14.9925 19.9834C14.8733 20.1117 14.7175 20.1667 14.5617 20.1667C14.2592 20.1667 13.9658 19.9284 13.9658 19.58V16.3717C13.9658 15.0334 15.1025 13.9242 16.4958 13.9242C17.3667 13.915 18.5767 13.915 19.6125 13.915C19.97 13.915 20.2083 14.1992 20.2083 14.5017Z" fill="#C61F2A"/>
<path d="M18.4395 4.12492C17.8345 3.67575 16.9637 4.10659 16.9637 4.86742V4.95909C16.9637 6.03158 16.1937 7.02159 15.1212 7.13159C13.8837 7.25992 12.8387 6.28825 12.8387 5.07825V4.12492C12.8387 3.62075 12.4262 3.20825 11.922 3.20825H11.0787C10.5745 3.20825 10.162 3.62075 10.162 4.12492V4.95909C10.162 5.76575 9.73116 6.51742 9.06199 6.88409C9.02533 6.91159 8.98866 6.92992 8.95199 6.94825C8.94283 6.94825 8.94283 6.95742 8.93366 6.95742C8.86949 6.98492 8.80533 7.01242 8.73199 7.03992C8.71366 7.04908 8.69533 7.04908 8.67699 7.05825C8.56699 7.09492 8.44783 7.12242 8.31949 7.13159H8.31033C8.17283 7.14992 8.02616 7.14992 7.88866 7.13159H7.87949C7.75116 7.12242 7.63199 7.09492 7.52199 7.05825C7.43033 7.03075 7.33866 6.99409 7.24699 6.94825C6.53199 6.62742 6.03699 5.91242 6.03699 5.07825V4.86742C6.03699 4.16159 5.28533 3.73992 4.68949 4.04242C4.68033 4.05159 4.67116 4.05159 4.66199 4.06075H4.65283C4.58866 4.10659 4.53366 4.15242 4.46949 4.19825C4.36866 4.28075 4.26783 4.36325 4.17616 4.45492C4.11199 4.51909 4.04783 4.58325 3.99283 4.64742C3.91949 4.72075 3.85533 4.79409 3.79116 4.87659C3.74533 4.93159 3.69033 4.98659 3.65366 5.05075C3.60783 5.10575 3.57116 5.16992 3.53449 5.22492C3.52533 5.23409 3.51616 5.24325 3.50699 5.26158C3.42449 5.38075 3.35116 5.51825 3.28699 5.64658C3.26866 5.66492 3.25949 5.67409 3.25949 5.69242C3.20449 5.80242 3.14949 5.91242 3.11283 6.03158C3.08533 6.07742 3.07616 6.11408 3.05783 6.15992C3.03949 6.19658 3.03033 6.24242 3.01199 6.27909C2.98449 6.37075 2.95699 6.47159 2.92949 6.57242C2.89283 6.70075 2.86533 6.83825 2.84699 6.97575C2.82866 7.07659 2.81949 7.17742 2.81033 7.28742C2.80116 7.41575 2.79199 7.54409 2.79199 7.67242V15.7024C2.79199 18.1683 4.79033 20.1666 7.25616 20.1666H11.6745C12.1787 20.1666 12.5912 19.7541 12.5912 19.2499V16.3716C12.5912 14.2633 14.342 12.5491 16.4962 12.5491C16.982 12.5399 18.1645 12.5399 19.292 12.5399C19.7962 12.5399 20.2087 12.1274 20.2087 11.6233V7.67242C20.2087 6.21492 19.512 4.94075 18.4395 4.12492ZM10.7028 14.5841C10.6203 14.8591 10.3637 15.0516 10.0612 15.0516H6.72449C6.67866 15.0516 6.64199 15.0516 6.60533 15.0333C6.27533 14.9874 6.03699 14.7033 6.03699 14.3641C6.03699 13.9791 6.33949 13.6674 6.72449 13.6674H10.0612C10.437 13.6674 10.7487 13.9791 10.7487 14.3641C10.7487 14.4374 10.7395 14.5199 10.7028 14.5841ZM13.2512 11.1833C13.1687 11.4583 12.912 11.6508 12.6095 11.6508H6.72449C6.67866 11.6508 6.64199 11.6508 6.60533 11.6324C6.27533 11.5866 6.03699 11.3024 6.03699 10.9633C6.03699 10.5783 6.33949 10.2666 6.72449 10.2666H12.6095C12.9945 10.2666 13.297 10.5783 13.297 10.9633C13.297 11.0366 13.2878 11.1191 13.2512 11.1833Z" fill="#C61F2A"/>
</g>
</svg>
