<svg width="24" height="24" viewBox="0 0 24 24" fill="none" xmlns="http://www.w3.org/2000/svg">
<path d="M16.8301 1.45338L6.29514 4.95338C-0.78653 7.32172 -0.78653 11.1834 6.29514 13.54L9.4218 14.5784L10.4601 17.705C12.8168 24.7867 16.6901 24.7867 19.0468 17.705L22.5585 7.18172C24.1218 2.45672 21.5551 -0.121617 16.8301 1.45338ZM17.2035 7.73005L12.7701 12.1867C12.5951 12.3617 12.3735 12.4434 12.1518 12.4434C11.9301 12.4434 11.7085 12.3617 11.5335 12.1867C11.1951 11.8484 11.1951 11.2884 11.5335 10.9501L15.9668 6.49338C16.3051 6.15505 16.8651 6.15505 17.2035 6.49338C17.5418 6.83172 17.5418 7.39172 17.2035 7.73005Z" fill="#6B142B"/>
</svg>
