<svg width="16" height="12" viewBox="0 0 16 12" fill="none" xmlns="http://www.w3.org/2000/svg">
<path fill-rule="evenodd" clip-rule="evenodd" d="M3.22703 1.17396L6.95543 4.90172C7.22551 4.64076 7.59391 4.4801 8 4.4801C8.82843 4.4801 9.5 5.1487 9.5 5.97347C9.5 6.38034 9.33657 6.7492 9.07149 7.01854L12.773 10.7199C13.0659 11.0128 13.0659 11.4877 12.773 11.7806C12.4801 12.0735 12.0052 12.0735 11.7123 11.7806L11.0373 11.1063C10.0737 11.6644 9.06135 11.9469 8 11.9469C5.31079 11.9469 2.93645 10.133 0.870434 6.61959L0.712118 6.34598L0.5 5.97347L0.712118 5.60096C1.34317 4.49274 2.00342 3.54524 2.69306 2.76181L2.16637 2.23462C1.87348 1.94173 1.87348 1.46686 2.16637 1.17396C2.45926 0.881071 2.93414 0.881071 3.22703 1.17396ZM2.40929 5.67676L2.22899 5.97347L2.38502 6.23092C4.15638 9.10383 6.03061 10.4536 8 10.4536C8.65462 10.4536 9.29846 10.3047 9.93124 10.0008L7.09728 7.16623C6.98394 7.08108 6.88312 6.98028 6.79807 6.86706L3.75312 3.82052C3.29887 4.34654 2.85089 4.96439 2.40929 5.67676ZM8 0C10.6892 0 13.0636 1.81397 15.1296 5.32735L15.2879 5.60096L15.5 5.97347L15.1334 6.61299C14.5568 7.59431 13.9562 8.44322 13.3314 9.15723L12.2724 8.09813C12.7801 7.50604 13.2797 6.79907 13.7711 5.97357C11.9538 2.9237 10.0273 1.49337 8 1.49337C7.35779 1.49337 6.72569 1.6369 6.10398 1.92997L4.99578 0.821565C5.94952 0.276123 6.9508 0 8 0Z" fill="#576275"/>
</svg>
