<svg width="22" height="22" viewBox="0 0 22 22" fill="none" xmlns="http://www.w3.org/2000/svg">
<circle cx="11" cy="11" r="11" fill="#C61F2A" fill-opacity="0.1"/>
<path d="M15.2777 13.9944V15.2778H6.72217V13.9944C6.72217 13.7592 6.91467 13.5667 7.14995 13.5667H14.8499C15.0852 13.5667 15.2777 13.7592 15.2777 13.9944Z" fill="#C61F2A" stroke="#C61F2A" stroke-width="1.5" stroke-miterlimit="10" stroke-linecap="round" stroke-linejoin="round"/>
<path d="M8.86093 10.5723H8.00537V13.5667H8.86093V10.5723Z" fill="#C61F2A"/>
<path d="M10.5724 10.5723H9.7168V13.5667H10.5724V10.5723Z" fill="#C61F2A"/>
<path d="M12.2833 10.5723H11.4277V13.5667H12.2833V10.5723Z" fill="#C61F2A"/>
<path d="M13.9947 10.5723H13.1392V13.5667H13.9947V10.5723Z" fill="#C61F2A"/>
<path d="M15.7056 15.5987H6.29447C6.11908 15.5987 5.97363 15.4533 5.97363 15.2779C5.97363 15.1025 6.11908 14.957 6.29447 14.957H15.7056C15.881 14.957 16.0264 15.1025 16.0264 15.2779C16.0264 15.4533 15.881 15.5987 15.7056 15.5987Z" fill="#C61F2A"/>
<path d="M15.0082 8.32641L11.1582 6.78641C11.0727 6.75219 10.9272 6.75219 10.8417 6.78641L6.99167 8.32641C6.84195 8.3863 6.72217 8.56169 6.72217 8.72424V10.1445C6.72217 10.3797 6.91467 10.5722 7.14995 10.5722H14.8499C15.0852 10.5722 15.2777 10.3797 15.2777 10.1445V8.72424C15.2777 8.56169 15.1579 8.3863 15.0082 8.32641ZM10.9999 9.5028C10.6449 9.5028 10.3583 9.21619 10.3583 8.86113C10.3583 8.50608 10.6449 8.21946 10.9999 8.21946C11.355 8.21946 11.6416 8.50608 11.6416 8.86113C11.6416 9.21619 11.355 9.5028 10.9999 9.5028Z" fill="#C61F2A"/>
</svg>
