<svg width="50" height="50" viewBox="0 0 50 50" fill="none" xmlns="http://www.w3.org/2000/svg">
<path d="M9.17658 32.3466L18.6141 41.7841C22.4891 45.6591 28.7807 45.6591 32.6766 41.7841L41.8224 32.6383C45.6974 28.7633 45.6974 22.4716 41.8224 18.5758L32.3641 9.1591C30.3849 7.17993 27.6557 6.11743 24.8641 6.26327L14.4474 6.76327C10.2807 6.95077 6.96824 10.2633 6.75991 14.4091L6.25991 24.8258C6.13491 27.6383 7.19741 30.3674 9.17658 32.3466Z" stroke="#292D32" stroke-width="1.5" stroke-linecap="round" stroke-linejoin="round"/>
<path d="M20.2806 25.4716C23.1571 25.4716 25.4889 23.1397 25.4889 20.2633C25.4889 17.3868 23.1571 15.0549 20.2806 15.0549C17.4041 15.0549 15.0723 17.3868 15.0723 20.2633C15.0723 23.1397 17.4041 25.4716 20.2806 25.4716Z" stroke="#292D32" stroke-width="1.5" stroke-linecap="round"/>
<path d="M27.5723 35.8883L35.9056 27.5549" stroke="#292D32" stroke-width="1.5" stroke-miterlimit="10" stroke-linecap="round" stroke-linejoin="round"/>
</svg>
