<svg width="22" height="22" viewBox="0 0 22 22" fill="none" xmlns="http://www.w3.org/2000/svg">
<circle cx="11" cy="11" r="11" fill="#C61F2A" fill-opacity="0.1"/>
<path d="M10.3944 5.82406C10.526 5.82406 10.6443 5.85167 10.7758 5.90688C11.1441 6.07253 11.3809 6.44524 11.3809 6.85935L11.3809 15.1417C11.3809 15.7077 10.9337 16.177 10.3944 16.177C9.85518 16.177 9.408 15.7077 9.408 15.1417V9.35786L8.46103 10.3517C8.07961 10.7521 7.44829 10.7521 7.06687 10.3517C6.68545 9.95143 6.68545 9.28884 7.06687 8.88853L9.69735 6.12774C9.88148 5.93449 10.1445 5.82406 10.3944 5.82406Z" fill="#C61F2A"/>
<path d="M10.3952 5.82442C10.6451 5.82442 10.895 5.92105 11.0922 6.12811L13.7227 8.88889C14.1041 9.2892 14.1041 9.95179 13.7227 10.3521C13.3413 10.7524 12.71 10.7524 12.3286 10.3521L9.69809 7.59132C9.31667 7.19101 9.31667 6.52842 9.69809 6.12811C9.89537 5.92105 10.1453 5.82442 10.3952 5.82442Z" fill="#C61F2A"/>
</svg>
