<svg width="23" height="22" viewBox="0 0 23 22" fill="none" xmlns="http://www.w3.org/2000/svg">
<g opacity="0.5">
<path d="M8.09912 5.76575C7.71412 5.76575 7.41162 5.45409 7.41162 5.07825V2.52075C7.41162 2.14492 7.71412 1.83325 8.09912 1.83325C8.48412 1.83325 8.78662 2.14492 8.78662 2.52075V5.06909C8.78662 5.45409 8.48412 5.76575 8.09912 5.76575Z" fill="#576275"/>
<path d="M14.9009 5.76575C14.5159 5.76575 14.2134 5.45409 14.2134 5.07825V2.52075C14.2134 2.13575 14.525 1.83325 14.9009 1.83325C15.2859 1.83325 15.5884 2.14492 15.5884 2.52075V5.06909C15.5884 5.45409 15.2859 5.76575 14.9009 5.76575Z" fill="#576275"/>
<path d="M20.2083 14.5017C20.2083 14.6392 20.1625 14.7767 20.0433 14.8959C18.7142 16.2342 16.3492 18.6175 14.9925 19.9834C14.8733 20.1117 14.7175 20.1667 14.5617 20.1667C14.2592 20.1667 13.9658 19.9284 13.9658 19.58V16.3717C13.9658 15.0334 15.1025 13.9242 16.4958 13.9242C17.3667 13.915 18.5767 13.915 19.6125 13.915C19.97 13.915 20.2083 14.1992 20.2083 14.5017Z" fill="#576275"/>
<path d="M20.2083 14.5017C20.2083 14.6392 20.1625 14.7767 20.0433 14.8959C18.7142 16.2342 16.3492 18.6175 14.9925 19.9834C14.8733 20.1117 14.7175 20.1667 14.5617 20.1667C14.2592 20.1667 13.9658 19.9284 13.9658 19.58V16.3717C13.9658 15.0334 15.1025 13.9242 16.4958 13.9242C17.3667 13.915 18.5767 13.915 19.6125 13.915C19.97 13.915 20.2083 14.1992 20.2083 14.5017Z" fill="#576275"/>
<path d="M18.439 4.12492C17.834 3.67575 16.9632 4.10659 16.9632 4.86742V4.95909C16.9632 6.03158 16.1932 7.02159 15.1207 7.13159C13.8832 7.25992 12.8382 6.28825 12.8382 5.07825V4.12492C12.8382 3.62075 12.4257 3.20825 11.9215 3.20825H11.0782C10.574 3.20825 10.1615 3.62075 10.1615 4.12492V4.95909C10.1615 5.76575 9.73067 6.51742 9.0615 6.88409C9.02484 6.91159 8.98817 6.92992 8.9515 6.94825C8.94234 6.94825 8.94234 6.95742 8.93317 6.95742C8.869 6.98492 8.80484 7.01242 8.7315 7.03992C8.71317 7.04908 8.69484 7.04908 8.6765 7.05825C8.5665 7.09492 8.44734 7.12242 8.319 7.13159H8.30984C8.17234 7.14992 8.02567 7.14992 7.88817 7.13159H7.879C7.75067 7.12242 7.6315 7.09492 7.5215 7.05825C7.42984 7.03075 7.33817 6.99409 7.2465 6.94825C6.5315 6.62742 6.0365 5.91242 6.0365 5.07825V4.86742C6.0365 4.16159 5.28484 3.73992 4.689 4.04242C4.67984 4.05159 4.67067 4.05159 4.6615 4.06075H4.65234C4.58817 4.10659 4.53317 4.15242 4.469 4.19825C4.36817 4.28075 4.26734 4.36325 4.17567 4.45492C4.1115 4.51909 4.04734 4.58325 3.99234 4.64742C3.919 4.72075 3.85484 4.79409 3.79067 4.87659C3.74484 4.93159 3.68984 4.98659 3.65317 5.05075C3.60734 5.10575 3.57067 5.16992 3.534 5.22492C3.52484 5.23409 3.51567 5.24325 3.5065 5.26158C3.424 5.38075 3.35067 5.51825 3.2865 5.64658C3.26817 5.66492 3.259 5.67409 3.259 5.69242C3.204 5.80242 3.149 5.91242 3.11234 6.03158C3.08484 6.07742 3.07567 6.11408 3.05734 6.15992C3.039 6.19658 3.02984 6.24242 3.0115 6.27909C2.984 6.37075 2.9565 6.47159 2.929 6.57242C2.89234 6.70075 2.86484 6.83825 2.8465 6.97575C2.82817 7.07659 2.819 7.17742 2.80984 7.28742C2.80067 7.41575 2.7915 7.54409 2.7915 7.67242V15.7024C2.7915 18.1683 4.78984 20.1666 7.25567 20.1666H11.674C12.1782 20.1666 12.5907 19.7541 12.5907 19.2499V16.3716C12.5907 14.2633 14.3415 12.5491 16.4957 12.5491C16.9815 12.5399 18.164 12.5399 19.2915 12.5399C19.7957 12.5399 20.2082 12.1274 20.2082 11.6233V7.67242C20.2082 6.21492 19.5115 4.94075 18.439 4.12492ZM10.7023 14.5841C10.6198 14.8591 10.3632 15.0516 10.0607 15.0516H6.724C6.67817 15.0516 6.6415 15.0516 6.60484 15.0333C6.27484 14.9874 6.0365 14.7033 6.0365 14.3641C6.0365 13.9791 6.339 13.6674 6.724 13.6674H10.0607C10.4365 13.6674 10.7482 13.9791 10.7482 14.3641C10.7482 14.4374 10.739 14.5199 10.7023 14.5841ZM13.2507 11.1833C13.1682 11.4583 12.9115 11.6508 12.609 11.6508H6.724C6.67817 11.6508 6.6415 11.6508 6.60484 11.6324C6.27484 11.5866 6.0365 11.3024 6.0365 10.9633C6.0365 10.5783 6.339 10.2666 6.724 10.2666H12.609C12.994 10.2666 13.2965 10.5783 13.2965 10.9633C13.2965 11.0366 13.2873 11.1191 13.2507 11.1833Z" fill="#576275"/>
</g>
</svg>
