<svg width="35" height="23" viewBox="0 0 35 23" fill="none" xmlns="http://www.w3.org/2000/svg">
<path d="M29.2392 10.1644C29.2392 10.1644 29.8882 1.42141 21.8782 0.424413C15.0132 -0.276587 12.9232 6.10341 12.9232 6.10341C12.9232 6.10341 10.8562 4.11541 8.0512 5.73941C5.5402 7.28941 5.9842 10.1274 5.9842 10.1274C5.9842 10.1274 0.408203 11.2114 0.408203 16.8954C0.532203 22.5724 6.4622 22.6294 6.4622 22.6294H15.8132V16.6294H12.8132L17.8132 11.6294L22.8132 16.6294H19.8132V22.6294H28.2802C28.2802 22.6294 33.8002 22.6354 34.5752 17.2344C34.9442 11.3284 29.2392 10.1644 29.2392 10.1644Z" fill="#1F7A71"/>
</svg>
