<svg width="23" height="22" viewBox="0 0 23 22" fill="none" xmlns="http://www.w3.org/2000/svg">
<path d="M16.1144 0H6.89637C2.89237 0 0.505371 2.387 0.505371 6.391V15.598C0.505371 19.613 2.89237 22 6.89637 22H16.1034C20.1074 22 22.4944 19.613 22.4944 15.609V6.391C22.5054 2.387 20.1184 0 16.1144 0ZM14.5744 16.06C14.4094 16.269 14.1674 16.379 13.9254 16.379C13.7494 16.379 13.5734 16.324 13.4194 16.203C12.2534 15.301 10.7464 15.301 9.58037 16.203C9.21737 16.478 8.70037 16.412 8.42537 16.06C8.15037 15.697 8.21637 15.18 8.56837 14.905C10.3174 13.552 12.6714 13.552 14.4204 14.905C14.7944 15.18 14.8604 15.697 14.5744 16.06ZM17.0054 12.661C16.8404 12.87 16.5984 12.98 16.3564 12.98C16.1804 12.98 16.0044 12.925 15.8504 12.804C13.2104 10.769 9.81137 10.769 7.17137 12.804C6.80837 13.09 6.29137 13.024 6.00537 12.661C5.71937 12.298 5.79637 11.781 6.14837 11.506C9.39337 8.998 13.5954 8.998 16.8404 11.506C17.2144 11.781 17.2804 12.298 17.0054 12.661ZM18.7544 9.262C18.5894 9.471 18.3474 9.581 18.1054 9.581C17.9294 9.581 17.7534 9.526 17.5994 9.405C13.8924 6.545 9.10737 6.545 5.41137 9.405C5.04837 9.68 4.53137 9.614 4.25637 9.262C3.98137 8.899 4.04737 8.382 4.39937 8.107C8.71137 4.774 14.2884 4.774 18.6114 8.107C18.9744 8.382 19.0404 8.899 18.7544 9.262Z" fill="#C61F2A"/>
</svg>
